<?xml version="1.0" encoding="UTF-8"?> <svg xmlns="http://www.w3.org/2000/svg" width="133" height="32" viewBox="0 0 133 32" fill="none"><g clip-path="url(#clip0)"><path d="M45.6384 23.5279C45.6138 23.4288 45.5892 23.3296 45.5646 23.2552C45.54 23.1808 45.5154 23.0569 45.4908 22.9329C45.4662 22.8089 45.4662 22.6354 45.4416 22.437C45.4416 22.2387 45.4416 21.9907 45.4416 21.6932V19.3379C45.4416 18.6436 45.3186 18.1478 45.0726 17.8503C44.8266 17.5775 44.433 17.4288 43.9164 17.4288H43.1046V23.5279H40.7676V8.55273H44.2854C45.4908 8.55273 46.3764 8.85026 46.9176 9.39571C47.4588 9.96596 47.7294 10.8337 47.7294 11.9742V13.1395C47.7294 14.6767 47.2128 15.6932 46.2042 16.1643C46.7946 16.4122 47.2128 16.8089 47.4342 17.3544C47.6556 17.8998 47.754 18.5693 47.754 19.3626V21.6684C47.754 22.0403 47.7786 22.3627 47.8032 22.6354C47.8278 22.9081 47.9016 23.2056 48.0246 23.4784H45.6384V23.5279ZM43.08 10.7098V15.2965H43.9902C44.433 15.2965 44.7774 15.1726 45.0234 14.9494C45.2694 14.7263 45.3924 14.3048 45.3924 13.7098V12.2222C45.3924 11.6767 45.294 11.28 45.0972 11.0569C44.9004 10.8089 44.6052 10.685 44.187 10.685H43.08V10.7098Z" fill="#025128"></path><path d="M50.1641 12.1475C50.1641 10.9326 50.4593 10.0153 51.0743 9.34585C51.6893 8.70122 52.5503 8.37891 53.7065 8.37891C54.8626 8.37891 55.7236 8.70122 56.3386 9.34585C56.9536 9.99048 57.2488 10.9326 57.2488 12.1475V19.9326C57.2488 21.1475 56.9536 22.0649 56.3386 22.7343C55.7236 23.3789 54.8626 23.7012 53.7065 23.7012C52.5503 23.7012 51.6893 23.3789 51.0743 22.7343C50.4593 22.0896 50.1641 21.1475 50.1641 19.9326V12.1475ZM52.5011 20.0814C52.5011 20.6268 52.5995 20.9987 52.8209 21.2219C53.0423 21.445 53.3375 21.5442 53.7065 21.5442C54.0754 21.5442 54.3706 21.445 54.592 21.2219C54.8134 20.9987 54.9118 20.6268 54.9118 20.0814V11.9987C54.9118 11.4533 54.8134 11.0814 54.592 10.8582C54.3706 10.6351 54.0754 10.5359 53.7065 10.5359C53.3375 10.5359 53.0423 10.6351 52.8209 10.8582C52.5995 11.0814 52.5011 11.4533 52.5011 11.9987V20.0814Z" fill="#025128"></path><path d="M59.5136 12.1475C59.5136 10.9326 59.8088 10.0153 60.3746 9.34585C60.9404 8.70122 61.8014 8.37891 62.9576 8.37891C64.1138 8.37891 64.9748 8.70122 65.5406 9.34585C66.1064 9.99048 66.4016 10.9326 66.4016 12.1475V12.6186H64.1876V11.9987C64.1876 11.4533 64.0892 11.0814 63.8678 10.8582C63.671 10.6351 63.3758 10.5359 63.0068 10.5359C62.6378 10.5359 62.3426 10.6351 62.1458 10.8582C61.949 11.0814 61.826 11.4533 61.826 11.9987C61.826 12.5194 61.949 12.9657 62.1704 13.3624C62.3918 13.7591 62.687 14.131 63.0314 14.4781C63.3758 14.8252 63.7448 15.1723 64.1138 15.5194C64.4828 15.8665 64.8764 16.2384 65.1962 16.6599C65.5406 17.0814 65.8112 17.5525 66.0326 18.0731C66.254 18.5938 66.377 19.2136 66.377 19.9326C66.377 21.1475 66.0818 22.0649 65.4914 22.7343C64.901 23.3789 64.04 23.7012 62.8838 23.7012C61.7276 23.7012 60.8666 23.3789 60.2762 22.7343C59.6858 22.0896 59.3906 21.1475 59.3906 19.9326V19.0153H61.6046V20.0814C61.6046 20.6268 61.703 20.9987 61.9244 21.2219C62.1458 21.445 62.441 21.5442 62.81 21.5442C63.179 21.5442 63.4742 21.445 63.6956 21.2219C63.917 20.9987 64.0154 20.6268 64.0154 20.0814C64.0154 19.5607 63.8924 19.1144 63.671 18.7177C63.4496 18.3211 63.1544 17.9492 62.8346 17.602C62.4902 17.2549 62.1212 16.9078 61.7522 16.5607C61.3832 16.2136 60.9896 15.8417 60.6698 15.4202C60.3254 14.9987 60.0548 14.5277 59.8088 14.007C59.6366 13.4863 59.5136 12.8665 59.5136 12.1475Z" fill="#025128"></path><path d="M73.7555 19.1891L75.3545 8.55273H78.6017V23.5279H76.3877V12.7924L74.7641 23.5279H72.5501L70.8035 12.9412V23.5279H68.7617V8.55273H72.0089L73.7555 19.1891Z" fill="#025128"></path><path d="M88.9094 23.5285H86.5478L86.1542 20.8261H83.3006L82.907 23.5533H80.7422L83.1284 8.57812H86.5478L88.9094 23.5285ZM83.5712 18.793H85.8098L84.6782 11.231L83.5712 18.793Z" fill="#025128"></path><path d="M95.9196 23.5279C95.895 23.4288 95.8704 23.3296 95.8458 23.2552C95.8212 23.1808 95.7966 23.0569 95.772 22.9329C95.7474 22.8089 95.7474 22.6354 95.7228 22.437C95.7228 22.2387 95.7228 21.9907 95.7228 21.6932V19.3379C95.7228 18.6436 95.5998 18.1478 95.3538 17.8503C95.1078 17.5775 94.7142 17.4288 94.1976 17.4288H93.3858V23.5279H91.0488V8.55273H94.5666C95.772 8.55273 96.6576 8.85026 97.1988 9.39571C97.74 9.96596 98.0106 10.8337 98.0106 11.9742V13.1395C98.0106 14.6767 97.494 15.6932 96.4854 16.1643C97.0758 16.4122 97.494 16.8089 97.7154 17.3544C97.9368 17.8998 98.0352 18.5693 98.0352 19.3626V21.6684C98.0352 22.0403 98.0598 22.3627 98.0844 22.6354C98.109 22.9081 98.1828 23.2056 98.3058 23.4784H95.9196V23.5279ZM93.3858 10.7098V15.2965H94.296C94.7388 15.2965 95.0832 15.1726 95.3292 14.9494C95.5752 14.7263 95.6982 14.3048 95.6982 13.7098V12.2222C95.6982 11.6767 95.5998 11.28 95.403 11.0569C95.2062 10.8089 94.911 10.685 94.4928 10.685H93.3858V10.7098Z" fill="#025128"></path><path d="M100.645 8.55273H102.982V23.5279H100.645V8.55273Z" fill="#025128"></path><path d="M113.289 23.5279H110.927L110.534 20.8007H107.68L107.287 23.5279H105.146L107.533 8.55273H110.952L113.289 23.5279ZM107.975 18.7924H110.214L109.082 11.2304L107.975 18.7924Z" fill="#025128"></path><path d="M117.519 12.6932V23.5279H115.428V8.55273H118.355L120.741 17.5031V8.55273H122.832V23.5279H120.446L117.519 12.6932Z" fill="#025128"></path><path d="M125.367 12.1475C125.367 10.9326 125.662 10.0153 126.277 9.34585C126.892 8.70122 127.753 8.37891 128.91 8.37891C130.066 8.37891 130.927 8.70122 131.542 9.34585C132.157 9.99048 132.452 10.9326 132.452 12.1475V19.9326C132.452 21.1475 132.157 22.0649 131.542 22.7343C130.927 23.3789 130.066 23.7012 128.91 23.7012C127.753 23.7012 126.892 23.3789 126.277 22.7343C125.662 22.0896 125.367 21.1475 125.367 19.9326V12.1475ZM127.704 20.0814C127.704 20.6268 127.803 20.9987 128.024 21.2219C128.245 21.445 128.541 21.5442 128.91 21.5442C129.279 21.5442 129.574 21.445 129.795 21.2219C130.017 20.9987 130.115 20.6268 130.115 20.0814V11.9987C130.115 11.4533 130.017 11.0814 129.795 10.8582C129.574 10.6351 129.279 10.5359 128.91 10.5359C128.541 10.5359 128.245 10.6351 128.024 10.8582C127.803 11.0814 127.704 11.4533 127.704 11.9987V20.0814Z" fill="#025128"></path><path d="M11.6166 4.61007C12.945 3.44478 14.4948 2.52742 16.1429 1.90759C17.8157 1.28776 19.5869 0.990234 21.3581 0.990234C24.9005 0.990234 28.4429 2.37866 31.0997 4.75883C33.7811 7.13899 35.5523 10.5357 35.9705 14.1059C36.1919 15.8911 36.0935 17.7258 35.6753 19.4613C35.2571 21.2216 34.5437 22.8828 33.5351 24.3952C31.5179 27.3704 28.4429 29.6018 24.9743 30.5192C23.2523 30.9654 21.4319 31.1142 19.6607 30.9406C17.8895 30.7671 16.1429 30.2464 14.544 29.453C11.3706 27.8415 8.81217 25.0398 7.45918 21.7175C6.79498 20.0563 6.42598 18.2712 6.37678 16.5109C6.32758 14.7258 6.59818 12.9406 7.16398 11.2547C6.08158 14.6514 6.25378 18.3952 7.63138 21.6431C9.00897 24.8911 11.5428 27.6183 14.6916 29.1555C16.2659 29.9241 17.9633 30.3952 19.6853 30.5687C21.4319 30.7423 23.1785 30.5935 24.8759 30.1473C28.2461 29.2547 31.2473 27.0729 33.1907 24.1721C34.1747 22.7092 34.8881 21.0977 35.2817 19.3869C35.6999 17.6762 35.7983 15.8911 35.5769 14.1555C35.4785 13.2878 35.2817 12.42 35.0357 11.577C34.7651 10.734 34.4453 9.91585 34.0517 9.14726C33.2399 7.58528 32.1575 6.17205 30.8783 5.00676C28.3199 2.6266 24.8759 1.23817 21.3581 1.18858C19.6115 1.13899 17.8403 1.43652 16.1921 2.00676C14.544 2.6018 12.9696 3.49437 11.6166 4.61007Z" fill="#878787"></path><path d="M28.5675 25.4621C28.5429 25.5364 27.8787 24.867 27.8787 24.7431C27.8787 24.7183 27.6819 24.4703 27.4605 24.2224C27.3621 24.1232 27.2391 23.9993 27.2145 23.9497C27.2883 24.0488 27.3375 24.1728 27.2883 24.1728C27.2637 24.1728 27.2883 24.1976 27.3375 24.2472C27.4359 24.3216 28.0263 25.0406 28.2231 25.3133C28.2723 25.4125 28.3215 25.5612 28.3215 25.6604C28.3215 25.7844 28.3215 25.834 28.2231 25.71C28.1985 25.6852 28.1001 25.6604 28.0263 25.6852C27.9525 25.71 27.9279 25.6852 27.9033 25.6356C27.8787 25.6108 27.8787 25.6108 27.8787 25.6604C27.8787 25.7844 27.7557 25.8588 27.7557 25.7348C27.7557 25.6604 27.4605 25.3381 26.9439 24.7183C26.7471 24.5199 26.6241 24.3216 26.6241 24.3216C26.5995 24.272 26.5749 24.2472 26.5257 24.2472C26.4273 24.2472 26.5503 24.4455 26.8209 24.7431C26.9439 24.9166 27.0669 25.0654 27.0915 25.1398C27.0915 25.2141 27.1407 25.3133 27.1899 25.2637C27.2145 25.2637 27.2391 25.3133 27.2145 25.4373C27.1899 25.5364 27.2145 25.5364 27.2883 25.5117C27.3621 25.4869 27.3621 25.4869 27.3621 25.5364C27.3129 25.6108 27.6327 26.0323 27.6819 25.9579C27.7065 25.9331 27.7065 25.9579 27.6819 26.0075C27.6819 26.0571 27.5589 26.1811 27.4359 26.2307C27.3375 26.305 27.2391 26.4042 27.2391 26.429C27.2391 26.4538 27.1899 26.4786 27.1407 26.4786C27.0915 26.4786 27.0423 26.5282 27.0423 26.553C27.0423 26.6521 26.4765 27.0984 26.4027 27.0488C26.4027 27.024 26.3289 27.024 26.2305 26.9993C26.1813 26.9993 25.9107 26.7265 25.6401 26.3794C25.3695 26.0571 24.7299 25.3133 24.2133 24.7183C23.6967 24.148 23.1555 23.5282 22.9833 23.305C22.8111 23.1067 22.4667 22.6852 22.2207 22.3877C21.7533 21.867 21.2859 21.2224 20.3019 19.9083C19.3425 18.6439 19.1949 18.3959 19.0473 18.148C18.8013 17.7761 18.7521 17.7513 18.5061 17.8753C18.3339 18.0488 18.3339 18.0984 18.2109 18.7926C18.2109 18.9166 18.1617 19.115 18.1617 19.2141C18.1125 19.4125 17.8419 21.0984 17.8419 21.1976C17.8419 21.2224 17.8419 21.2224 17.8173 21.2224C17.7435 21.148 17.7681 20.5282 17.8665 19.834C17.9157 19.5117 17.9649 19.2141 17.9403 19.1893C17.9157 19.1645 17.9157 19.115 17.9649 19.115C17.9895 19.115 18.0141 18.991 18.0141 18.7926C18.0387 18.5695 18.0141 18.4455 17.9649 18.4455C17.9403 18.4455 17.9157 18.5199 17.9157 18.5695C17.9157 18.6439 17.8665 18.6935 17.8419 18.6935C17.8173 18.6935 17.8173 18.7431 17.8419 18.8174C17.8665 18.8918 17.8911 19.0158 17.8665 19.0406C17.8173 19.1398 17.7435 19.7348 17.6697 20.1315C17.6697 20.3546 17.6205 20.5034 17.5713 20.5282C17.5221 20.553 17.5221 20.6026 17.5713 20.6274C17.6697 20.6769 17.5713 20.9497 17.4729 20.9001C17.3991 20.9001 17.3499 20.9001 17.2761 20.9497C17.2761 20.9993 17.2515 20.9745 17.2761 20.9001C17.3007 20.7761 17.2761 20.7265 17.2269 20.7265C17.1777 20.7513 17.1531 20.8257 17.1777 20.9249C17.1777 20.9993 17.1531 21.0488 17.1285 21.0488C17.0547 21.0488 17.0547 20.9745 17.0793 20.7265C17.1039 20.4786 17.1039 20.4042 17.0547 20.429C17.0055 20.429 17.0547 20.3546 17.1039 20.2307C17.2023 20.0571 17.2269 19.9579 17.1777 19.834C17.1285 19.586 17.1531 19.1398 17.2761 18.9414C17.3745 18.6935 17.3745 18.4703 17.2269 18.4703C17.1777 18.4703 17.1285 18.4951 17.1285 18.5199C17.1285 18.5695 17.0793 18.5943 17.0055 18.5943C16.9563 18.5943 16.9317 18.6191 16.9563 18.6687C16.9563 18.7183 16.9563 18.7926 16.9071 18.867C16.8579 18.9166 16.8579 18.9414 16.9071 18.9166C17.0055 18.8422 17.1285 18.9662 17.0055 19.115C16.9071 19.2141 16.8087 19.5117 16.9071 19.4621C16.9563 19.4125 17.0055 19.4373 17.0055 19.4621C17.0055 19.5117 16.9563 19.5364 16.9317 19.5364C16.9071 19.5364 16.8825 19.6108 16.8333 19.6604C16.8333 19.71 16.7841 19.7844 16.7595 19.8588C16.7595 19.9331 16.7595 19.9331 16.8087 19.9083C16.8825 19.8588 16.8825 19.8836 16.8087 20.0075C16.7841 20.0819 16.7103 20.1315 16.6119 20.1315C16.5381 20.1315 16.5381 20.1315 16.6119 20.2307C16.7103 20.2802 16.7103 20.3546 16.6611 20.6274C16.6119 20.8257 16.5627 20.9745 16.5381 20.9993C16.4889 21.0488 16.4643 21.0488 16.4889 20.9745C16.5135 20.9249 16.5135 20.8505 16.4889 20.8009C16.4397 20.8009 16.4151 20.8257 16.4151 20.9249C16.4151 21.024 16.4397 21.0984 16.4889 21.0984C16.5381 21.0984 16.5135 21.148 16.4397 21.1976C16.3659 21.272 16.3413 21.2968 16.3905 21.2968C16.5627 21.272 16.6119 21.3216 16.5873 21.4207C16.5381 21.5943 16.4643 21.6191 16.3905 21.4207C16.3659 21.3464 16.3659 21.3712 16.3413 21.4703C16.3413 21.5447 16.3905 21.5943 16.4397 21.5943C16.5381 21.5943 16.5381 21.6439 16.4889 21.7679C16.4889 21.8422 16.4397 22.0158 16.4397 22.115C16.4397 22.2389 16.4151 22.3629 16.4151 22.3877C16.4151 22.4125 16.2921 22.5612 16.2429 22.5612C16.1445 22.586 16.1199 22.5612 16.1445 22.3877C16.1691 22.3133 16.1691 22.1893 16.2183 22.1645C16.3167 22.0902 16.3413 21.9662 16.2675 21.7431C16.2183 21.5199 16.0953 21.4951 15.9477 21.6687C15.8247 21.7926 15.8247 21.9166 15.9723 21.867C16.0953 21.8422 16.0953 21.867 16.0707 22.0406C16.0461 22.1645 16.0215 22.3629 16.0215 22.5117C16.0215 22.71 15.9969 22.7348 15.8001 22.7348C15.6771 22.7348 15.5049 22.7596 15.3819 22.7844C15.2589 22.8092 15.0621 22.7844 14.8653 22.71C14.5455 22.5612 14.5455 22.5612 14.5701 22.2885C14.6931 21.0736 14.7669 20.7513 14.7915 20.429C14.8161 20.2555 14.8653 19.9083 14.8899 19.6604C15.0621 18.4703 15.1605 17.5282 15.1113 17.4042C15.0867 17.3298 15.0621 17.2307 15.0129 17.2307C14.8899 17.2307 14.3733 16.6852 14.3733 16.5364C14.3733 16.4125 14.4471 16.3381 14.8653 16.2389C15.1851 16.115 15.3573 16.0158 15.3819 15.9166C15.4311 15.867 15.5787 15.0984 15.6771 14.2555C15.8493 13.3877 16.0707 11.9497 16.2675 11.0819L16.5873 9.49512L16.3659 9.32157C16.2921 9.24719 16.1691 9.14801 16.1691 9.12322C16.1691 9.04884 15.8247 8.70173 15.6525 8.62735C15.6033 8.60256 15.2343 8.30504 14.8653 7.95793C14.2257 7.33809 14.2257 7.33809 14.2749 7.09016C14.4963 6.54471 16.3905 5.50338 18.0141 5.0571C19.3671 4.6852 21.4581 4.48685 22.3683 4.63562C22.9833 4.73479 23.7459 5.0571 24.2871 5.50338C24.8775 5.97446 26.6241 7.80917 26.9193 8.25545C27.2637 8.77611 27.4113 9.22239 27.4359 9.79264C27.5097 11.4042 26.3781 13.0158 23.9427 14.7265C23.4507 15.0736 22.3929 15.7926 22.0731 15.9414C21.4089 16.2885 21.4335 16.2389 21.8763 16.8588C22.0977 17.1563 22.4667 17.6769 22.7127 17.9745C22.9341 18.2968 23.4015 18.867 23.7213 19.2637C24.0411 19.6604 24.8037 20.553 25.3203 21.2472C26.4519 22.6356 26.6979 22.9083 27.3867 23.7761C28.1985 24.8174 28.6167 25.3877 28.5675 25.4621ZM15.8985 20.8009C15.8739 20.8009 15.8493 20.8505 15.8493 20.8753C15.8493 20.9001 15.8739 20.9249 15.8739 20.9249C15.8985 20.9249 15.9231 20.9001 15.9477 20.8753C15.9477 20.8753 15.9477 20.8009 15.8985 20.8009ZM16.2429 20.9497C16.2183 20.9497 16.1691 20.9745 16.1691 21.024C16.1691 21.0488 16.1691 21.148 16.1445 21.2968C16.1199 21.5199 16.1937 21.5943 16.2675 21.3959C16.3167 21.2224 16.2921 20.9497 16.2429 20.9497ZM16.3659 20.6274C16.3659 20.5778 16.3413 20.553 16.2921 20.553C16.2675 20.553 16.2183 20.5778 16.2183 20.6274C16.1937 20.6769 16.2183 20.6769 16.2675 20.6769C16.3167 20.6769 16.3659 20.6769 16.3659 20.6274ZM17.4237 21.4703C17.3499 22.4125 17.3007 22.6604 17.2269 22.6604C17.1531 22.6604 17.1285 22.586 17.1531 22.3381C17.1777 22.1645 17.2023 21.9414 17.2269 21.8174C17.2269 21.6191 17.2269 21.5695 17.1285 21.5447C17.0055 21.5199 17.0055 21.5199 17.0793 21.6687C17.1285 21.7926 17.1285 21.7926 17.0547 21.6935C16.9809 21.6687 16.9317 21.5695 16.9317 21.4951C16.9317 21.4207 17.1285 21.3216 17.1777 21.4455C17.2023 21.4455 17.2515 21.4703 17.3007 21.4703C17.3253 21.4703 17.3253 21.4455 17.3007 21.4207C17.2515 21.3712 17.2269 21.3216 17.2761 21.1976C17.3991 20.9745 17.4483 21.0736 17.4237 21.4703ZM17.1039 21.2968C17.0793 21.2968 17.0547 21.272 17.0547 21.2224C17.0547 21.1976 17.1039 21.1728 17.1285 21.1728C17.1531 21.1728 17.1777 21.1976 17.1531 21.2224C17.1285 21.272 17.1039 21.2968 17.1039 21.2968ZM17.3991 19.8588C17.3499 19.8588 17.3253 19.8836 17.3253 19.9083C17.3253 19.9579 17.3499 19.9827 17.3499 19.9827C17.3745 19.9827 17.3991 19.9579 17.4237 19.9083C17.4483 19.8836 17.4237 19.8588 17.3991 19.8588ZM17.4975 19.2141C17.4483 19.2885 17.3991 19.4373 17.3991 19.4869C17.3991 19.6852 17.4975 19.5364 17.5713 19.2637C17.5713 19.115 17.5713 19.115 17.4975 19.2141ZM17.5713 18.6191C17.5221 18.4951 17.5221 18.5199 17.5221 18.6687C17.5221 18.8422 17.5221 18.867 17.5713 18.7926C17.6451 18.7183 17.6697 18.6687 17.5713 18.6191ZM17.6697 22.5612C17.6697 22.6108 17.6451 22.6356 17.5959 22.6356C17.5713 22.6356 17.5467 22.6108 17.5467 22.586C17.5467 22.5612 17.5713 22.5117 17.5959 22.4869C17.6451 22.4621 17.6697 22.5117 17.6697 22.5612ZM17.7435 21.9414C17.7435 22.0158 17.6943 22.115 17.6697 22.115C17.6451 22.115 17.5959 22.0406 17.5959 21.9414C17.5959 21.867 17.6451 21.7431 17.6697 21.7431C17.6943 21.7678 17.7435 21.867 17.7435 21.9414ZM18.1125 18.148C18.0879 18.0736 18.0633 18.0984 18.0633 18.1728C18.0633 18.2472 18.0879 18.2968 18.0879 18.2472C18.1125 18.272 18.1125 18.1976 18.1125 18.148ZM25.0251 7.93314C25.0251 7.41248 24.9267 7.33809 24.1641 7.21413C23.4753 7.11495 22.4913 7.16454 21.4089 7.33809C20.4495 7.51165 20.3019 7.56124 20.3019 7.80917C20.3019 8.00752 19.9821 9.76785 19.6869 11.0571C19.4163 12.4207 19.0965 13.9827 19.0965 14.0075C19.0965 14.0819 19.2195 14.0075 20.1543 13.4125C23.6229 11.2059 25.0251 9.64388 25.0251 7.93314ZM25.3695 22.9083C25.3203 22.834 25.1973 22.6852 25.0989 22.6108L24.9021 22.4125L25.0743 22.6108C25.1481 22.6852 25.1973 22.834 25.1973 22.8836C25.1973 22.9579 25.2465 23.0075 25.2957 23.0075C25.4187 23.0571 25.4433 23.0323 25.3695 22.9083ZM26.2797 23.9249C26.2305 23.8505 26.0091 23.6026 25.8123 23.4042C25.5171 23.0819 25.4925 23.0571 25.6155 23.2802C25.6647 23.4042 25.8123 23.5778 25.8861 23.6521C25.9353 23.7017 26.0091 23.7761 26.0091 23.8257C26.0091 23.9249 26.2797 24.1728 26.3289 24.1232C26.3535 24.1232 26.3289 23.9993 26.2797 23.9249ZM26.4027 22.9579C26.3289 22.8836 26.2059 22.7844 26.2059 22.7844C26.1567 22.7844 26.2305 22.8588 26.3043 22.9579C26.3781 23.0571 26.5011 23.1563 26.5257 23.1563C26.5503 23.1315 26.5011 23.0571 26.4027 22.9579ZM26.8455 23.5282C26.7963 23.429 26.7225 23.3546 26.6733 23.3298C26.6241 23.3298 26.6733 23.4042 26.7717 23.5282C26.9931 23.7265 27.0177 23.7265 26.8455 23.5282ZM27.4359 25.586C27.4851 25.586 27.5097 25.6108 27.5097 25.6604C27.5097 25.71 27.4851 25.71 27.4851 25.71C27.4605 25.71 27.4359 25.71 27.4113 25.6604C27.3867 25.6108 27.3867 25.586 27.4359 25.586ZM27.6573 25.3877C27.6573 25.4373 27.7311 25.5117 27.7803 25.5117C27.8049 25.5117 27.8295 25.4621 27.8049 25.4125C27.7803 25.3133 27.6573 25.2885 27.6573 25.3877Z" fill="#025128"></path><path d="M7.70703 15.9908C7.95303 15.9412 10.1916 13.7594 9.94562 13.4866C9.67503 13.2139 7.80543 15.842 7.70703 15.9908Z" fill="#016949"></path><path d="M9.35517 11.5514C8.91237 11.4274 7.43638 15.8902 7.48558 16.5596C7.92837 16.0638 9.82257 11.7001 9.35517 11.5514Z" fill="#025128"></path><path d="M6.91821 18.6176C7.18881 17.5267 7.70541 14.6259 7.28721 14.5267C6.81981 14.4523 6.84441 17.5515 6.91821 18.6176Z" fill="#016949"></path><path d="M8.46902 22.9569C8.61662 21.8412 8.91182 19.0396 8.46902 18.866C8.00163 18.6677 8.10002 21.9652 8.46902 22.9569Z" fill="#025128"></path><path d="M6.9687 20.7512C7.5345 21.3711 3.35251 18.4702 3.52471 18.1479C3.69691 17.8256 6.4275 20.1314 6.9687 20.7512Z" fill="#016949"></path><path d="M8.71545 24.5182C9.03525 24.667 6.72285 24.5182 6.79665 24.2951C6.87045 24.0719 8.39565 24.3695 8.71545 24.5182Z" fill="#025128"></path><path d="M9.20589 25.2125C9.55028 25.163 7.50849 26.2787 7.45929 26.0307C7.43469 25.8076 8.88609 25.2621 9.20589 25.2125Z" fill="#025128"></path><path d="M9.13384 25.089C9.55204 25.2378 6.35405 25.337 6.52625 25.0147C6.67385 24.6676 8.71564 24.9155 9.13384 25.089Z" fill="#016949"></path><path d="M7.1149 21.272C6.4015 20.8009 1.50612 18.867 1.33392 19.4125C1.13712 20.0323 6.00791 20.8009 7.1149 21.272Z" fill="#025128"></path><path d="M7.06647 21.0487C6.10707 20.4288 2.12189 17.5528 1.82669 17.9495C1.53149 18.3462 6.67287 20.9495 7.06647 21.0487Z" fill="#025128"></path><path d="M6.77194 20.1315C6.20614 19.1646 4.13975 15.5199 3.84455 15.6935C3.54935 15.867 6.03394 19.5365 6.77194 20.1315Z" fill="#025128"></path><path d="M8.6404 24.246C7.7056 23.9484 4.26161 22.7088 4.13861 23.0807C4.04021 23.4278 7.804 24.3451 8.6404 24.246Z" fill="#016949"></path><path d="M0.572123 14.6024C0.916522 14.2305 4.08991 17.4041 4.72951 18.1479C3.49951 17.6768 0.227724 14.9248 0.572123 14.6024Z" fill="#016949"></path><path d="M8.19848 23.4777C7.78028 22.9571 3.79509 21.643 3.25389 21.9157C2.71269 22.1885 6.82088 23.3538 8.19848 23.4777Z" fill="#025128"></path><path d="M6.96875 19.189C7.50995 18.6931 10.9047 15.8171 10.6587 15.47C10.4127 15.1228 7.50995 18.2716 6.96875 19.189Z" fill="#025128"></path><path d="M8.5918 23.1546C8.7886 23.0307 9.99399 20.105 9.64959 19.9563C9.30519 19.8075 8.6164 22.9563 8.5918 23.1546Z" fill="#025128"></path><path d="M9.625 24.8419C9.7726 24.7676 10.8304 22.6105 10.5844 22.4618C10.363 22.313 9.6742 24.6932 9.625 24.8419Z" fill="#025128"></path><path d="M6.5252 13.2391C6.5252 12.3465 6.107 7.68535 5.5658 7.46221C5.0246 7.23907 6.1808 12.3217 6.5252 13.2391Z" fill="#025128"></path><path d="M6.40307 13.9085C6.28007 13.0655 5.32067 10.363 5.07467 10.5118C4.73028 10.7101 5.93567 13.3134 6.40307 13.9085Z" fill="#016949"></path><path d="M6.67383 13.9072C7.33803 13.461 9.03542 11.6263 8.66642 11.3039C8.32202 10.9816 6.84603 13.4858 6.67383 13.9072Z" fill="#025128"></path><path d="M6.89453 19.0143C7.41113 18.4688 8.49353 16.1878 8.12453 16.0887C7.78013 15.9895 6.96833 18.6176 6.89453 19.0143Z" fill="#025128"></path><path d="M9.03516 24.0232C9.35496 23.6761 9.82236 22.0893 9.55176 21.9902C9.25656 21.891 9.03516 23.7505 9.03516 24.0232Z" fill="#016949"></path><path d="M9.1582 24.2713C9.6256 23.701 10.6834 21.42 10.3882 21.3953C10.093 21.3457 9.232 23.8746 9.1582 24.2713Z" fill="#025128"></path><path d="M7.97683 23.1811C7.55863 22.5613 5.49224 21.0985 5.34464 21.4208C5.17244 21.7679 7.60783 23.0572 7.97683 23.1811Z" fill="#016949"></path><path d="M8.46883 25.3127C7.73083 25.1639 5.24624 25.4615 5.34464 25.8086C5.44304 26.1805 8.09983 25.4863 8.46883 25.3127Z" fill="#025128"></path><path d="M10.6333 6.56919C11.2975 6.76753 7.50916 12.1477 6.94336 12.7179C7.26316 11.7758 9.89535 6.34605 10.6333 6.56919Z" fill="#025128"></path><path d="M5.36923 19.1892C5.09863 18.5941 2.88463 14.3296 2.46644 14.5032C2.04824 14.6768 4.23763 18.2966 5.36923 19.1892Z" fill="#025128"></path><path d="M7.04139 11.7508C7.09059 11.7012 7.11519 11.6268 7.18899 11.5277C7.77938 10.3624 9.20618 6.09792 8.73878 5.89958C8.22218 5.67643 7.01679 10.8583 7.04139 11.7508Z" fill="#025128"></path><path d="M6.20509 15.5194C5.93449 14.8252 3.9419 12.7426 3.7205 13.0649C3.5729 13.3128 5.61469 15.1971 6.20509 15.5194Z" fill="#025128"></path><path d="M6.20542 15.5192C6.10702 14.701 4.23743 11.0564 3.94223 11.106C3.64703 11.1308 5.46743 14.8746 6.20542 15.5192Z" fill="#025128"></path></g><defs><clipPath id="clip0"><rect width="131.905" height="30.021" fill="white" transform="translate(0.546875 0.990234)"></rect></clipPath></defs></svg> 