<?xml version="1.0" encoding="UTF-8"?> <svg xmlns="http://www.w3.org/2000/svg" width="129" height="37" viewBox="0 0 129 37" fill="none"><g clip-path="url(#clip0_4800_114670)"><path d="M17.4415 23.1483C17.6138 22.7843 17.5449 22.5793 17.2175 22.3758C12.7251 19.1 5.88949 23.9446 10.8283 28.3329C12.0547 29.1276 13.4911 29.533 14.8068 30.1401C15.4929 30.458 15.9675 30.9841 15.8328 31.8233C15.3629 33.8434 12.7001 33.2156 11.3358 32.6085C10.8079 32.3939 10.2644 31.6294 9.83518 31.9473C9.406 32.2652 9.41539 33.0901 9.18827 33.6781C9.05669 34.0183 9.21177 34.155 9.45925 34.3139C12.18 36.2609 17.808 36.4103 18.505 32.3748C19.1316 28.1088 15.4287 27.7464 12.5184 26.3986C10.0592 24.7838 13.665 22.3393 16.7585 24.8632C16.9904 24.2672 17.1862 23.6934 17.4415 23.1483Z" fill="#1F3780"></path><path d="M84.6779 22.9543C84.6779 21.1313 84.6779 21.1615 82.8954 21.1281C82.2689 21.117 82.1216 21.3109 82.1263 21.9228C82.153 25.7803 82.1389 29.6394 82.1389 33.4985C82.1389 35.4058 82.1389 35.3899 83.9966 35.3931C84.5495 35.3931 84.6967 35.223 84.6889 34.6747C84.6607 32.4829 84.6732 30.2879 84.6889 28.0945C84.6889 27.8497 84.5808 27.5509 84.8878 27.3872C86.5826 26.3462 88.8288 26.7356 88.5766 29.1356C88.5766 30.5883 88.5766 32.0426 88.5766 33.4953C88.5766 35.4964 88.5766 35.4837 90.5863 35.3883C90.9951 35.3677 91.1251 35.2437 91.1157 34.8336C91.0922 33.8307 91.1267 32.8246 91.1048 31.8137C91.017 29.347 91.8253 25.4561 88.6111 24.7838C87.2468 24.4818 85.9859 24.771 84.6826 25.5546L84.6779 22.9543Z" fill="#1F3780"></path><path d="M34.7733 22.9003C34.7733 21.136 34.7734 21.1726 33.0269 21.1265C32.3439 21.1074 32.2296 21.3411 32.2343 21.9737C32.2625 25.8359 32.2484 29.6982 32.2484 33.5589C32.2484 35.4058 32.2484 35.3851 34.081 35.3931C34.6136 35.3931 34.7953 35.2691 34.7859 34.6985C34.753 32.5035 34.7702 30.307 34.7765 28.112C34.7765 27.8847 34.7013 27.6352 34.8955 27.4381C36.2614 26.4447 38.8334 26.5607 38.6705 28.8813C38.6799 30.415 38.6705 31.9504 38.6705 33.4906C38.6705 35.4344 38.6705 35.4344 40.5846 35.3867C40.9307 35.4058 41.2252 35.4042 41.1986 34.9449C41.1814 32.618 41.2471 30.2863 41.1579 27.9626C41.172 24.4897 37.2153 23.9636 34.7702 25.5562L34.7733 22.9003Z" fill="#1F3780"></path><path d="M116.651 29.649C116.29 29.1022 116.337 28.77 116.74 28.2916C117.633 27.2458 118.463 26.1427 119.403 24.9411C118.754 24.9411 118.281 24.9952 117.824 24.93C116.948 24.8044 116.375 25.1334 115.889 25.8836C115.263 26.8373 114.533 27.7035 113.853 28.6095L113.697 28.53V23.0799C113.697 21.0137 113.697 21.0137 111.66 21.1361C111.3 21.1567 111.161 21.2457 111.162 21.6351C111.174 26.0505 111.174 30.4659 111.162 34.8813C111.162 35.2564 111.276 35.3677 111.649 35.3899C115.269 36.0066 112.62 33.0789 114.312 31.3512C114.625 31.0508 114.71 31.0906 114.914 31.4196C115.628 32.5862 116.372 33.7338 117.107 34.8924C117.277 35.1642 117.42 35.4058 117.821 35.3899C118.573 35.3581 119.328 35.3804 120.266 35.3804C119.002 33.3777 117.858 31.4879 116.651 29.649Z" fill="#1F3780"></path><path d="M99.4238 33.5065C99.4238 35.4058 99.4238 35.382 101.278 35.3963C101.842 35.3963 101.966 35.2246 101.96 34.6826C101.928 32.5147 101.944 30.3467 101.96 28.1803C101.706 26.9565 103.935 26.6418 104.801 26.9342C105.669 27.2807 105.858 28.0214 105.855 28.867C105.855 30.4008 105.855 31.933 105.855 33.4667C105.855 35.463 105.855 35.4615 107.834 35.374C108.166 35.4011 108.419 35.3454 108.383 34.9481C108.366 32.5163 108.413 30.0829 108.324 27.6542C108.267 26.0648 107.252 24.9602 105.827 24.7186C102.538 24.1655 102.217 26.5226 101.858 24.9999C101.35 24.841 100.567 24.9999 100.011 24.9252C99.4958 24.8775 99.4159 25.1144 99.4222 25.5705C99.4457 28.2185 99.4144 30.8633 99.4238 33.5065Z" fill="#1F3780"></path><path d="M28.5408 28.174C30.7713 26.7626 29.1125 25.7899 27.4333 24.9856C20.9501 22.3997 17.4086 32.165 23.1243 35.1484C25.1308 36.1211 27.7356 35.6935 29.2174 34.1486C30.6005 32.9661 29.255 32.8771 28.3747 32.0951C27.5336 31.3179 27.6777 33.1791 25.9515 33.2887C24.4572 33.4874 23.2887 32.6736 22.9379 31.17C21.998 27.6431 25.8654 25.1303 27.9769 28.5729C28.1648 28.441 28.3512 28.3107 28.5408 28.174Z" fill="#1F3780"></path><path d="M121.303 33.3952C120.99 33.8291 121.146 34.0882 121.502 34.3711C123.143 35.6903 124.962 36.0273 126.929 35.3247C128.159 34.8861 128.917 33.996 128.992 32.6227C129.16 30.1385 126.464 29.7252 124.746 28.9099C122.565 27.8799 124.83 25.5355 127.362 27.5732C127.554 26.9247 128.771 25.8407 127.883 25.4386C125.806 23.97 121.893 24.5247 121.499 27.3284C121.293 28.7779 121.906 29.935 123.327 30.6773C124.183 31.1064 125.126 31.3623 125.982 31.8026C127.861 33.4349 124.006 34.6381 122.037 32.076C121.817 32.5291 121.571 32.9695 121.303 33.3952V33.3952Z" fill="#1F3780"></path><path d="M75.9188 22.762C75.2468 22.6397 75.0933 22.9401 75.1231 23.5838C75.2014 26.7753 75.0714 29.978 75.1716 33.1711C75.1262 35.3311 76.9135 35.9685 78.7461 35.5441C80.1073 35.2596 79.9178 35.4535 79.7846 34.031C79.7423 33.5844 79.6625 33.3444 79.097 33.4397C78.0663 33.6162 77.6982 33.2808 77.6732 32.227C77.645 31.0906 77.6622 29.9542 77.6606 28.8193C77.6606 27.0916 77.6606 27.0916 79.3257 27.0805C79.6202 27.0598 80.0243 27.1917 80.0462 26.7626C80.7589 23.3581 77.4053 26.2858 77.6465 24.0368C77.8251 22.4585 77.1719 22.8209 75.9188 22.762Z" fill="#1F3780"></path><path d="M68.5976 28.4505C68.5976 30.04 68.5678 31.6294 68.6164 33.2077C68.6681 34.8781 69.3902 35.6585 70.8532 35.657C72.6561 35.657 72.371 35.5664 72.2629 33.9277C72.2519 33.7767 72.2629 33.5796 72.0326 33.5907C71.0443 33.64 71.1367 32.9057 71.1335 32.2842C71.1226 29.1912 71.1335 26.0998 71.1335 23.0068C71.1335 21.1122 71.1335 21.1408 69.2617 21.1313C68.6712 21.1313 68.5913 21.3522 68.5992 21.8688C68.618 24.059 68.5913 26.2524 68.5976 28.4505Z" fill="#1F3780"></path><path d="M96.5761 26.8246C96.5761 24.9077 96.5761 24.9316 94.709 24.9268C94.1404 24.9268 94.0245 25.1191 94.0308 25.6532C94.0542 28.2694 94.0417 30.8855 94.0417 33.5017C94.0417 35.4487 94.0417 35.4297 95.9777 35.3931C96.4633 35.3836 96.5949 35.2342 96.5855 34.7574C96.5526 32.1062 96.5871 29.4678 96.5761 26.8246Z" fill="#1F3780"></path><path d="M97.8546 20.2878C97.7886 19.7051 97.5298 19.1623 97.1203 18.7483C96.7109 18.3343 96.1751 18.0735 95.6006 18.0086C95.0571 17.9561 94.8018 17.7511 94.584 17.2568C88.8292 3.70543 69.8949 1.95072 58.7862 9.48136C58.0829 9.99316 57.6161 10.0551 56.8298 9.61646C52.9436 7.40718 48.5891 9.39712 45.3828 11.9211C42.9267 -5.22867 13.6575 -3.42945 13.4962 14.4642C13.4821 14.9569 13.3145 15.0093 12.89 14.941C2.84014 13.1768 -3.09483 25.3485 1.6779 32.2926C2.08046 32.8998 2.34204 33.4052 2.2183 34.1999C1.8267 36.7573 5.50767 38.0384 6.91741 35.9849C8.50257 34.0776 6.4146 30.8256 4.11674 31.7809C-0.175117 32.9491 -0.939507 13.0496 14.8902 16.6894C12.6879 -2.35024 45.0805 -4.46734 43.9997 15.0507C47.1825 11.9767 51.6436 8.59288 56.1563 10.8085C56.6011 11.031 56.7202 11.1709 56.3129 11.6032C54.3487 13.6583 52.0837 17.2933 54.2359 19.9604C56.3897 22.3604 61.5258 21.1493 61.413 17.3124C61.6934 13.0369 58.1534 11.2647 59.3376 10.772C69.8949 3.70066 87.5322 4.91339 93.2761 17.6621C93.5158 18.1755 93.569 18.5347 93.1367 19.0369C92.3159 19.9906 92.3911 21.3384 93.1649 22.3238C94.7783 24.4123 98.2117 22.9485 97.8546 20.2878ZM6.08097 34.316C6.07 36.0039 3.57477 36.0166 3.57477 34.316C3.58574 32.6789 6.0653 32.6979 6.08097 34.316ZM55.3402 15.3638C55.7766 14.4607 56.3413 13.6274 57.0162 12.8907C57.8683 11.937 57.8777 11.9259 58.6123 12.9511C64.0429 20.8536 52.2121 22.3524 55.3402 15.3638ZM93.9606 20.6629C93.9606 18.9956 96.4809 18.9495 96.4668 20.6629C96.4574 22.3048 93.9951 22.265 93.9606 20.6629Z" fill="#1F3780"></path><path d="M43.4323 30.0574C43.213 37.4228 53.927 37.5102 53.8533 30.2323C54.2199 22.9655 43.3023 22.7604 43.4323 30.0574ZM48.0656 33.2363C45.3151 32.9184 45.29 26.9215 48.4885 27.001C52.4045 26.6513 52.0035 34.1375 48.0656 33.2347V33.2363Z" fill="#1F3780"></path><path d="M55.8552 30.0765C55.6061 37.4085 66.2919 37.5102 66.2418 30.2927C66.6584 22.9432 55.6844 22.7414 55.8552 30.0765ZM58.6339 31.507C57.2539 26.4749 62.8631 25.5038 63.557 29.2071C64.3198 33.4922 59.7554 34.6842 58.6339 31.5054V31.507Z" fill="#1F3780"></path></g><defs><clipPath id="clip0_4800_114670"><rect width="129" height="37" fill="white"></rect></clipPath></defs></svg> 