<?xml version="1.0" encoding="UTF-8"?> <svg xmlns="http://www.w3.org/2000/svg" width="33" height="32" viewBox="0 0 33 32" fill="none"><g clip-path="url(#clip0_12186_35600)"><path d="M29.4742 4.7998H24.3338L24.1549 5.78641H29.4823C30.6372 5.78641 31.5401 6.75658 31.5401 7.92407V21.0788H2.27582V7.92407C2.27582 6.75658 3.17864 5.78641 4.32546 5.78641H27.6998L24.5194 4.7998H4.32546C2.65809 4.7998 1.2998 6.09884 1.2998 7.7843V23.2494C1.2998 24.9348 2.65809 26.3079 4.32546 26.3079H12.5159V30.2132H11.7676C11.5073 30.2132 11.2958 30.4105 11.2958 30.6654C11.2958 30.9203 11.5073 31.1998 11.7676 31.1998H22.1215C22.3818 31.1998 22.5932 30.9367 22.5932 30.6736C22.5932 30.4105 22.3818 30.205 22.1215 30.205H21.5277V26.2997H29.4742C31.1415 26.2997 32.4998 24.9266 32.4998 23.2412V7.77607C32.4998 6.09062 31.1415 4.7998 29.4742 4.7998ZM13.4919 30.2543V26.3161H20.5436L20.5599 30.2214L13.4919 30.2543ZM31.5319 23.1754C31.5319 24.3429 30.621 25.3213 29.4742 25.3213H21.056H12.9795H4.31732C3.16237 25.3295 2.25955 24.3264 2.25955 23.1589V22.0655H31.5238V23.1754H31.5319Z" fill="#0079FF"></path><line x1="12.2002" y1="5.6001" x2="12.2002" y2="21.6001" stroke="#0079FF"></line><path d="M22.0996 5.6001L22.0996 21.6001" stroke="#0079FF"></path><path d="M31.7002 13.6001L2.10019 13.6001" stroke="#0079FF"></path><path d="M27.2985 10.912C28.1358 10.912 28.8021 10.2602 28.8021 9.456C28.8021 8.65184 28.1234 8 27.2985 8C26.4613 8 25.795 8.65184 25.795 9.456C25.7819 10.2596 26.4615 10.912 27.2985 10.912ZM28.0277 11.36H26.5723C25.4275 11.36 24.5 12.1958 24.5 13.2262C24.5 13.4334 24.6852 13.6 24.9142 13.6H29.6858C29.9148 13.6 30.1 13.4334 30.1 13.2262C30.1 12.1958 29.1725 11.36 28.0277 11.36Z" fill="#0079FF"></path><path d="M27.2985 18.912C28.1358 18.912 28.8021 18.2602 28.8021 17.456C28.8021 16.6518 28.1234 16 27.2985 16C26.4613 16 25.795 16.6518 25.795 17.456C25.7819 18.2596 26.4615 18.912 27.2985 18.912ZM28.0277 19.36H26.5723C25.4275 19.36 24.5 20.1958 24.5 21.2262C24.5 21.4334 24.6852 21.6 24.9142 21.6H29.6858C29.9148 21.6 30.1 21.4334 30.1 21.2262C30.1 20.1958 29.1725 19.36 28.0277 19.36Z" fill="#0079FF"></path><path d="M16.8982 18.912C17.7354 18.912 18.4017 18.2602 18.4017 17.456C18.4017 16.6518 17.723 16 16.8982 16C16.0609 16 15.3946 16.6518 15.3946 17.456C15.3815 18.2596 16.0611 18.912 16.8982 18.912ZM17.6273 19.36H16.1719C15.0271 19.36 14.0996 20.1958 14.0996 21.2262C14.0996 21.4334 14.2848 21.6 14.5138 21.6H19.2854C19.5144 21.6 19.6996 21.4334 19.6996 21.2262C19.6996 20.1958 18.7721 19.36 17.6273 19.36Z" fill="#0079FF"></path><path d="M16.8982 10.912C17.7354 10.912 18.4017 10.2602 18.4017 9.456C18.4017 8.65184 17.723 8 16.8982 8C16.0609 8 15.3946 8.65184 15.3946 9.456C15.3815 10.2596 16.0611 10.912 16.8982 10.912ZM17.6273 11.36H16.1719C15.0271 11.36 14.0996 12.1958 14.0996 13.2262C14.0996 13.4334 14.2848 13.6 14.5138 13.6H19.2854C19.5144 13.6 19.6996 13.4334 19.6996 13.2262C19.6996 12.1958 18.7721 11.36 17.6273 11.36Z" fill="#0079FF"></path><path d="M7.29854 10.912C8.13577 10.912 8.80208 10.2602 8.80208 9.456C8.80208 8.65184 8.12338 8 7.29854 8C6.46131 8 5.795 8.65184 5.795 9.456C5.78188 10.2596 6.46146 10.912 7.29854 10.912ZM8.02771 11.36H6.57229C5.4275 11.36 4.5 12.1958 4.5 13.2262C4.5 13.4334 4.68521 13.6 4.91417 13.6H9.68583C9.91479 13.6 10.1 13.4334 10.1 13.2262C10.1 12.1958 9.1725 11.36 8.02771 11.36Z" fill="#0079FF"></path><path d="M10.0998 19.6753C10.0998 19.9177 9.92858 20.1143 9.71813 20.1143H9.17539V20.7999L8.20413 20.1143H5.68102C5.47057 20.1143 5.2998 19.9177 5.2998 19.6753V18.8387C5.2998 18.5963 5.47057 18.3999 5.68102 18.3999H9.71813C9.92858 18.3999 10.0998 18.5963 10.0998 18.8387V19.6753Z" stroke="#0079FF" stroke-width="0.5" stroke-miterlimit="10" stroke-linecap="round" stroke-linejoin="round"></path><path d="M10.0998 15.6753C10.0998 15.9177 9.92858 16.1143 9.71813 16.1143H9.17539V16.7999L8.20413 16.1143H5.68102C5.47057 16.1143 5.2998 15.9177 5.2998 15.6753V14.8387C5.2998 14.5963 5.47057 14.3999 5.68102 14.3999H9.71813C9.92858 14.3999 10.0998 14.5963 10.0998 14.8387V15.6753Z" stroke="#0079FF" stroke-width="0.5" stroke-miterlimit="10" stroke-linecap="round" stroke-linejoin="round"></path><path d="M3.7 17.65C3.7 17.8116 3.87122 17.9428 4.08167 17.9428H4.62442V18.3998L5.59568 17.9428H8.11879C8.32924 17.9428 8.5 17.8116 8.5 17.65V17.0924C8.5 16.9308 8.32924 16.7998 8.11879 16.7998H4.08167C3.87122 16.7998 3.7 16.9308 3.7 17.0924V17.65Z" stroke="#0079FF" stroke-width="0.5" stroke-miterlimit="10" stroke-linecap="round" stroke-linejoin="round"></path></g><defs><clipPath id="clip0_12186_35600"><rect width="32" height="32" fill="white" transform="translate(0.5)"></rect></clipPath></defs></svg> 