<?xml version="1.0" encoding="UTF-8"?> <svg xmlns="http://www.w3.org/2000/svg" width="40" height="40" viewBox="0 0 40 40" fill="none"><path d="M21.3746 21.5646C21.3746 21.5646 20.9147 20.6848 20.065 20.6848C19.2152 20.6848 18.7754 21.5246 18.7454 21.5546L13.1671 29.7525C12.8672 30.0725 12.7073 30.4824 12.7073 30.9223C12.7073 31.3921 12.8872 31.822 13.2871 32.2019C13.2971 32.2119 14.7466 33.3916 15.3864 35.7311C14.9466 36.1809 14.6667 36.8008 14.6667 37.4806C14.6667 38.8703 15.8163 40 17.2259 40H22.7641C24.1737 40 25.3233 38.8703 25.3233 37.4806C25.3233 36.7908 25.0334 36.1509 24.5736 35.7011C25.2933 33.3117 26.7029 32.2919 26.7129 32.2819C26.7529 32.2619 26.7829 32.2319 26.8129 32.2019C27.1428 31.872 27.3327 31.4421 27.3327 30.9722C27.3327 30.5324 27.1728 30.1225 26.8728 29.8025L21.3846 21.5646H21.3746ZM19.7651 30.3824C19.885 30.3424 19.985 30.2724 20.055 30.1824C20.135 30.2724 20.2349 30.3424 20.3549 30.3824C20.7048 30.5024 20.9347 30.8123 20.9347 31.1522C20.9347 31.6021 20.5448 31.972 20.065 31.972C19.5851 31.972 19.1952 31.6021 19.1952 31.1522C19.1952 30.8123 19.4252 30.5024 19.7551 30.3824H19.7651ZM22.7641 38.5903H17.2259C16.5861 38.5903 16.0662 38.0905 16.0662 37.4806C16.0662 36.9108 16.5161 36.4609 17.0959 36.3909H22.9041C23.4839 36.4609 23.9338 36.9108 23.9338 37.4806C23.9338 38.0905 23.4139 38.5903 22.7741 38.5903H22.7641ZM25.8632 31.1522C25.5233 31.4021 24.1237 32.5718 23.324 34.9812H16.6261C15.8063 32.4119 14.2068 31.1522 14.1968 31.1422C14.1168 31.0722 14.1068 30.9822 14.1068 30.9323C14.1068 30.8823 14.1268 30.7923 14.1968 30.7223C14.2268 30.6923 14.2568 30.6523 14.2868 30.6123L18.8354 23.924V29.2927C18.2056 29.7026 17.8057 30.4024 17.8057 31.1622C17.8057 32.3919 18.8254 33.4016 20.075 33.4016C21.3246 33.4016 22.3443 32.4019 22.3443 31.1622C22.3443 30.3824 21.9344 29.6826 21.2846 29.2827V23.964L25.7532 30.6623C25.7532 30.6623 25.8132 30.7423 25.8432 30.7723C25.9231 30.8423 25.9331 30.9323 25.9331 30.9822C25.9331 31.0322 25.9231 31.1022 25.8632 31.1722V31.1522Z" fill="#0079FF"></path><path d="M34.8703 5.41865C35.4902 5.41865 36 4.90877 36 4.27893V1.13972C36 0.509873 35.4902 0 34.8703 0H31.7313C31.1115 0 30.6017 0.509873 30.6017 1.13972V1.73957H9.39831V1.13972C9.39831 0.509873 8.88847 0 8.26867 0H5.12965C4.50984 0 4 0.509873 4 1.13972V4.27893C4 4.90877 4.50984 5.41865 5.12965 5.41865H5.80943V15.3662H5.12965C4.50984 15.3662 4 15.876 4 16.5059V19.6451C4 20.2749 4.50984 20.7848 5.12965 20.7848H8.26867C8.88847 20.7848 9.39831 20.2749 9.39831 19.6451V18.9453H14.7766C12.4774 20.175 10.6279 22.1945 9.63824 24.6738C9.63824 24.6738 9.62824 24.6738 9.61824 24.6738C8.55857 24.6738 7.69884 25.5436 7.69884 26.6133C7.69884 27.6831 8.55857 28.5529 9.61824 28.5529C10.6779 28.5529 11.5376 27.6831 11.5376 26.6133C11.5376 26.0535 11.2977 25.5636 10.9278 25.2037C12.1774 22.0545 15.0066 19.7651 18.3455 19.1752C18.6754 19.7451 19.2852 20.125 19.995 20.125C20.7048 20.125 21.3246 19.7251 21.6545 19.1452C25.0534 19.7051 27.9325 22.0045 29.1921 25.2137C28.8322 25.5636 28.6023 26.0535 28.6023 26.6033C28.6023 27.6731 29.462 28.5429 30.5217 28.5429C31.5814 28.5429 32.4411 27.6731 32.4411 26.6033C32.4411 25.5336 31.5814 24.6638 30.5217 24.6638C30.5017 24.6638 30.4917 24.6638 30.4717 24.6638C29.482 22.1745 27.6526 20.155 25.3533 18.9253H30.5917V19.6251C30.5917 20.2549 31.1015 20.7648 31.7213 20.7648H34.8604C35.4802 20.7648 35.99 20.2549 35.99 19.6251V16.4859C35.99 15.856 35.4802 15.3462 34.8604 15.3462H34.2705V5.41865H34.8604H34.8703ZM9.62824 27.1332C9.33833 27.1332 9.1084 26.8933 9.1084 26.6033C9.1084 26.3134 9.33833 26.0735 9.62824 26.0735C9.91815 26.0735 10.1481 26.3134 10.1481 26.6033C10.1481 26.8933 9.91815 27.1332 9.62824 27.1332ZM31.0515 26.6033C31.0515 26.8933 30.8216 27.1332 30.5317 27.1332C30.2418 27.1332 30.0119 26.8933 30.0119 26.6033C30.0119 26.3134 30.2418 26.0735 30.5317 26.0735C30.8216 26.0735 31.0515 26.3134 31.0515 26.6033ZM32.0012 1.41965H34.6004V4.009H32.0012V1.41965ZM5.39956 1.41965H7.99875V4.009H5.39956V1.41965ZM7.99875 19.3552H5.39956V16.7658H7.99875V19.3552ZM34.6004 19.3552H32.0012V16.7658H34.6004V19.3552ZM32.891 15.3562H31.7313C31.1115 15.3562 30.6017 15.866 30.6017 16.4959V17.5156H21.7944C21.5245 16.7758 20.8247 16.2459 19.995 16.2459C19.1653 16.2459 18.4655 16.7758 18.1956 17.5156H9.39831V16.4959C9.39831 15.866 8.88847 15.3562 8.26867 15.3562H7.209V5.41865H8.26867C8.88847 5.41865 9.39831 4.90877 9.39831 4.27893V3.14921H30.6017V4.27893C30.6017 4.90877 31.1115 5.41865 31.7313 5.41865H32.891V15.3662V15.3562Z" fill="#0079FF"></path></svg> 