<?xml version="1.0" encoding="UTF-8"?> <svg xmlns="http://www.w3.org/2000/svg" width="40" height="40" viewBox="0 0 40 40" fill="none"><g clip-path="url(#clip0_2_711)"><path d="M36.5662 27.902V29.2876C36.5662 29.9803 36.285 30.653 35.7931 31.145C35.3212 31.6169 34.6987 31.8779 34.026 31.908H33.9658L32.9316 33.2132H33.9457C34.9899 33.2132 35.9738 32.8016 36.7168 32.0687C37.4497 31.3357 37.8613 30.3317 37.8613 29.2976V26.2354L36.6164 27.8719L36.5662 27.9121V27.902Z" fill="#0079FF"></path><path d="M1.67572 29.2873C1.67572 30.3315 2.08737 31.3154 2.8203 32.0584C3.56327 32.8013 4.5472 33.2029 5.59137 33.2029H26.9869L25.9829 31.9078H5.59137C4.88856 31.9078 4.23596 31.6367 3.73395 31.1347C3.24198 30.6427 2.96086 29.9801 2.96086 29.2772V11.3958H36.5652V15.4018L37.8603 17.2291V10.1006H1.67572V29.2873Z" fill="#0079FF"></path><path d="M36.7158 6.14458C35.9828 5.41165 34.9788 5 33.9447 5H5.59137C4.55724 5 3.55323 5.42169 2.8203 6.14458C2.07733 6.88755 1.67572 7.87148 1.67572 8.91565V9.56826H37.8704V8.91565C37.8704 7.88152 37.4487 6.87751 36.7258 6.14458H36.7158ZM3.05122 8.27308C3.1717 7.82128 3.40262 7.39959 3.74399 7.06827C4.23596 6.5763 4.90864 6.29518 5.60141 6.29518H33.9547C34.6475 6.29518 35.3202 6.5763 35.8121 7.06827C36.1435 7.39959 36.3844 7.82128 36.4949 8.27308H3.05122Z" fill="#0079FF"></path><path d="M5.68215 8.02238C5.28054 8.02238 4.94922 7.7011 4.94922 7.30953C4.94922 6.91796 5.28054 6.59668 5.68215 6.59668C6.08375 6.59668 6.41508 6.91796 6.41508 7.30953C6.41508 7.7011 6.08375 8.02238 5.68215 8.02238Z" fill="#0079FF"></path><path d="M8.25246 8.02238C7.85086 8.02238 7.51953 7.7011 7.51953 7.30953C7.51953 6.91796 7.85086 6.59668 8.25246 6.59668C8.65407 6.59668 8.98539 6.91796 8.98539 7.30953C8.98539 7.7011 8.65407 8.02238 8.25246 8.02238Z" fill="#0079FF"></path><path d="M10.8325 8.02238C10.4309 8.02238 10.0996 7.7011 10.0996 7.30953C10.0996 6.91796 10.4309 6.59668 10.8325 6.59668C11.2341 6.59668 11.5655 6.91796 11.5655 7.30953C11.5655 7.7011 11.2341 8.02238 10.8325 8.02238Z" fill="#0079FF"></path><path d="M39.5482 21.1248C39.4578 21.0044 39.3674 20.8638 39.257 20.7132L38.8956 20.1811C38.3333 19.3377 37.761 18.4742 37.1787 17.6409C36.7972 17.0887 36.5261 16.7473 35.9136 16.7473C35.2409 16.7473 33.9156 16.7473 32.3795 16.7473C29.2871 16.7473 25.3012 16.7473 23.9558 16.7373C23.5341 16.7373 23.243 16.8779 23.0221 17.2092C22.1586 18.4742 21.2048 19.8497 20.1105 21.406C19.8795 21.7373 19.8896 22.1791 20.1305 22.5003C21.8876 24.7895 23.6446 27.0786 25.4016 29.3678L29.3574 34.5184C29.5181 34.7292 29.7389 34.8497 29.9799 34.8497C30.2209 34.8497 30.4317 34.7393 30.5924 34.5385C30.6526 34.4682 30.7028 34.3979 30.753 34.3276L30.8032 34.2674L32.8614 31.5766C35.1707 28.5746 37.4598 25.5827 39.769 22.5907C40.2008 22.0385 39.9698 21.7072 39.5482 21.1248ZM29.9799 32.5405L29.8092 31.8879C29.8092 31.8879 28.263 25.8337 27.51 22.922C27.4297 22.6108 27.4197 22.5606 27.4197 22.5606L27.3695 22.3497H27.5803H32.3494H32.5803C32.5803 22.3497 32.5401 22.5104 32.4498 22.8517C31.7068 25.7232 30.1506 31.8176 30.1305 31.8778L29.9598 32.5304L29.9799 32.5405ZM28.5843 31.7071C28.5843 31.7071 23.8956 25.6128 21.6165 22.6309L21.4056 22.3598H23.1125C24.0763 22.3598 26.3855 22.3598 26.3855 22.3598H26.5161L26.5462 22.4903L26.6365 22.8317C27.2892 25.422 28.8655 31.5063 28.8855 31.5666L29.0964 32.3798L28.5843 31.7071ZM21.5562 21.2353L23.5542 18.3638L23.6948 18.163L23.8353 18.3638L25.8333 21.2353L26.0241 21.5064H21.3755L21.5663 21.2353H21.5562ZM24.8394 17.8618H29.1667L28.9759 18.1329L26.9779 21.0144L26.8373 21.2152L26.6968 21.0144L24.6988 18.1329L24.508 17.8618H24.8394ZM35.4417 17.8618L35.251 18.1329C34.6084 19.0666 33.253 20.9943 33.253 20.9943L33.1124 21.1951L32.9719 20.9943C32.9719 20.9943 31.6265 19.0767 30.9739 18.1329L30.7831 17.8618H35.4317H35.4417ZM36.265 18.153L36.4056 18.3538C36.4056 18.3538 37.751 20.3116 38.3935 21.2252L38.5843 21.4963H33.9458L34.1365 21.2252C34.7791 20.3016 36.1446 18.3437 36.1446 18.3437L36.2851 18.1429L36.265 18.153ZM29.8293 18.3538L29.9699 18.153L30.1104 18.3538L30.5823 19.0265L31.6265 20.5425L32.0984 21.2353L32.2891 21.5064H27.6606L27.8514 21.2353L28.3434 20.5224L29.3574 19.0566L29.8393 18.3638L29.8293 18.3538ZM31.0843 31.5264L31.5361 29.7694C32.1586 27.3397 32.7811 24.91 33.4036 22.4803L33.4337 22.3497H33.5642C34.3976 22.3497 35.2309 22.3497 36.0843 22.3497H37.1084H38.1927H38.5441L38.3333 22.6208L31.3855 31.667L30.8735 32.3296L31.0843 31.5164V31.5264Z" fill="#0079FF"></path></g><defs><clipPath id="clip0_2_711"><rect width="40" height="40" fill="white"></rect></clipPath></defs></svg> 