<?xml version="1.0" encoding="UTF-8"?> <svg xmlns="http://www.w3.org/2000/svg" width="40" height="40" viewBox="0 0 40 40" fill="none"><path d="M25.628 10.7847C26.691 10.7847 27.5528 9.91975 27.5528 8.85278C27.5528 7.78582 26.691 6.92087 25.628 6.92087C24.565 6.92087 23.7032 7.78582 23.7032 8.85278C23.7032 9.91975 24.565 10.7847 25.628 10.7847Z" fill="#0079FF"></path><path d="M30.1344 33.4892C31.1974 33.4892 32.0591 32.6242 32.0591 31.5573C32.0591 30.4903 31.1974 29.6253 30.1344 29.6253C29.0713 29.6253 28.2096 30.4903 28.2096 31.5573C28.2096 32.6242 29.0713 33.4892 30.1344 33.4892Z" fill="#0079FF"></path><path d="M32.8445 5.47241C33.6414 5.47241 34.2875 4.82392 34.2875 4.02397C34.2875 3.22402 33.6414 2.57553 32.8445 2.57553C32.0475 2.57553 31.4014 3.22402 31.4014 4.02397C31.4014 4.82392 32.0475 5.47241 32.8445 5.47241Z" fill="#0079FF"></path><path d="M33.1856 15.3981C33.0956 15.4894 33.0244 15.5907 32.9641 15.6969L24.4895 15.6979C24.3006 15.6969 24.1236 15.7713 23.9901 15.9054C23.8565 16.0394 23.7833 16.2171 23.7833 16.4067C23.7823 16.5953 23.8565 16.774 23.9901 16.908C24.1236 17.0421 24.2996 17.1155 24.4895 17.1155H32.9473C33.0106 17.2347 33.0867 17.3478 33.1856 17.4471C33.7494 18.013 34.6633 18.014 35.2261 17.4471C35.7899 16.8822 35.7899 15.9649 35.2261 15.399C34.6633 14.8332 33.7494 14.8332 33.1856 15.3981Z" fill="#0079FF"></path><path d="M38.5772 19.0117C38.0134 18.4458 37.0995 18.4458 36.5367 19.0117C36.4467 19.1021 36.3755 19.2033 36.3141 19.3095L24.8456 19.3105C24.6567 19.3095 24.4787 19.384 24.3461 19.518C24.2126 19.652 24.1394 19.8298 24.1394 20.0194C24.1384 20.209 24.2126 20.3877 24.3461 20.5217C24.4797 20.6557 24.6557 20.7292 24.8456 20.7292H36.2983C36.3616 20.8473 36.4378 20.9605 36.5367 21.0608C37.1005 21.6267 38.0134 21.6267 38.5772 21.0608C39.141 20.4949 39.141 19.5776 38.5772 19.0117Z" fill="#0079FF"></path><path d="M20.8754 34.5336C19.1564 34.6259 17.7331 35.3873 16.7628 36.7365C16.3118 37.3639 15.5007 37.9953 14.1921 37.4354C12.2555 36.6074 10.6245 35.6355 9.20414 34.4631C8.40595 33.8039 8.52958 32.9342 8.77389 32.3217C9.66111 30.0919 9.29811 27.9724 7.72347 26.1904C6.84912 25.1996 5.71463 24.602 4.35166 24.4143C3.19245 24.2545 2.73944 23.8167 2.55646 22.678C2.23698 20.6805 2.28545 18.6166 2.70087 16.5437C2.86605 15.7197 3.40213 15.2422 4.29331 15.1241C6.0895 14.8848 7.63446 13.899 8.53057 12.4198C9.42669 10.9425 9.5889 9.11387 8.97566 7.40532C8.65322 6.50489 8.84906 5.81491 9.59187 5.23316C11.0528 4.08949 12.6937 3.16821 14.4691 2.49313C15.2633 2.19332 15.9497 2.37102 16.5106 3.02426C17.7153 4.42405 19.2998 5.19642 20.9714 5.1994H20.9724C21.3433 5.1994 21.6459 4.8976 21.6469 4.52432C21.6469 4.15104 21.3462 3.84726 20.9743 3.84627C19.6984 3.84428 18.4759 3.2377 17.5303 2.13971C16.6016 1.05958 15.3108 0.727997 13.9923 1.22736C12.0903 1.95009 10.3297 2.93888 8.76202 4.16594C7.56522 5.1041 7.19035 6.41653 7.70765 7.86199C8.18142 9.18634 8.06174 10.5911 7.37927 11.7179C6.69581 12.8457 5.50593 13.5992 4.11626 13.7848C2.65537 13.9784 1.65837 14.8868 1.37944 16.2776C0.931384 18.5104 0.879951 20.7361 1.22613 22.8944C1.50506 24.6298 2.41205 25.5123 4.16769 25.7546C5.20228 25.8975 6.05883 26.3462 6.7146 27.0878C7.96283 28.5005 8.22692 30.0483 7.52269 31.8203C6.95001 33.2579 7.25069 34.6011 8.34759 35.5065C9.86881 36.7623 11.6076 37.8007 13.664 38.6783C14.1694 38.8948 14.6689 39 15.1506 39C16.202 39 17.1584 38.4947 17.8538 37.5277C18.5877 36.5082 19.6282 35.9552 20.9466 35.8847C21.3175 35.8639 21.6034 35.5462 21.5836 35.1729C21.5638 34.7996 21.2384 34.5187 20.8754 34.5336Z" fill="#0079FF"></path><path d="M25.0128 25.5093C24.9258 25.5957 24.8575 25.696 24.7982 25.7982C24.7982 25.7982 20.9269 25.7893 20.9229 25.7893C17.7232 25.7456 15.2188 23.1922 15.2218 19.9767C15.2238 16.8296 17.8063 14.2524 20.9783 14.2335C20.9991 14.2335 29.1175 14.2206 29.1175 14.2206C29.1789 14.3328 29.2511 14.442 29.346 14.5373C29.8861 15.0804 30.7614 15.0804 31.3025 14.5373C31.8425 13.9963 31.8425 13.1177 31.3025 12.5746C30.7624 12.0316 29.8871 12.0316 29.346 12.5746C29.259 12.661 29.1917 12.7593 29.1334 12.8606L20.8784 12.8745C20.8468 12.8745 20.8359 12.8864 20.8121 12.8903C16.9755 12.9976 13.8756 16.1406 13.8727 19.9767C13.8707 23.8326 16.7945 26.9072 20.5827 27.1226C20.5817 27.1256 20.5807 27.1295 20.5797 27.1335L20.7845 27.1355C20.825 27.1365 20.8636 27.1415 20.9031 27.1424C20.9061 27.1424 20.9091 27.1424 20.912 27.1424C20.9229 27.1424 24.7814 27.1742 24.7814 27.1742C24.8427 27.2884 24.9149 27.3986 25.0118 27.4949C25.5588 28.0439 26.443 28.0439 26.989 27.4949C27.535 26.9479 27.535 26.0593 26.989 25.5113C26.444 24.9604 25.5598 24.9604 25.0128 25.5093Z" fill="#0079FF"></path><path d="M34.4951 26.9135C34.2934 26.9135 34.1015 26.9562 33.9264 27.0317L28.9889 23.141C28.8702 23.0477 28.7238 22.9961 28.5734 22.9961H20.6746C20.3027 22.9961 20 23.2989 20 23.6722C20 24.0454 20.3027 24.3482 20.6746 24.3482H28.34L33.0797 28.083C33.0619 28.1734 33.0521 28.2667 33.0521 28.362C33.0521 29.1631 33.6979 29.8104 34.4951 29.8104C35.2923 29.8104 35.9382 29.1621 35.9382 28.362C35.9382 27.5628 35.2923 26.9135 34.4951 26.9135Z" fill="#0079FF"></path></svg> 