<?xml version="1.0" encoding="UTF-8"?> <svg xmlns="http://www.w3.org/2000/svg" width="33" height="32" viewBox="0 0 33 32" fill="none"><g clip-path="url(#clip0_12186_42065)"><g clip-path="url(#clip1_12186_42065)"><path d="M23.8323 18.3678C23.2163 18.3678 22.7363 17.8798 22.7363 17.2638C22.7363 16.6478 23.2163 16.1758 23.8163 16.1758C24.4243 16.1758 24.9123 16.6638 24.9123 17.2798C24.9123 17.8958 24.4243 18.3758 23.8243 18.3758L23.8323 18.3678ZM23.8243 16.8718C23.6003 16.8718 23.4403 17.0478 23.4403 17.2718C23.4403 17.5118 23.6163 17.6798 23.8483 17.6718C24.0723 17.6638 24.2323 17.4878 24.2243 17.2638C24.2163 17.0318 24.0403 16.8638 23.8243 16.8718Z" fill="#0079FF"></path><path d="M23.7997 22.024C23.1917 22.008 22.7197 21.512 22.7357 20.888C22.7517 20.296 23.2557 19.808 23.8477 19.816C24.4397 19.832 24.9197 20.336 24.9197 20.928C24.9197 21.544 24.4157 22.032 23.7997 22.016V22.024ZM23.8397 21.344C24.0557 21.344 24.2237 21.152 24.2237 20.928C24.2237 20.704 24.0477 20.528 23.8317 20.528C23.6157 20.528 23.4317 20.712 23.4317 20.944C23.4317 21.168 23.6157 21.344 23.8317 21.344H23.8397Z" fill="#0079FF"></path><path d="M26.7285 19.1118C26.7285 19.7118 26.2405 20.2078 25.6485 20.2078C25.0565 20.2078 24.5605 19.7038 24.5605 19.0958C24.5605 18.4798 25.0325 18.0158 25.6405 18.0078C26.2645 18.0078 26.7285 18.4798 26.7285 19.1118ZM26.0485 19.1118C26.0485 18.8958 25.8645 18.7038 25.6645 18.6958C25.4485 18.6878 25.2485 18.8878 25.2485 19.1118C25.2485 19.3278 25.4405 19.5118 25.6485 19.5198C25.8565 19.5198 26.0485 19.3358 26.0485 19.1198V19.1118Z" fill="#0079FF"></path><path d="M23.0879 19.1039C23.0879 19.7119 22.6079 20.2079 22.0159 20.2079C21.4159 20.2159 20.9199 19.7199 20.9199 19.1039C20.9199 18.4879 21.3839 18.0159 21.9919 18.0079C22.6079 17.9999 23.0799 18.4799 23.0879 19.1039ZM22.3999 19.1039C22.3999 18.8879 22.2159 18.6959 21.9999 18.6959C21.7839 18.6959 21.5839 18.8959 21.5919 19.1199C21.5999 19.3359 21.7839 19.5199 21.9999 19.5199C22.2079 19.5199 22.3999 19.3279 22.3919 19.1119L22.3999 19.1039Z" fill="#0079FF"></path><path d="M16.2136 14.6961C16.1016 14.6961 15.9416 14.6961 15.7896 14.6561C15.5336 14.6001 15.4056 14.4241 15.4296 14.1601C15.4536 13.8961 15.6056 13.7521 15.8696 13.7361C16.1176 13.7201 16.3576 13.7201 16.6056 13.7361C16.8936 13.7361 17.0856 13.9281 17.0856 14.1841C17.0856 14.4641 16.9336 14.6241 16.6696 14.6641C16.5256 14.6961 16.3816 14.6881 16.2056 14.6961H16.2136Z" fill="#0079FF"></path><path d="M11.5886 18.5679H9.97199C9.55584 18.5679 9.21172 18.2319 9.21172 17.8079V16.1919H8.14735V17.8079C8.14735 18.2239 7.81123 18.5679 7.38708 18.5679H5.77051V19.6319H7.38708C7.80322 19.6319 8.14735 19.9679 8.14735 20.3919V22.0079H9.21172V20.3919C9.21172 19.9759 9.54784 19.6319 9.97199 19.6319H11.5886V18.5679Z" fill="#0079FF"></path><path d="M27.714 11.6798C27.602 11.5198 27.474 11.3758 27.3299 11.2398L27.0018 10.9358C26.4976 10.4718 25.8494 10.2158 25.1611 10.2158H22.7443C21.808 10.2158 20.9196 10.7118 20.4315 11.5118C20.1434 11.9758 19.6552 12.2638 19.111 12.2718L18.5268 12.2878V12.0638C18.5268 11.3598 17.9506 10.7838 17.2464 10.7838H15.2376C14.5334 10.7838 13.9572 11.3598 13.9572 12.0638V12.2878H13.405C12.8608 12.2638 12.3646 11.9758 12.0845 11.5198C11.5964 10.7198 10.708 10.2238 9.77171 10.2238H7.35486C6.67462 10.2238 6.01839 10.4798 5.51421 10.9438L5.1861 11.2478C5.03404 11.3838 4.914 11.5278 4.80196 11.6878C3.88964 12.9918 0.880576 18.0238 0.256356 28.0078C0.184331 29.1918 0.728523 30.3358 1.68086 30.9998C2.073 31.2718 2.48914 31.5038 2.90529 31.6958C4.23376 32.2958 5.79431 31.9918 6.78666 30.9278L9.59565 27.9438C9.26754 27.7358 8.99544 27.4718 8.77936 27.1678L5.96237 30.1518C5.29013 30.8638 4.24977 31.0638 3.36145 30.6638C3.00132 30.4958 2.6492 30.2958 2.30508 30.0638C1.67286 29.6318 1.31273 28.8638 1.36875 28.0718C1.98497 18.1358 5.09806 13.2158 5.71428 12.3278C5.7783 12.2398 5.85033 12.1518 5.93836 12.0718L6.26648 11.7678C6.56258 11.4958 6.94672 11.3438 7.34686 11.3438H9.76371C10.3159 11.3438 10.8361 11.6318 11.1242 12.1038C11.1562 12.1518 11.2042 12.1918 11.2362 12.2478H11.2202C11.2362 12.2478 12.5967 14.1038 12.8848 14.5438C13.533 15.5198 14.4454 16.0158 15.6138 16.0078C16.19 16.0078 16.7662 16.0238 17.3424 15.9678C18.3027 15.8878 19.023 15.3758 19.5592 14.6078C19.8793 14.1438 21.1837 12.4238 21.2798 12.2478C21.2798 12.2478 21.2718 12.2478 21.2638 12.2478C21.2958 12.1998 21.3438 12.1598 21.3758 12.1038C21.6639 11.6318 22.1841 11.3438 22.7283 11.3438H25.1451C25.5453 11.3438 25.9294 11.4958 26.2255 11.7678L26.5536 12.0718C26.6417 12.1518 26.7137 12.2318 26.7777 12.3278C27.3939 13.2158 30.499 18.1358 31.1232 28.0718C31.1713 28.8638 30.8111 29.6318 30.1869 30.0638C29.8508 30.2958 29.4987 30.4958 29.1305 30.6638C28.2422 31.0638 27.2019 30.8638 26.5296 30.1518L23.9047 27.4238C23.6806 27.7278 23.4085 27.9758 23.0724 28.1758L25.7133 30.9198C26.3696 31.6158 27.2739 31.9918 28.1862 31.9918C28.6584 31.9918 29.1385 31.8878 29.5947 31.6878C30.0189 31.4958 30.427 31.2638 30.8191 30.9918C31.7715 30.3358 32.3157 29.1918 32.2436 27.9998C31.6194 18.0158 28.6104 12.9838 27.698 11.6798H27.714ZM15.0376 12.0638C15.0376 11.9598 15.1256 11.8638 15.2376 11.8638H17.2464C17.3504 11.8638 17.4464 11.9518 17.4464 12.0638V12.3118L16.27 12.3358L15.0376 12.3118V12.0638ZM17.3504 14.9918C16.6221 15.0718 15.8699 15.0318 15.1336 14.9918C14.6614 14.9598 14.2533 14.7038 13.9492 14.3278C13.7091 14.0398 13.501 13.7278 13.2689 13.3838C13.309 13.3838 13.341 13.3998 13.381 13.3998L16.27 13.4638L19.135 13.3998C19.135 13.3998 19.191 13.3918 19.215 13.3918C18.7669 14.1678 18.3027 14.8878 17.3584 14.9918H17.3504Z" fill="#0079FF"></path><path d="M16.7183 10.216H15.6219V9.832C15.6219 8.8 16.4942 7.952 17.5586 7.952H21.8881C22.6564 7.952 23.2806 7.368 23.2806 6.648V6.56C23.2806 5.84 22.6564 5.256 21.8881 5.256H12.5008C11.0763 5.256 10.0039 4.336 10.0039 3.112C10.0039 1.888 11.0043 1.048 12.4288 1.048H16.1981C16.4382 1.048 16.6302 0.872 16.6302 0.664V0H17.7266V0.664C17.7266 1.48 17.0384 2.144 16.1981 2.144H12.4288C11.7885 2.144 11.1003 2.4 11.1003 3.112C11.1003 3.824 11.8045 4.16 12.4928 4.16H21.8801C23.2566 4.16 24.377 5.24 24.377 6.568V6.656C24.377 7.984 23.2566 9.064 21.8801 9.064H17.5506C17.0864 9.064 16.7103 9.416 16.7103 9.84V10.224L16.7183 10.216Z" fill="#0079FF"></path><path d="M21.8878 23.2559C20.8235 23.2559 19.9351 23.9919 19.6871 24.9839L16.5499 24.2399L13.4208 24.9839C13.1728 23.9919 12.2844 23.2559 11.2201 23.2559C9.97163 23.2559 8.94727 24.2719 8.94727 25.5279C8.94727 26.7839 9.96362 27.7999 11.2201 27.7999C12.3485 27.7999 13.2848 26.9679 13.4529 25.8879L16.5499 25.1519L19.647 25.8879C19.8231 26.9679 20.7514 27.7999 21.8798 27.7999C23.1283 27.7999 24.1526 26.7839 24.1526 25.5279C24.1526 24.2719 23.1363 23.2559 21.8798 23.2559H21.8878ZM11.2201 26.9199C10.4518 26.9199 9.82758 26.2959 9.82758 25.5279C9.82758 24.7599 10.4518 24.1359 11.2201 24.1359C11.9883 24.1359 12.6126 24.7599 12.6126 25.5279C12.6126 26.2959 11.9883 26.9199 11.2201 26.9199ZM21.8878 26.9199C21.1196 26.9199 20.4953 26.2959 20.4953 25.5279C20.4953 24.7599 21.1196 24.1359 21.8878 24.1359C22.6561 24.1359 23.2803 24.7599 23.2803 25.5279C23.2803 26.2959 22.6561 26.9199 21.8878 26.9199Z" fill="#0079FF"></path></g></g><defs><clipPath id="clip0_12186_42065"><rect width="32" height="32" fill="white" transform="translate(0.25)"></rect></clipPath><clipPath id="clip1_12186_42065"><rect width="32" height="32" fill="white" transform="translate(0.25)"></rect></clipPath></defs></svg> 