<?xml version="1.0" encoding="UTF-8"?> <svg xmlns="http://www.w3.org/2000/svg" width="40" height="40" viewBox="0 0 40 40" fill="none"><path d="M26.11 9.22999C26.26 9.37999 26.26 9.46999 26.11 9.61999C25.96 9.75999 25.81 9.90999 25.66 10.06C25.52 10.19 25.42 10.19 25.29 10.06C24.47 9.26999 23.65 8.47999 22.83 7.68999C22.79 7.64999 22.73 7.58999 22.73 7.49999C22.73 7.40999 22.83 7.32999 22.88 7.27999C23.67 6.51999 24.46 5.75999 25.25 4.98999C25.43 4.81999 25.51 4.81999 25.69 4.98999C25.83 5.12999 25.97 5.25999 26.12 5.39999C26.27 5.53999 26.27 5.63999 26.12 5.77999C25.54 6.32999 24.97 6.88999 24.39 7.43999C24.33 7.48999 24.33 7.51999 24.39 7.57999C24.97 8.12999 25.53 8.67999 26.11 9.22999Z" fill="#0079FF"></path><path d="M29.0601 4.52998C28.4101 6.65998 27.7501 8.78998 27.1001 10.92C27.0401 11.13 26.9501 11.18 26.7301 11.11C26.6301 11.08 26.5301 11.06 26.4301 11.03C26.2401 10.97 26.1901 10.89 26.2401 10.7C26.4101 10.13 26.5901 9.56998 26.7601 8.99998C27.2601 7.35998 27.7601 5.72998 28.2601 4.08998C28.2701 4.04998 28.2801 4.01998 28.3001 3.97998C28.3401 3.87998 28.4301 3.83998 28.5301 3.85998C28.6901 3.89998 28.8501 3.93998 29.0001 3.98998C29.1001 4.01998 29.1401 4.08998 29.1401 4.19998C29.1301 4.29998 29.0901 4.40998 29.0501 4.51998L29.0601 4.52998Z" fill="#0079FF"></path><path d="M32.5 7.75001C31.71 8.51001 30.91 9.27001 30.12 10.04C29.95 10.2 29.86 10.2 29.69 10.04C29.55 9.90001 29.41 9.77001 29.26 9.63001C29.11 9.48001 29.11 9.38001 29.26 9.24001C29.83 8.69001 30.4 8.14001 30.98 7.59001C31.04 7.54001 31.04 7.51001 30.98 7.46001C30.41 6.91001 29.84 6.36001 29.26 5.81001C29.11 5.66001 29.11 5.57001 29.26 5.42001C29.41 5.27001 29.56 5.13001 29.71 4.98001C29.84 4.85001 29.96 4.85001 30.08 4.98001C30.9 5.77001 31.72 6.56001 32.54 7.35001C32.58 7.39001 32.64 7.45001 32.64 7.53001C32.64 7.61001 32.54 7.71001 32.48 7.77001L32.5 7.75001Z" fill="#0079FF"></path><path d="M18.33 34.11C17.3 34.11 16.46 34.93 16.46 35.94C16.46 36.95 17.3 37.77 18.33 37.77C19.36 37.77 20.2 36.95 20.2 35.94C20.2 34.93 19.36 34.11 18.33 34.11ZM18.33 36.78C17.86 36.78 17.47 36.4 17.47 35.94C17.47 35.48 17.85 35.1 18.33 35.1C18.81 35.1 19.19 35.48 19.19 35.94C19.19 36.4 18.81 36.78 18.33 36.78Z" fill="#0079FF"></path><path d="M33.3099 1.4C33.4699 1.4 33.5999 1.53 33.5999 1.69V12.91C33.5999 13.07 33.4699 13.2 33.3099 13.2H21.8199C21.6599 13.2 21.5299 13.07 21.5299 12.91V1.69C21.5299 1.53 21.6599 1.4 21.8199 1.4H33.3099ZM33.3099 0H21.8199C20.8899 0 20.1299 0.76 20.1299 1.69V12.91C20.1299 13.84 20.8899 14.6 21.8199 14.6H33.3099C34.2399 14.6 34.9999 13.84 34.9999 12.91V1.69C34.9999 0.76 34.2399 0 33.3099 0Z" fill="#0079FF"></path><path d="M29.3102 15.95V35.53C29.3102 37.22 27.9302 38.6 26.2402 38.6H10.4202C8.7302 38.6 7.3502 37.22 7.3502 35.53V7.99997C7.3502 6.30997 8.7302 4.92997 10.4202 4.92997H13.8402C13.8402 4.92997 13.8302 4.95997 13.8302 4.97997C13.8302 5.38997 14.1602 5.71997 14.5702 5.71997H18.7602V3.52997H10.4302C7.9702 3.52997 5.96021 5.53997 5.96021 7.99997V35.53C5.96021 37.99 7.9702 40 10.4302 40H26.2502C28.7102 40 30.7202 37.99 30.7202 35.53V15.95H29.3202H29.3102Z" fill="#0079FF"></path></svg> 