<?xml version="1.0" encoding="UTF-8"?> <svg xmlns="http://www.w3.org/2000/svg" width="40" height="40" viewBox="0 0 40 40" fill="none"><path d="M36.91 22.2345L33.55 20.7249V12.177C33.55 11.5772 33.2 11.0273 32.66 10.7774L20.22 4.87886C19.81 4.6889 19.34 4.6889 18.92 4.87886L12.27 8.02807V6.7084C13.16 6.42847 13.81 5.60867 13.81 4.62892C13.81 3.41922 12.83 2.43947 11.62 2.43947C10.41 2.43947 9.43 3.41922 9.43 4.62892C9.43 5.62867 10.11 6.45846 11.02 6.72839V8.61792L6.49 10.7674C5.94 11.0173 5.59 11.5672 5.59 12.177V17.8456L2.67 16.5359C2.42 16.426 2.25 16.166 2.25 15.8861V9.63767C2.25 9.34774 2.41 9.0878 2.66 8.95784L5.9 7.24826C6.43 6.96833 6.76 6.41847 6.76 5.81862V4.27901C7.65 3.99908 8.3 3.17928 8.3 2.19953C8.29 0.989829 7.31 7.62939e-05 6.1 7.62939e-05C4.89 7.62939e-05 3.91 0.979831 3.91 2.18953C3.91 3.18928 4.59 4.01907 5.5 4.289V5.80862C5.5 5.94859 5.42 6.06856 5.3 6.13854L2.07 7.84811C1.41 8.19803 1 8.87786 1 9.62767V15.8761C1 16.6459 1.45 17.3457 2.16 17.6657L5.59 19.2053V27.0433C5.59 27.6432 5.94 28.193 6.47 28.443L19.02 34.6414C19.23 34.7414 19.45 34.7914 19.68 34.7914C19.91 34.7914 20.14 34.7414 20.36 34.6314L26.8 31.3922V33.1818C25.91 33.4617 25.26 34.2815 25.26 35.2613C25.26 36.471 26.24 37.4507 27.45 37.4507C28.66 37.4507 29.64 36.471 29.64 35.2613C29.64 34.2615 28.96 33.4317 28.05 33.1618V30.7524L32.67 28.433C33.21 28.183 33.56 27.6332 33.56 27.0333V22.0846L36.4 23.3642C36.65 23.4742 36.82 23.7341 36.82 24.0141V30.2625C36.82 30.5524 36.66 30.8124 36.41 30.9423L33.17 32.6519C32.64 32.9318 32.31 33.4817 32.31 34.0816V35.6212C31.42 35.9011 30.77 36.7209 30.77 37.7007C30.77 38.9104 31.75 39.8901 32.96 39.8901C34.17 39.8901 35.15 38.9104 35.15 37.7007C35.15 36.7009 34.47 35.8711 33.56 35.6012V34.0816C33.56 33.9416 33.64 33.8216 33.76 33.7516L37 32.0421C37.66 31.6922 38.07 31.0123 38.07 30.2625V24.0141C38.07 23.2443 37.62 22.5444 36.91 22.2245V22.2345ZM10.68 4.62892C10.68 4.10905 11.1 3.68915 11.62 3.68915C12.14 3.68915 12.56 4.10905 12.56 4.62892C12.56 5.14879 12.14 5.56868 11.62 5.56868C11.1 5.56868 10.68 5.14879 10.68 4.62892ZM5.17 2.18953C5.17 1.66966 5.59 1.24976 6.11 1.24976C6.63 1.24976 7.05 1.66966 7.05 2.18953C7.05 2.7094 6.63 3.12929 6.11 3.12929C5.59 3.12929 5.17 2.7094 5.17 2.18953ZM28.39 35.2613C28.39 35.7811 27.97 36.201 27.45 36.201C26.93 36.201 26.51 35.7811 26.51 35.2613C26.51 34.7414 26.93 34.3215 27.45 34.3215C27.97 34.3215 28.39 34.7414 28.39 35.2613ZM32.31 27.0333C32.31 27.1533 32.24 27.2533 32.13 27.3132L19.82 33.5017C19.74 33.5417 19.65 33.5417 19.58 33.5017L7.02 27.3033C6.92 27.2533 6.85 27.1533 6.85 27.0333V12.157C6.85 12.0371 6.92 11.9371 7.03 11.8871L19.46 5.99858C19.46 5.99858 19.55 5.96858 19.59 5.96858C19.63 5.96858 19.67 5.96858 19.71 5.98858L32.15 11.8771C32.26 11.9271 32.32 12.0371 32.32 12.147V27.0233L32.31 27.0333ZM33.91 37.7007C33.91 38.2205 33.49 38.6404 32.97 38.6404C32.45 38.6404 32.03 38.2205 32.03 37.7007C32.03 37.1808 32.45 36.7609 32.97 36.7609C33.49 36.7609 33.91 37.1808 33.91 37.7007Z" fill="#0079FF"></path><path d="M29.2199 13.7067L24.6999 11.6272C24.5299 11.5472 24.3299 11.5472 24.1499 11.6272L19.7499 13.6567L15.4099 11.6572C15.1999 11.5572 14.9499 11.5572 14.7399 11.6572L10.3599 13.6767C10.0799 13.8066 9.8999 14.0866 9.8999 14.3965V19.6352C9.8999 19.9451 10.0799 20.225 10.3499 20.355L14.5199 22.3345V27.3932C14.5199 27.7132 14.7099 28.0031 14.9999 28.1431L19.3399 30.2025C19.4499 30.2625 19.5799 30.2825 19.6999 30.2825C19.8199 30.2825 19.9399 30.2525 20.0499 30.2025L24.3999 28.1431C24.6899 28.0031 24.8699 27.7132 24.8699 27.3932V22.3845L29.2099 20.325C29.4399 20.215 29.5899 19.9851 29.5899 19.7252V14.3165C29.5899 14.0566 29.4399 13.8266 29.1999 13.7167L29.2199 13.7067ZM20.2599 14.5265L24.4299 12.6069L27.9599 14.2365L24.2899 15.8361C24.0399 15.9461 23.8699 16.196 23.8699 16.476V21.2048L22.2499 20.455L20.2499 19.5052V14.5265H20.2599ZM19.2599 19.4852L15.5399 21.2048V16.6659L19.2599 14.9364V19.4952V19.4852ZM10.9099 14.5265L15.0799 12.6069L18.4999 14.1765L14.9499 15.8261C14.6999 15.9461 14.5299 16.206 14.5299 16.486V21.2248L10.8999 19.5052V14.5265H10.9099ZM15.5399 22.3745L19.7399 20.385L21.8499 21.3548L23.1599 21.9746L19.6299 23.6442C19.3699 23.7642 19.2099 24.0241 19.2099 24.314V29.0128L15.5299 27.2633V22.3545L15.5399 22.3745ZM20.2299 29.0128V24.484L23.8899 22.7444V27.2833L20.2299 29.0228V29.0128ZM24.8899 21.2648V16.6559L28.6199 15.0263V19.4952L24.8899 21.2648Z" fill="#0079FF"></path></svg> 