<?xml version="1.0" encoding="UTF-8"?> <svg xmlns="http://www.w3.org/2000/svg" width="40" height="40" viewBox="0 0 40 40" fill="none"><path d="M5.71427 5.98467C5.31185 5.98467 4.97986 5.66523 4.97986 5.27592C4.97986 4.88661 5.31185 4.56717 5.71427 4.56717C6.11668 4.56717 6.44867 4.88661 6.44867 5.27592C6.44867 5.66523 6.11668 5.98467 5.71427 5.98467Z" fill="#0079FF"></path><path d="M30.6841 27.4269V35.303C30.6841 35.4926 30.5231 35.6523 30.332 35.6523H18.0181C17.8269 35.6523 17.666 35.4926 17.666 35.303V34.0951H24.8893C25.8048 34.0951 26.5593 33.3564 26.5593 32.438V27.7163H25.2414V32.438C25.2414 32.6277 25.0804 32.7874 24.8893 32.7874H11.9215C11.7303 32.7874 11.5694 32.6277 11.5694 32.438V22.246H10.2515V32.438C10.2515 33.3464 10.9959 34.0951 11.9215 34.0951H16.348V35.303C16.348 36.2114 17.0925 36.96 18.0181 36.96H30.332C31.2474 36.96 32.002 36.2213 32.002 35.303V27.4269H30.6841Z" fill="#0079FF"></path><path d="M8.30985 5.98467C7.90743 5.98467 7.57544 5.66523 7.57544 5.27592C7.57544 4.88661 7.90743 4.56717 8.30985 4.56717C8.71226 4.56717 9.04425 4.88661 9.04425 5.27592C9.04425 5.66523 8.71226 5.98467 8.30985 5.98467Z" fill="#0079FF"></path><path d="M10.9054 5.98467C10.503 5.98467 10.171 5.66523 10.171 5.27592C10.171 4.88661 10.503 4.56717 10.9054 4.56717C11.3078 4.56717 11.6398 4.88661 11.6398 5.27592C11.6398 5.66523 11.3078 5.98467 10.9054 5.98467Z" fill="#0079FF"></path><path d="M36.9819 4.108C36.2475 3.37928 35.2314 2.96002 34.1852 2.96002H5.62377C4.58755 2.96002 3.57145 3.37928 2.82699 4.108C2.08252 4.84669 1.67004 5.83495 1.67004 6.8831V7.53195H38.1288V6.8831C38.1288 5.85491 37.7063 4.84669 36.9719 4.108H36.9819ZM3.06844 6.23424C3.18916 5.77505 3.42055 5.36578 3.7626 5.02638C4.25556 4.53724 4.93966 4.25773 5.63383 4.25773H34.1952C34.8894 4.25773 35.5735 4.53724 36.0664 5.02638C36.3984 5.35579 36.6399 5.77505 36.7606 6.23424H3.06844Z" fill="#0079FF"></path><path d="M24.6278 29.8526H12.1831V31.1503H24.6278V29.8526Z" fill="#0079FF"></path><path d="M3.76255 29.0839C3.25953 28.5848 2.9879 27.9259 2.9879 27.2272V9.34872H36.831V18.0434C37.3038 18.1731 37.7364 18.3528 38.1388 18.5724V8.05101H1.68005V27.2272C1.68005 28.2753 2.09253 29.2536 2.837 29.9923C3.58146 30.731 4.57744 31.1403 5.63378 31.1403H9.61768V29.8426H5.63378C4.92955 29.8426 4.26557 29.573 3.76255 29.0739V29.0839Z" fill="#0079FF"></path><path d="M36.2777 28.8144C36.2073 28.9042 36.1368 29.004 36.0564 29.0839C35.5835 29.5531 34.9497 29.8226 34.2757 29.8426H34.2153H27.1831V31.1403H34.1952C35.2515 31.1403 36.2475 30.731 36.992 29.9923C37.4749 29.5131 37.7968 28.9142 37.9879 28.2753C37.4648 28.5349 36.8914 28.7245 36.2978 28.8044L36.2777 28.8144Z" fill="#0079FF"></path><path d="M35.2817 18.6024H35.2113C34.2656 15.5478 31.4588 13.4614 28.2395 13.4614C24.4366 13.4614 21.3381 16.3663 20.9658 20.1696C20.6137 20.1796 20.2515 20.2295 19.8793 20.3393C19.3863 20.499 18.9236 20.7386 18.5212 21.078C17.7163 21.7468 17.1932 22.7251 17.1026 23.7533C17.0926 23.8731 17.0825 24.0028 17.0825 24.1326C17.0825 26.3188 18.8733 28.1056 21.0664 28.1056H32.988C34.1147 28.1056 34.7888 28.1056 35.1912 28.0557V28.0856C37.8471 28.0856 40 25.9394 40 23.3141C40 20.6887 38.0081 18.792 35.2616 18.6024H35.2817ZM35.2012 26.8877H35.1711C34.7586 26.8877 25.7847 26.8977 21.0765 26.8977C19.5473 26.8977 18.2998 25.6599 18.2998 24.1326C18.2998 24.0428 18.2998 23.9529 18.3099 23.8731C18.3803 23.1543 18.7425 22.4755 19.3059 22.0064C19.5775 21.7768 19.9095 21.5971 20.2515 21.4973C20.654 21.3775 21.0865 21.3775 21.5493 21.3775C21.8813 21.3775 22.1429 21.1179 22.1529 20.7885C22.2334 17.3546 24.9195 14.6693 28.2495 14.6693C31.0564 14.6693 33.491 16.5759 34.165 19.3211C34.2254 19.5806 34.4568 19.7703 34.7284 19.7803L35.2113 19.8102C37.3039 19.96 38.823 21.4374 38.823 23.324C38.823 25.2107 37.2033 26.8977 35.2214 26.8977L35.2012 26.8877Z" fill="#0079FF"></path><path fill-rule="evenodd" clip-rule="evenodd" d="M13.8229 18.7122C13.6016 18.4926 13.4105 18.3628 13.6217 18.1432L15.4628 16.3164L13.6217 14.4896C13.4004 14.27 13.5815 14.1203 13.8028 13.9007C14.0241 13.6811 14.1952 13.4914 14.4165 13.701L16.6599 15.9271C16.8813 16.1467 16.8813 16.4961 16.6599 16.7157L14.4165 18.9418C14.1952 19.1614 14.0443 18.9418 13.8229 18.7222V18.7122Z" fill="#0079FF"></path><path fill-rule="evenodd" clip-rule="evenodd" d="M8.61166 18.7222C8.83299 18.5025 9.0342 18.3628 8.81287 18.1432L6.97182 16.3164L8.81287 14.4896C9.0342 14.27 8.83299 14.1402 8.61166 13.9206C8.39033 13.701 8.23943 13.4814 8.0181 13.701L5.77464 15.9271C5.55331 16.1467 5.55331 16.4961 5.77464 16.7157L8.0181 18.9418C8.23943 19.1614 8.39033 18.9418 8.61166 18.7321V18.7222Z" fill="#0079FF"></path><path fill-rule="evenodd" clip-rule="evenodd" d="M12.4346 12.1438C12.1327 12.0639 11.8812 11.9741 11.8008 12.2736L9.55729 20.0598C9.47681 20.3593 9.72832 20.4192 10.0301 20.509C10.3319 20.5889 10.5533 20.6588 10.6338 20.3693L12.8772 12.583C12.9577 12.2835 12.7364 12.2336 12.4346 12.1538V12.1438Z" fill="#0079FF"></path><path d="M35.2817 18.6024H35.2113C34.2656 15.5478 31.4588 13.4614 28.2395 13.4614C24.4366 13.4614 21.3381 16.3663 20.9658 20.1696C20.6137 20.1796 20.2515 20.2295 19.8793 20.3393C19.3863 20.499 18.9236 20.7386 18.5212 21.078C17.7163 21.7468 17.1932 22.7251 17.1026 23.7533C17.0926 23.8731 17.0825 24.0028 17.0825 24.1326C17.0825 26.3188 18.8733 28.1056 21.0664 28.1056H32.988C34.1147 28.1056 35.1912 28.0956 35.1912 28.0956C37.8471 28.0956 40 25.9494 40 23.324C40 20.6987 38.0081 18.802 35.2616 18.6124L35.2817 18.6024ZM35.2012 26.8877H35.1711C34.7586 26.8877 25.7847 26.8977 21.0765 26.8977C19.5473 26.8977 18.2998 25.6599 18.2998 24.1326C18.2998 24.0428 18.2998 23.9529 18.3099 23.8731C18.3803 23.1543 18.7425 22.4755 19.3059 22.0064C19.5775 21.7768 19.9095 21.5971 20.2515 21.4973C20.654 21.3775 21.0865 21.3775 21.5493 21.3775C21.8813 21.3775 22.1429 21.1179 22.1529 20.7885C22.2334 17.3546 24.9195 14.6693 28.2495 14.6693C31.0564 14.6693 33.491 16.5759 34.165 19.3211C34.2254 19.5806 34.4568 19.7703 34.7284 19.7803L35.2113 19.8102C37.3039 19.96 38.823 21.4374 38.823 23.324C38.823 25.2107 37.2033 26.8977 35.2214 26.8977L35.2012 26.8877Z" fill="#0079FF"></path></svg> 