<?xml version="1.0" encoding="UTF-8"?> <svg xmlns="http://www.w3.org/2000/svg" width="40" height="40" viewBox="0 0 40 40" fill="none"><path d="M5.70784 6.9568C5.30447 6.9568 4.97168 6.64141 4.97168 6.25703C4.97168 5.87264 5.30447 5.55725 5.70784 5.55725C6.11122 5.55725 6.44401 5.87264 6.44401 6.25703C6.44401 6.64141 6.11122 6.9568 5.70784 6.9568Z" fill="#0079FF"></path><path d="M8.28939 6.9568C7.88601 6.9568 7.55322 6.64141 7.55322 6.25703C7.55322 5.87264 7.88601 5.55725 8.28939 5.55725C8.69277 5.55725 9.02555 5.87264 9.02555 6.25703C9.02555 6.64141 8.69277 6.9568 8.28939 6.9568Z" fill="#0079FF"></path><path d="M10.8812 6.9568C10.4778 6.9568 10.145 6.64141 10.145 6.25703C10.145 5.87264 10.4778 5.55725 10.8812 5.55725C11.2846 5.55725 11.6173 5.87264 11.6173 6.25703C11.6173 6.64141 11.2846 6.9568 10.8812 6.9568Z" fill="#0079FF"></path><path d="M36.8788 5.12358C36.1427 4.4041 35.1342 4 34.0955 4H5.61702C4.57832 4 3.56988 4.41395 2.83371 5.12358C2.08746 5.85293 1.68408 6.81881 1.68408 7.84384V8.48448H38.0386V7.84384C38.0386 6.82867 37.615 5.84307 36.8889 5.12358H36.8788ZM3.06565 7.2032C3.18667 6.75968 3.41861 6.34573 3.76148 6.02048C4.25562 5.53754 4.93128 5.26157 5.62711 5.26157H34.1056C34.8014 5.26157 35.4771 5.53754 35.9712 6.02048C36.304 6.34573 36.5461 6.75968 36.657 7.2032H3.07573H3.06565Z" fill="#0079FF"></path><path d="M37.4032 32.3064C38.4822 31.0054 39.1276 29.3595 39.1276 27.5558C39.1276 23.3572 35.588 19.947 31.2214 19.947C26.8548 19.947 23.3152 23.3473 23.3152 27.5558C23.3152 31.7644 26.8548 35.1647 31.2214 35.1647C33.087 35.1647 34.8014 34.5437 36.1527 33.499L38.5024 35.756C38.8453 36.0813 39.3999 36.0813 39.7428 35.756C40.0856 35.4209 40.0856 34.8887 39.7428 34.5635L37.3931 32.3064H37.4032ZM37.5444 27.5558C37.5444 30.9069 34.7207 33.6271 31.2315 33.6271C27.7423 33.6271 24.9186 30.9069 24.9186 27.5558C24.9186 24.2048 27.7423 21.4846 31.2315 21.4846C34.7207 21.4846 37.5444 24.2048 37.5444 27.5558Z" fill="#0079FF"></path><path d="M22.6496 30.4043H5.61692C4.91101 30.4043 4.25552 30.1381 3.7513 29.6453C3.25716 29.1624 2.9748 28.5119 2.9748 27.822V10.2685H36.7174V20.2329C37.1914 20.568 37.625 20.9425 38.0183 21.3466V8.98718H1.66382V27.822C1.66382 28.847 2.07728 29.8129 2.81345 30.5422C3.5597 31.2716 4.54797 31.6658 5.59675 31.6658H23.184C22.9622 31.2617 22.7807 30.8281 22.6294 30.3944L22.6496 30.4043Z" fill="#0079FF"></path><path d="M29.3457 29.458L29.1945 29.6059C29.0533 29.734 28.9121 29.7636 28.8213 29.7636C28.7306 29.7636 28.5793 29.734 28.4482 29.596L26.7238 27.9303C26.7238 27.9303 26.6935 27.9106 26.6834 27.9008C26.5624 27.8022 26.5019 27.6642 26.4918 27.5164C26.4918 27.3686 26.5422 27.2207 26.6633 27.1123L28.4381 25.3875C28.66 25.1707 28.9625 25.1707 29.1945 25.3875L29.3659 25.5452C29.5978 25.7719 29.5878 26.0676 29.3659 26.2844L28.1255 27.4868C28.418 27.7727 28.7104 28.0585 29.0129 28.3443L29.3558 28.6794C29.4062 28.7287 29.5474 28.8568 29.5474 29.0638C29.5474 29.2708 29.4163 29.3989 29.3558 29.4482L29.3457 29.458ZM32.5526 25.2495L31.1105 30.0888C31.0399 30.3352 30.8483 30.483 30.5962 30.483H30.5559C30.5256 30.483 30.4954 30.4831 30.4752 30.4732C30.334 30.4338 30.2533 30.4141 30.1827 30.3845C29.971 30.3056 29.7894 30.079 29.8903 29.7636L31.3324 24.9341C31.4433 24.5695 31.7156 24.53 31.8265 24.53C31.887 24.53 31.9475 24.53 32.0181 24.5596L32.1895 24.6089C32.5022 24.6976 32.6534 24.9538 32.5627 25.2594L32.5526 25.2495ZM35.7998 27.8416C35.7594 27.8909 35.7292 27.9205 35.7191 27.9402L34.0249 29.5862C33.9745 29.6354 33.8333 29.7636 33.6316 29.7636C33.4299 29.7636 33.2887 29.6354 33.2383 29.5862L33.0871 29.4383C32.8652 29.2116 32.8652 28.9159 33.0871 28.6991L34.1762 27.6445C34.2266 27.5952 34.277 27.546 34.3274 27.4967L33.1072 26.314C33.0568 26.2647 32.9156 26.1267 32.9156 25.9197C32.9156 25.7127 33.0568 25.5846 33.1072 25.5353L33.198 25.4466C33.5308 25.1312 33.7829 25.1805 34.0148 25.3974L35.7796 27.1123C35.9914 27.339 36.0015 27.6445 35.8099 27.8515L35.7998 27.8416Z" fill="#0079FF"></path><path d="M21.3186 22.411H14.925C14.3704 22.411 13.9166 21.9675 13.9166 21.4254C13.9166 20.8834 14.3704 20.4398 14.925 20.4398H21.3186C21.8732 20.4398 22.327 20.8834 22.327 21.4254C22.327 21.9675 21.8732 22.411 21.3186 22.411ZM6.68604 24.4217C6.68604 23.8796 7.13984 23.4361 7.69448 23.4361H18.2731C18.8277 23.4361 19.2815 23.8796 19.2815 24.4217C19.2815 24.9637 18.8277 25.4073 18.2731 25.4073H7.69448C7.13984 25.4073 6.68604 24.9637 6.68604 24.4217ZM12.7065 15.433C12.7065 15.9751 12.2527 16.4186 11.698 16.4186H7.69448C7.13984 16.4186 6.68604 15.9751 6.68604 15.433C6.68604 14.8909 7.13984 14.4474 7.69448 14.4474H11.698C12.2527 14.4474 12.7065 14.8909 12.7065 15.433ZM22.327 15.433C22.327 15.9751 21.8732 16.4186 21.3186 16.4186H14.925C14.3704 16.4186 13.9166 15.9751 13.9166 15.433C13.9166 14.8909 14.3704 14.4474 14.925 14.4474H21.3186C21.8732 14.4474 22.327 14.8909 22.327 15.433ZM33.2485 15.433C33.2485 15.9751 32.7947 16.4186 32.2401 16.4186H24.7473C24.1927 16.4186 23.7389 15.9751 23.7389 15.433C23.7389 14.8909 24.1927 14.4474 24.7473 14.4474H32.2401C32.7947 14.4474 33.2485 14.8909 33.2485 15.433Z" fill="#0079FF"></path><path d="M6.68604 21.4253C6.68604 20.8832 7.13984 20.4397 7.69448 20.4397H11.698C12.2527 20.4397 12.7065 20.8832 12.7065 21.4253C12.7065 21.9674 12.2527 22.4109 11.698 22.4109H7.69448C7.13984 22.4109 6.68604 21.9674 6.68604 21.4253Z" fill="#0079FF"></path><path d="M6.68604 18.4292C6.68604 17.8871 7.13984 17.4436 7.69448 17.4436H18.2731C18.8277 17.4436 19.2815 17.8871 19.2815 18.4292C19.2815 18.9713 18.8277 19.4148 18.2731 19.4148H7.69448C7.13984 19.4148 6.68604 18.9713 6.68604 18.4292Z" fill="#0079FF"></path><path d="M23.759 18.4292C23.759 18.9713 23.3052 19.4148 22.7505 19.4148H21.8732C21.3185 19.4148 20.8647 18.9713 20.8647 18.4292C20.8647 17.8871 21.3185 17.4436 21.8732 17.4436H22.7505C23.3052 17.4436 23.759 17.8871 23.759 18.4292Z" fill="#0079FF"></path></svg> 