<?xml version="1.0" encoding="UTF-8"?> <svg xmlns="http://www.w3.org/2000/svg" width="40" height="40" viewBox="0 0 40 40" fill="none"><g clip-path="url(#clip0_2_715)"><path d="M20.8954 21.1466L20.8601 15L20.6219 15.0284C20.2338 15.0756 19.8192 15.0756 19.431 15.0284L19.184 15L19.2193 21.1371L13 25.7234L13.247 25.922C13.5734 26.1868 13.8822 26.4799 14.1468 26.8109L14.2791 26.9716L20.0573 22.7069L25.7385 27L25.8708 26.8392C26.1355 26.5177 26.4354 26.2151 26.7618 25.9504L27 25.7518L20.8954 21.1466Z" fill="#0079FF"></path><path d="M25.3873 13.9819C27.0833 12.4573 28.0467 10.2908 28.0467 8.02404C28.0467 3.60079 24.444 0 20.0185 0C15.5929 0 11.9902 3.60079 11.9902 8.02404C11.9902 10.2908 12.9637 12.4674 14.6596 13.9919L14.7901 14.1123L15.2718 14.4834C15.3721 14.5536 15.4725 14.6339 15.5728 14.694L16.0445 14.9849C16.1147 15.025 16.185 15.0752 16.2653 15.1053C16.4559 15.2056 16.6566 15.3059 16.8573 15.3861C16.9075 15.4062 16.9577 15.4262 17.0079 15.4463L17.0882 15.4764C17.2387 15.5366 17.3892 15.5967 17.5498 15.6469L17.8007 15.7171C17.9512 15.7572 18.1118 15.7973 18.2723 15.8375C18.3526 15.8575 18.4429 15.8776 18.5232 15.8876C18.6938 15.9177 18.8644 15.9478 19.035 15.9678L19.2658 15.9979C19.5368 16.018 19.7776 16.0381 20.0084 16.0381C20.2392 16.0381 20.4801 16.028 20.7611 15.9979L20.9919 15.9678C21.1625 15.9478 21.3331 15.9177 21.5037 15.8876L21.7646 15.8375C21.9151 15.8074 22.0757 15.7672 22.2363 15.7171L22.3165 15.697C22.3767 15.677 22.437 15.6669 22.4871 15.6469C22.6477 15.5967 22.7982 15.5366 22.9488 15.4764L23.029 15.4463C23.0792 15.4262 23.1294 15.4062 23.1796 15.3861C23.3803 15.2958 23.581 15.2056 23.7717 15.0952C23.8921 15.0351 24.0125 14.9648 24.163 14.8645L24.3738 14.7342C24.5042 14.6539 24.6347 14.5536 24.8053 14.4333L25.3171 14.032L25.3873 13.9618V13.9819ZM23.5007 13.8314C23.3803 13.9017 23.2498 13.9819 23.1093 14.0421L22.6377 14.2627C21.8148 14.6038 20.9216 14.7743 20.0285 14.7743C19.035 14.7743 18.0415 14.5636 17.1584 14.1524C16.9477 14.0521 16.747 13.9418 16.5563 13.8314L16.3355 13.7011L16.476 13.4804C17.2387 12.2367 18.5734 11.5045 20.0385 11.5045C21.5037 11.5045 22.8384 12.2467 23.6011 13.4904L23.7415 13.7111L23.5208 13.8415L23.5007 13.8314ZM18.1017 7.55263C18.1017 6.48945 18.9648 5.62686 20.0285 5.62686C21.0922 5.62686 21.9553 6.48945 21.9553 7.55263C21.9553 8.61582 21.0922 9.4784 20.0285 9.4784C18.9648 9.4784 18.1017 8.61582 18.1017 7.55263ZM24.715 12.9087L24.5343 12.6379C23.9021 11.7051 22.9789 10.9829 21.9151 10.5917L21.4535 10.4212L21.8549 10.1404C22.6979 9.54861 23.1996 8.5757 23.1996 7.55263C23.1996 5.8074 21.7746 4.38313 20.0285 4.38313C18.2824 4.38313 16.8573 5.8074 16.8573 7.55263C16.8573 8.58573 17.3591 9.54861 18.2021 10.1404L18.6035 10.4212L18.1419 10.5917C17.0781 10.9829 16.1448 11.7151 15.5227 12.6379L15.342 12.9087L15.1212 12.678C13.917 11.4142 13.2547 9.75924 13.2547 8.02404C13.2547 4.29286 16.2954 1.25376 20.0285 1.25376C23.7616 1.25376 26.8023 4.29286 26.8023 8.02404C26.8023 9.75924 26.14 11.4142 24.9357 12.678L24.715 12.9087Z" fill="#0079FF"></path><path d="M13.3971 37.9037C15.0931 36.3791 16.0564 34.2126 16.0564 31.9458C16.0564 27.5226 12.4538 23.9218 8.02822 23.9218C3.60267 23.9218 0 27.5226 0 31.9458C0 34.2126 0.973422 36.3891 2.66938 37.9137L2.79984 38.0341L3.28154 38.4052C3.38189 38.4754 3.48224 38.5556 3.5826 38.6158L4.05425 38.9067C4.1245 38.9468 4.19475 38.997 4.27503 39.027C4.4657 39.1273 4.66641 39.2276 4.86711 39.3079C4.91729 39.3279 4.96746 39.348 5.01764 39.3681L5.09792 39.3982C5.24845 39.4583 5.39898 39.5185 5.55955 39.5687L5.81043 39.6389C5.96096 39.679 6.12152 39.7191 6.28209 39.7592C6.36237 39.7793 6.45269 39.7994 6.53297 39.8094C6.70357 39.8395 6.87417 39.8696 7.04477 39.8896L7.27558 39.9197C7.54653 39.9398 7.78738 39.9598 8.01819 39.9598C8.249 39.9598 8.48985 39.9498 8.77084 39.9197L9.00165 39.8896C9.17225 39.8696 9.34285 39.8395 9.51345 39.8094L9.77436 39.7592C9.92489 39.7292 10.0855 39.689 10.246 39.6389L10.3263 39.6188C10.3865 39.5988 10.4467 39.5887 10.4969 39.5687C10.6575 39.5185 10.808 39.4583 10.9585 39.3982L11.0388 39.3681C11.089 39.348 11.1392 39.3279 11.1893 39.3079C11.39 39.2176 11.5907 39.1273 11.7814 39.017C11.9018 38.9568 12.0223 38.8866 12.1728 38.7863L12.3835 38.6559C12.514 38.5757 12.6445 38.4754 12.8151 38.355L13.3269 37.9538L13.3971 37.8836V37.9037ZM11.5105 37.7532C11.39 37.8234 11.2596 37.9037 11.1191 37.9639L10.6474 38.1845C9.82454 38.5255 8.9314 38.6961 8.03826 38.6961C7.04477 38.6961 6.05127 38.4854 5.16817 38.0742C4.95743 37.9739 4.75672 37.8636 4.56605 37.7532L4.34528 37.6228L4.48577 37.4022C5.24845 36.1585 6.58314 35.4263 8.0483 35.4263C9.51345 35.4263 10.8481 36.1685 11.6108 37.4122L11.7513 37.6329L11.5305 37.7633L11.5105 37.7532ZM6.11149 31.4744C6.11149 30.4112 6.97452 29.5486 8.03826 29.5486C9.102 29.5486 9.96503 30.4112 9.96503 31.4744C9.96503 32.5376 9.102 33.4002 8.03826 33.4002C6.97452 33.4002 6.11149 32.5376 6.11149 31.4744ZM12.7247 36.8305L12.5441 36.5597C11.9119 35.6269 10.9886 34.9047 9.92489 34.5135L9.46327 34.343L9.86468 34.0622C10.7076 33.4704 11.2094 32.4975 11.2094 31.4744C11.2094 29.7292 9.7844 28.3049 8.03826 28.3049C6.29212 28.3049 4.86711 29.7292 4.86711 31.4744C4.86711 32.5075 5.36888 33.4704 6.21184 34.0622L6.61325 34.343L6.15163 34.5135C5.08789 34.9047 4.15461 35.6369 3.53242 36.5597L3.35178 36.8305L3.13101 36.5998C1.92677 35.336 1.26445 33.681 1.26445 31.9458C1.26445 28.2146 4.30514 25.1755 8.03826 25.1755C11.7714 25.1755 14.8121 28.2146 14.8121 31.9458C14.8121 33.681 14.1497 35.336 12.9455 36.5998L12.7247 36.8305Z" fill="#0079FF"></path><path d="M37.3405 37.9438C39.0364 36.4193 39.9998 34.2528 39.9998 31.986C39.9998 27.5627 36.3971 23.9619 31.9716 23.9619C27.546 23.9619 23.9434 27.5627 23.9434 31.986C23.9434 34.2528 24.9168 36.4293 26.6127 37.9539L26.7432 38.0742L27.2249 38.4453C27.3252 38.5156 27.4256 38.5958 27.526 38.656L27.9976 38.9468C28.0679 38.987 28.1381 39.0371 28.2184 39.0672C28.4091 39.1675 28.6098 39.2678 28.8105 39.3481C28.8606 39.3681 28.9108 39.3882 28.961 39.4082L29.0413 39.4383C29.1918 39.4985 29.3423 39.5587 29.5029 39.6088L29.7538 39.679C29.9043 39.7192 30.0649 39.7593 30.2254 39.7994C30.3057 39.8195 30.396 39.8395 30.4763 39.8496C30.6469 39.8796 30.8175 39.9097 30.9881 39.9298L31.2189 39.9599C31.4899 39.9799 31.7307 40 31.9615 40C32.1924 40 32.4332 39.99 32.7142 39.9599L32.945 39.9298C33.1156 39.9097 33.2862 39.8796 33.4568 39.8496L33.7177 39.7994C33.8683 39.7693 34.0288 39.7292 34.1894 39.679L34.2697 39.659C34.3299 39.6389 34.3901 39.6289 34.4403 39.6088C34.6008 39.5587 34.7514 39.4985 34.9019 39.4383L34.9822 39.4082C35.0323 39.3882 35.0825 39.3681 35.1327 39.3481C35.3334 39.2578 35.5341 39.1675 35.7248 39.0572C35.8452 38.997 35.9656 38.9268 36.1162 38.8265L36.3269 38.6961C36.4574 38.6159 36.5878 38.5156 36.7584 38.3952L37.2702 37.994L37.3405 37.9238V37.9438ZM35.4538 37.7934C35.3334 37.8636 35.2029 37.9438 35.0625 38.004L34.5908 38.2247C33.7679 38.5657 32.8748 38.7362 31.9816 38.7362C30.9881 38.7362 29.9946 38.5256 29.1115 38.1144C28.9008 38.0141 28.7001 37.9037 28.5094 37.7934L28.2886 37.663L28.4291 37.4423C29.1918 36.1986 30.5265 35.4664 31.9917 35.4664C33.4568 35.4664 34.7915 36.2086 35.5542 37.4524L35.6947 37.673L35.4739 37.8034L35.4538 37.7934ZM30.0548 31.5146C30.0548 30.4514 30.9179 29.5888 31.9816 29.5888C33.0454 29.5888 33.9084 30.4514 33.9084 31.5146C33.9084 32.5778 33.0454 33.4403 31.9816 33.4403C30.9179 33.4403 30.0548 32.5778 30.0548 31.5146ZM36.6681 36.8706L36.4875 36.5998C35.8552 35.667 34.932 34.9449 33.8683 34.5537L33.4066 34.3832L33.808 34.1023C34.651 33.5106 35.1528 32.5376 35.1528 31.5146C35.1528 29.7693 33.7278 28.3451 31.9816 28.3451C30.2355 28.3451 28.8105 29.7693 28.8105 31.5146C28.8105 32.5477 29.3122 33.5106 30.1552 34.1023L30.5566 34.3832L30.095 34.5537C29.0312 34.9449 28.098 35.677 27.4758 36.5998L27.2951 36.8706L27.0744 36.6399C25.8701 35.3761 25.2078 33.7212 25.2078 31.986C25.2078 28.2548 28.2485 25.2157 31.9816 25.2157C35.7147 25.2157 38.7554 28.2548 38.7554 31.986C38.7554 33.7212 38.0931 35.3761 36.8889 36.6399L36.6681 36.8706Z" fill="#0079FF"></path></g><defs><clipPath id="clip0_2_715"><rect width="40" height="40" fill="white"></rect></clipPath></defs></svg> 