<?xml version="1.0" encoding="UTF-8"?> <svg xmlns="http://www.w3.org/2000/svg" width="33" height="32" viewBox="0 0 33 32" fill="none"><path d="M17.1674 11.1755C17.1675 11.2936 17.2026 11.4091 17.2683 11.5073C17.334 11.6055 17.4274 11.682 17.5365 11.7271C17.6457 11.7723 17.7658 11.784 17.8817 11.7609C17.9975 11.7378 18.1039 11.6809 18.1874 11.5973C18.2709 11.5138 18.3278 11.4073 18.3508 11.2914C18.3738 11.1756 18.362 11.0555 18.3167 10.9463C18.2715 10.8372 18.1949 10.7439 18.0967 10.6783C17.9985 10.6127 17.883 10.5776 17.7648 10.5776C17.6064 10.5779 17.4545 10.641 17.3425 10.753C17.2305 10.8651 17.1675 11.0171 17.1674 11.1755ZM14.9287 11.1755C14.9287 11.3339 14.9917 11.4859 15.1037 11.5979C15.2157 11.71 15.3677 11.7729 15.5261 11.7729C15.6845 11.7729 15.8365 11.71 15.9485 11.5979C16.0606 11.4859 16.1235 11.3339 16.1235 11.1755V11.1754C16.1235 11.0969 16.108 11.0192 16.078 10.9467C16.048 10.8743 16.004 10.8084 15.9485 10.753C15.893 10.6975 15.8271 10.6535 15.7547 10.6235C15.6822 10.5935 15.6045 10.578 15.526 10.578C15.4476 10.578 15.3699 10.5935 15.2974 10.6235C15.2249 10.6536 15.1591 10.6976 15.1036 10.7531C15.0482 10.8085 15.0042 10.8744 14.9742 10.9469C14.9441 11.0194 14.9287 11.0971 14.9287 11.1755Z" fill="#0079FF"></path><path d="M15.5993 4.71361C15.5396 4.68631 15.475 4.67105 15.4094 4.66869C15.3438 4.66633 15.2784 4.67692 15.2168 4.69985C15.1553 4.72279 15.0989 4.75762 15.0508 4.80236C15.0028 4.84709 14.964 4.90086 14.9367 4.96059L13.8228 7.39882L12.6383 4.95064C12.6098 4.89146 12.5698 4.83848 12.5208 4.79475C12.4718 4.75101 12.4146 4.71736 12.3526 4.69574C12.2905 4.67411 12.2248 4.66493 12.1592 4.66871C12.0936 4.67249 12.0294 4.68917 11.9702 4.71778C11.9111 4.7464 11.8582 4.78639 11.8145 4.83547C11.7708 4.88456 11.7372 4.94177 11.7157 5.00384C11.6941 5.06591 11.685 5.13163 11.6888 5.19722C11.6927 5.26282 11.7094 5.32701 11.7381 5.38613L13.3856 8.7914C13.4265 8.87598 13.4905 8.94732 13.5701 8.99724C13.6497 9.04716 13.7417 9.07365 13.8357 9.07366C13.8375 9.07366 13.8394 9.07366 13.8412 9.07363C13.9361 9.07258 14.0288 9.04455 14.1083 8.99281C14.1879 8.94107 14.2511 8.86777 14.2905 8.78145L15.8463 5.37618C15.8736 5.31646 15.8888 5.25194 15.8912 5.18632C15.8935 5.1207 15.8829 5.05526 15.86 4.99373C15.8371 4.9322 15.8022 4.8758 15.7575 4.82774C15.7128 4.77967 15.659 4.74089 15.5993 4.71361ZM19.9463 5.01534C19.1767 4.40212 17.7221 4.62526 17.4382 4.67626C17.3228 4.69699 17.2183 4.75764 17.1431 4.8476C17.0678 4.93756 17.0266 5.0511 17.0266 5.16838V8.57366C17.0266 8.70626 17.0793 8.83344 17.1731 8.92721C17.2668 9.02098 17.394 9.07366 17.5266 9.07366C17.6592 9.07366 17.7864 9.02098 17.8802 8.92721C17.9739 8.83344 18.0266 8.70626 18.0266 8.57366V5.61031C18.4381 5.57968 19.3955 5.57351 19.4152 5.98571C19.4217 6.12258 19.33 6.3366 19.0503 6.48928C18.936 6.55158 18.8373 6.63885 18.7615 6.7446C18.6857 6.85034 18.6347 6.97182 18.6123 7.1C18.59 7.22818 18.5968 7.35976 18.6324 7.48492C18.6679 7.61009 18.7312 7.72563 18.8176 7.82293L19.7788 8.9056C19.8224 8.9547 19.8752 8.99473 19.9343 9.02342C19.9934 9.0521 20.0575 9.06887 20.123 9.07276C20.1886 9.07666 20.2542 9.06761 20.3163 9.04612C20.3783 9.02464 20.4355 8.99115 20.4846 8.94756C20.5337 8.90397 20.5738 8.85113 20.6025 8.79207C20.6311 8.73301 20.6479 8.66887 20.6518 8.60333C20.6557 8.53779 20.6467 8.47212 20.6252 8.41007C20.6037 8.34803 20.5702 8.29082 20.5266 8.24172L19.6732 7.28041C20.6039 6.66405 20.6184 5.55085 19.9463 5.01534ZM18.9788 23.6637V22.0381C19.7239 21.4212 20.2016 20.5032 20.4125 19.5591C20.8041 19.5108 21.1645 19.3211 21.426 19.0257C21.6875 18.7304 21.8321 18.3497 21.8326 17.9552V17.4098C21.8321 17.057 21.7164 16.7141 21.5031 16.4331C21.2897 16.1521 20.9905 15.9485 20.6508 15.8533C20.2612 13.9736 18.8794 12.6509 16.6424 12.6626C14.2691 12.6777 12.935 13.9273 12.5369 15.8369C12.1826 15.9208 11.867 16.1217 11.641 16.4071C11.4149 16.6925 11.2917 17.0457 11.2912 17.4098V17.9552C11.2917 18.343 11.4315 18.7178 11.6851 19.0113C11.9386 19.3047 12.2892 19.4974 12.6728 19.5542C12.8882 20.5229 13.3814 21.4582 14.1569 22.0773V23.6763C10.6613 23.4357 8.17461 25.3956 8.3355 29.5196C8.34055 29.6488 8.3954 29.7709 8.48855 29.8605C8.5817 29.9501 8.70591 30.0001 8.83514 30.0001H23.709L23.7091 30.0001L23.7093 30.0001C23.8383 29.9995 23.9622 29.9493 24.0551 29.8598C24.1481 29.7704 24.2031 29.6485 24.2086 29.5196C24.3668 25.4653 22.1292 23.5526 18.9788 23.6637ZM16.8633 21.8507H16.2283C14.91 21.7362 14.0598 20.836 13.7055 19.5714H15.3925C15.4838 19.5714 15.5735 19.5464 15.6516 19.499L16.4227 19.0316L17.1653 19.4955C17.2448 19.5451 17.3366 19.5714 17.4302 19.5714H19.381C19.174 20.31 18.5614 21.701 16.8633 21.8507ZM16.6767 13.6626C18.7085 13.6626 19.3871 15.0129 19.6097 15.7935H13.5752C14.0268 14.1982 15.191 13.6582 16.6767 13.6626ZM12.2912 17.9552V17.4098C12.2914 17.2464 12.3564 17.0898 12.4719 16.9742C12.5874 16.8587 12.7441 16.7937 12.9075 16.7935H20.2126L20.2133 16.7936L20.2141 16.7935H20.2164C20.3798 16.7937 20.5364 16.8587 20.6519 16.9743C20.7675 17.0898 20.8325 17.2464 20.8326 17.4098V17.9552C20.8325 18.1185 20.7675 18.2752 20.6519 18.3907C20.5364 18.5062 20.3798 18.5712 20.2164 18.5714H17.5736L16.6915 18.0204C16.613 17.9714 16.5225 17.9451 16.4299 17.9445C16.3374 17.9439 16.2465 17.969 16.1674 18.0169L15.2527 18.5714H12.9075C12.7441 18.5712 12.5874 18.5063 12.4719 18.3907C12.3564 18.2752 12.2914 18.1185 12.2912 17.9552ZM17.9788 22.6164V23.8838C16.6742 24.6953 15.6324 24.3129 15.1569 24.0393V22.6344C16.0725 22.948 17.0673 22.9417 17.9788 22.6164ZM14.3366 24.6974C15.0678 25.2614 16.7048 25.8663 18.5282 24.72C21.6698 24.4113 23.1809 26.0736 23.2148 29.0001H9.32873C9.37828 25.7647 11.4323 24.3717 14.3366 24.6974Z" fill="#0079FF"></path><path d="M30.0542 14.665L30.0572 6.15363C30.0572 2.71261 19.9684 2 16.5003 2C13.0333 2 2.94336 2.7124 2.94336 6.15363C2.94336 6.15993 2.95343 15.0116 2.95416 15.0179C2.95416 16.7108 6.43268 17.7559 8.09705 18.1391C8.38976 18.2066 8.70764 18.026 8.70764 17.5711V12.4279C10.0695 12.134 11.4495 11.9318 12.8384 11.8228C12.9038 11.8174 12.9676 11.7992 13.026 11.7691C13.0844 11.7391 13.1364 11.6979 13.1789 11.6478C13.2213 11.5977 13.2535 11.5397 13.2736 11.4772C13.2936 11.4146 13.3012 11.3487 13.2958 11.2833C13.2904 11.2178 13.2721 11.1541 13.2421 11.0957C13.212 11.0373 13.1707 10.9853 13.1206 10.9429C13.0705 10.9004 13.0125 10.8683 12.9499 10.8483C12.8874 10.8282 12.8215 10.8207 12.756 10.8262C11.3958 10.9334 10.0436 11.1264 8.70764 11.4041C8.70764 9.05246 8.70983 9.10244 8.70372 9.05138C8.72272 8.92681 8.69394 8.79966 8.62317 8.6954C8.55239 8.59115 8.44484 8.51748 8.32205 8.48917C7.00361 8.18561 4.17807 7.43527 3.94624 6.10234C4.06764 4.78964 8.82082 3 16.5003 3C24.2801 3 29.0572 4.83679 29.0572 6.15363C29.0572 6.70428 28.0779 7.60513 25.3179 8.33169C25.0268 8.4083 24.8985 8.7417 24.8985 8.91348V11.5186C23.3491 11.1755 21.7774 10.9428 20.1952 10.8222C20.063 10.8114 19.932 10.8536 19.8309 10.9395C19.7298 11.0253 19.667 11.1478 19.6562 11.28C19.6455 11.4121 19.6876 11.5432 19.7735 11.6442C19.8593 11.7453 19.9818 11.8081 20.114 11.8189C21.8679 11.9617 23.5116 12.2121 24.8985 12.5461V17.446C24.8985 17.7574 25.2251 18.0655 25.5719 17.9742C27.4321 17.4845 30.0542 16.5886 30.0542 14.665ZM7.70764 9.37029V17.014C5.10837 16.3356 4.06898 15.5069 3.95416 14.935V7.82936C4.8919 8.53465 6.34417 9.03162 7.70764 9.37029ZM25.8985 16.8436V9.20969C27.2959 8.8165 28.3549 8.34763 29.0542 7.81697V14.665C29.0542 15.7962 26.9821 16.5189 25.8985 16.8436Z" fill="#0079FF"></path></svg> 