<?xml version="1.0" encoding="utf-8"?>
<!-- Generator: Adobe Illustrator 23.0.1, SVG Export Plug-In . SVG Version: 6.00 Build 0)  -->
<svg version="1.1" id="Layer_1" xmlns="http://www.w3.org/2000/svg" xmlns:xlink="http://www.w3.org/1999/xlink" x="0px" y="0px" width="56px" height="56px"
	 viewBox="0 0 1000 1000" style="enable-background:new 0 0 1000 1000;" xml:space="preserve">
<style type="text/css">
	.st0{fill:#0A4454;}
	.st1{fill:#38BA91;}
</style>
<g id="g61" transform="matrix(2.2857148,0,0,2.2857148,-12.815713,-32.230932)">
	<path id="path8" class="st0" d="M127.5,226.1c-0.2-0.2-0.4-0.6-0.4-0.8c3-2.3,6.3-4.4,9.1-6.6c10.2-8,16.3-18.6,18.4-31.3
		c2.3-13.7,1.9-27.5,0.8-41.2c-1.3-16.3-6.4-31.9-18.6-44C123,88,105.7,81.7,86.2,80.6H14.5c2.5,2.7,1.7,5.9,1.7,8.9v281.3
		c0,5.3,0.2,10.4,0.6,15.6c24.1-0.4,48.4,0.9,72.5-0.9c35.5-2.7,57.9-22.4,64.5-56.5c3.8-19.5,3-39.5,1.3-59
		C153.5,250.9,145.2,235.5,127.5,226.1z M113.1,316.2c-2.8,17.1-13.7,25.6-32.1,26.2c-6.4,0.2-12.7-0.2-19.2,0.2
		c-3.4,0.2-4-1.1-4-4.2c0.2-15,0-30,0-45.1c0-14.8,0.2-29.4,0-44.2c0-3.6,0.8-4.7,4.6-4.7c7.8,0.2,7.8,0,7.8-7.6
		c0-8.9-0.2-17.6,0-26.6c0-3.2-0.6-4.6-4.2-4.6c-8,0.2-8,0-8-8v-71.5c0-3.6,0.8-4.9,4.6-4.7c8.7,0.6,17.6-0.4,26.4,1.1
		c12.3,2.1,20.3,9.3,23.5,21.2c3.6,13.8,3.2,27.9-0.8,41.5c-3,10.4-10.1,17.1-21.1,18.8c-3.4,0.6-4.6,1.9-4.4,5.3
		c0.2,10.4,0.2,20.9,0,31.3c0,2.7,0.4,4,3.4,4.6c13.3,2.3,21.2,10.4,23.3,23.7C115.8,285.1,115.8,300.8,113.1,316.2z"/>
	<g id="g55" transform="translate(-72)">
		<path id="path10" class="st1" d="M486.2,176.4c1.5-1.1,2.7-2.1,4-2.8c8.2-5.5,13.1-13.1,14.8-22.8c1.3-8.3,1.5-17.1,0.8-25.4
			c-2.7-29.2-20.5-45.3-49.7-45.7c-13.3-0.2-26.6,0.2-39.6-0.2c-4.2,0-5.1,1.1-5.1,5.1c0.2,34.9,0.2,69.6,0.2,104.5v89.7
			c0,2.5-0.6,4.9,3.4,4.7c15.9-0.4,32.1,0.6,48-0.8c22-1.9,36.6-14.6,41.4-36.2c2.3-10.4,2.1-21.1,1.9-31.7
			C505.4,199.1,502.2,184.5,486.2,176.4L486.2,176.4z M440.3,159.1v-48.4c0-2.7,0.8-3.8,3.6-3.6c4.6,0.2,9.1,0,13.7,0.2
			c11,0.8,17.5,6.3,19.7,17.1c1.5,7.2,1.3,14.2-0.2,21.4c-2.3,11.6-7.8,16.3-19.9,17.3c-4.6,0.4-9.1,0-13.7,0.2
			c-2.7,0.2-3.6-0.9-3.2-3.4L440.3,159.1z M477.1,236.1c-1.7,11.4-8.7,17.3-21.4,18c-4,0.2-7.8,0-11.8,0.2c-3,0.2-3.8-0.9-3.8-4
			c0.2-9.7,0-19.2,0-28.8c0-9.3,0.2-18.6-0.2-27.9c-0.2-4,1.3-5.1,4.9-4.7c5.1,0.4,10.1-0.2,15.2,0.8c9.7,1.5,15.4,6.6,16.9,16.3
			C478.6,215.8,478.6,226.1,477.1,236.1L477.1,236.1z"/>
		<path id="path14" class="st1" d="M383.2,124.6c-1.5-26.9-19.2-44-45.7-45c-14.6-0.6-29,0-43.6-0.4c-3.8,0-4.9,0.9-4.9,4.7
			c0.2,32.4,0,64.7,0,97.1v97.5c0,2.5-0.4,4.7,3.6,4.7c15.7-0.4,31.7,0.6,47.6-0.8c23-1.9,38.3-16.1,42.1-38.9
			c2.5-15.2,1.3-30.7,1.3-45.9C383.6,173.5,384.6,149.1,383.2,124.6L383.2,124.6z M354.4,228.3c0,4.9-0.4,9.9-1.7,14.6
			c-1.9,6.8-6.4,10.8-13.3,12.3c-6.1,1.1-12.3,0.8-18.6,0.8c-3.6,0-2.5-2.8-2.5-4.7v-70c0-23,0.2-46.1-0.2-69c0-4.2,1.1-5.3,5.1-4.9
			c3.6,0.4,7.2,0,10.8,0.2c11.6,0.4,17.8,5.9,19.5,17.3c0.4,3.2,0.8,6.4,0.8,9.7V228.3z"/>
	</g>
</g>
</svg>
