<?xml version="1.0" encoding="UTF-8"?>
<svg id="Layer_1" data-name="Layer 1" xmlns="http://www.w3.org/2000/svg" version="1.1" viewBox="0 0 62 63">
  <defs>
    <style>
      .cls-1 {
        fill: #00a0f1;
        stroke-width: 0px;
      }
    </style>
  </defs>
  <path class="cls-1" d="M55.9,19c3.4,0,6.1-2.8,6.1-6.2v-6.6c0-3.4-2.7-6.2-6.1-6.2H6.1C2.7,0,0,2.8,0,6.2v6.6c0,3.4,2.7,6.2,6.1,6.2h23.3v15.6c-2.4.6-4.3,2.5-4.9,4.9H7.5c-.9,0-1.6.7-1.6,1.7v10h-3.7c-.9,0-1.6.7-1.6,1.7v8.5c0,.9.7,1.7,1.6,1.7h10.7c.9,0,1.6-.7,1.6-1.7v-8.5c0-.9-.7-1.7-1.6-1.7h-3.7v-8.3h15.3c.6,2.4,2.5,4.3,4.9,4.9v3.4h-3.7c-.9,0-1.6.7-1.6,1.7v8.5c0,.9.7,1.7,1.6,1.7h10.7c.9,0,1.6-.7,1.6-1.7v-8.5c0-.9-.7-1.7-1.6-1.7h-3.7v-3.4c2.4-.6,4.3-2.5,4.9-4.9h15.3v8.3h-3.7c-.9,0-1.6.7-1.6,1.7v8.5c0,.9.7,1.7,1.6,1.7h10.7c.9,0,1.6-.7,1.6-1.7v-8.5c0-.9-.7-1.7-1.6-1.7h-3.7v-10c0-.9-.7-1.7-1.6-1.7h-17c-.6-2.4-2.5-4.3-4.9-4.9v-15.6h23.3ZM11.3,59.7H3.8v-5.2h7.4v5.2ZM34.7,59.7h-7.4v-5.2h7.4v5.2ZM58.2,59.7h-7.4v-5.2h7.4v5.2ZM34.4,41.2c0,1.9-1.5,3.5-3.4,3.5s-3.4-1.6-3.4-3.5,1.5-3.5,3.4-3.5,3.4,1.6,3.4,3.5ZM3.3,12.8v-6.6c0-1.6,1.3-2.9,2.8-2.9h49.8c1.6,0,2.8,1.3,2.8,2.9v6.6c0,1.6-1.3,2.9-2.8,2.9H6.1c-1.6,0-2.8-1.3-2.8-2.9ZM17.5,9.5c0,.9-.7,1.7-1.6,1.7h-7.4c-.9,0-1.6-.7-1.6-1.7s.7-1.7,1.6-1.7h7.4c.9,0,1.6.7,1.6,1.7ZM36.4,9.5c0,.9-.7,1.7-1.6,1.7h-7.4c-.9,0-1.6-.7-1.6-1.7s.7-1.7,1.6-1.7h7.4c.9,0,1.6.7,1.6,1.7ZM55.2,9.5c0,.9-.7,1.7-1.6,1.7h-7.4c-.9,0-1.6-.7-1.6-1.7s.7-1.7,1.6-1.7h7.4c.9,0,1.6.7,1.6,1.7Z"/>
</svg>