<?xml version="1.0" standalone="no"?>
<!DOCTYPE svg PUBLIC "-//W3C//DTD SVG 20010904//EN"
 "http://www.w3.org/TR/2001/REC-SVG-20010904/DTD/svg10.dtd">
<svg version="1.0" xmlns="http://www.w3.org/2000/svg"
 width="48" height="48" viewBox="0 0 50.000000 50.000000"
 preserveAspectRatio="xMidYMid meet">
<metadata>
Created by potrace 1.16, written by Peter Selinger 2001-2019
</metadata>
<g transform="translate(0.000000,50.000000) scale(0.100000,-0.100000)"
fill="#821" stroke="none">
<path d="M122 485 c-78 -24 -104 -72 -65 -119 17 -20 17 -20 1 -7 -17 12 -18
10 -18 -31 0 -76 63 -108 210 -108 147 0 210 32 210 108 0 41 -1 43 -17 31
-17 -13 -17 -13 0 7 22 27 22 67 -2 88 -48 43 -225 61 -319 31z"/>
<path d="M40 228 c0 -76 63 -108 210 -108 147 0 210 32 210 108 0 43 -1 44
-18 29 -71 -65 -313 -65 -384 0 -17 15 -18 14 -18 -29z"/>
<path d="M40 122 c0 -25 7 -45 18 -55 70 -63 314 -63 384 0 16 14 27 93 14 93
-3 0 -20 -9 -39 -20 -71 -42 -263 -42 -334 0 -19 11 -36 20 -39 20 -2 0 -4
-17 -4 -38z"/>
</g>
</svg>
