<?xml version="1.0" encoding="utf-8"?>
<!-- Generator: Adobe Illustrator 24.2.0, SVG Export Plug-In . SVG Version: 6.00 Build 0)  -->
<svg version="1.1" id="Layer_1" xmlns="http://www.w3.org/2000/svg" xmlns:xlink="http://www.w3.org/1999/xlink" x="0px" y="0px" width="80"
	 viewBox="0 0 1000 1000" style="enable-background:new 0 0 1000 1000;" xml:space="preserve">
<style type="text/css">
	.st0{fill-rule:evenodd;clip-rule:evenodd;fill:#F8991D;}
	.st1{fill:#010101;}
	.st2{fill:none;stroke:#010101;}
	.st3{fill-rule:evenodd;clip-rule:evenodd;fill:#010101;}
</style>
<g>
	<polygon class="st0" points="202.9,639.9 156.8,623.3 156.8,555.8 202.9,571.5 	"/>
	<polygon class="st0" points="211.4,639.9 257.5,623.3 257.5,555.8 211.4,571.5 	"/>
	<polygon class="st0" points="161.6,550.7 208.2,537.6 251.5,551.6 208.2,566.2 	"/>
	<polygon class="st0" points="148.1,545.5 102,529 102,461.4 148.1,477.1 	"/>
	<polygon class="st0" points="156.5,545.5 202.6,529 202.6,461.4 156.5,477.1 	"/>
	<polygon class="st0" points="106.7,456.4 153.4,443.2 196.6,457.2 153.4,471.9 	"/>
	<polygon class="st0" points="255.6,545.5 209.5,529 209.5,461.4 255.6,477.1 	"/>
	<polygon class="st0" points="264.1,545.5 310.2,529 310.2,461.4 264.1,477.1 	"/>
	<polygon class="st0" points="214.3,456.4 260.9,443.2 304.2,457.2 260.9,471.9 	"/>
	<polygon class="st0" points="310.5,451.1 264.4,434.6 264.4,367 310.5,382.7 	"/>
	<polygon class="st0" points="318.9,451.1 365,434.6 365,367 318.9,382.7 	"/>
	<polygon class="st0" points="269.1,362 315.8,348.8 359,362.8 315.8,377.5 	"/>
	<polygon class="st0" points="418,451.1 371.9,434.6 371.9,367 418,382.7 	"/>
	<polygon class="st0" points="426.5,451.1 472.6,434.6 472.6,367 426.5,382.7 	"/>
	<polygon class="st0" points="376.7,362 423.3,348.8 466.6,362.8 423.3,377.5 	"/>
	<polygon class="st1" points="394.6,595.9 379.1,649.7 372.4,649.7 360.3,609.7 349.3,649.7 342.4,649.7 326.3,595.9 334.6,595.9 
		346.4,636 357.5,595.9 363.7,595.9 375.8,636.1 387.8,595.9 	"/>
	<polygon class="st2" points="394.6,595.9 379.1,649.7 372.4,649.7 360.3,609.7 349.3,649.7 342.4,649.7 326.3,595.9 334.6,595.9 
		346.4,636 357.5,595.9 363.7,595.9 375.8,636.1 387.8,595.9 	"/>
	<g>
		<path class="st1" d="M437.4,633.6l7.8,1.6c-1.4,4.6-4.2,8.4-8.3,11.4c-4.1,3-9,4.5-14.5,4.5c-7.3,0-13.3-2.6-17.8-7.8
			c-4.5-5.2-6.8-11.9-6.8-20.3c0-8.6,2.4-15.5,7.1-20.8c4.7-5.3,10.6-7.9,17.8-7.9c7,0,12.7,2.4,16.9,7.3c4.3,4.9,6.5,12.1,6.6,21.8
			h-39c0,8.1,1.7,13.6,5.1,16.5c3.4,2.8,7,4.3,10.8,4.3C429.8,644.2,434.6,640.7,437.4,633.6 M437,617.2c-0.1-3-0.6-5.7-1.5-8
			c-0.9-2.3-2.5-4.3-4.7-6c-2.2-1.6-4.8-2.5-7.9-2.5c-4.1,0-7.7,1.5-10.5,4.5c-2.9,3-4.5,7-4.9,12H437z"/>
		<path class="st2" d="M437.4,633.6l7.8,1.6c-1.4,4.6-4.2,8.4-8.3,11.4c-4.1,3-9,4.5-14.5,4.5c-7.3,0-13.3-2.6-17.8-7.8
			c-4.5-5.2-6.8-11.9-6.8-20.3c0-8.6,2.4-15.5,7.1-20.8c4.7-5.3,10.6-7.9,17.8-7.9c7,0,12.7,2.4,16.9,7.3c4.3,4.9,6.5,12.1,6.6,21.8
			h-39c0,8.1,1.7,13.6,5.1,16.5c3.4,2.8,7,4.3,10.8,4.3C429.8,644.2,434.6,640.7,437.4,633.6z M437,617.2c-0.1-3-0.6-5.7-1.5-8
			c-0.9-2.3-2.5-4.3-4.7-6c-2.2-1.6-4.8-2.5-7.9-2.5c-4.1,0-7.7,1.5-10.5,4.5c-2.9,3-4.5,7-4.9,12H437z"/>
		<path class="st1" d="M461.2,649.7h-4V577h8.4v27.8c3.8-7,9.1-10.5,15.8-10.5c6.2,0,11.3,2.4,15.5,7.3c4.2,4.9,6.2,11.9,6.2,21.2
			c0,8-2,14.7-6.1,20.1c-4.1,5.4-9.4,8.1-16,8.1c-7.3,0-12.9-3.5-16.8-10.4L461.2,649.7z M465.5,628.6c0.4,5.5,2.1,9.5,5.1,12
			c3,2.5,6.2,3.7,9.5,3.7c4.3,0,7.7-1.8,10.3-5.5c2.6-3.7,3.9-8.8,3.9-15.2c0-6.9-1.3-12.4-3.8-16.3c-2.5-4-6-5.9-10.5-5.9
			c-3.5,0-6.7,1.4-9.5,4.2c-2.8,2.8-4.5,6.5-5,10.9V628.6z"/>
		<path class="st2" d="M461.2,649.7h-4V577h8.4v27.8c3.8-7,9.1-10.5,15.8-10.5c6.2,0,11.3,2.4,15.5,7.3c4.2,4.9,6.2,11.9,6.2,21.2
			c0,8-2,14.7-6.1,20.1c-4.1,5.4-9.4,8.1-16,8.1c-7.3,0-12.9-3.5-16.8-10.4L461.2,649.7z M465.5,628.6c0.4,5.5,2.1,9.5,5.1,12
			c3,2.5,6.2,3.7,9.5,3.7c4.3,0,7.7-1.8,10.3-5.5c2.6-3.7,3.9-8.8,3.9-15.2c0-6.9-1.3-12.4-3.8-16.3c-2.5-4-6-5.9-10.5-5.9
			c-3.5,0-6.7,1.4-9.5,4.2c-2.8,2.8-4.5,6.5-5,10.9V628.6z"/>
		<path class="st1" d="M524.4,635.7l8-1.7c1.8,6.8,7.4,10.1,16.8,10.1c3.5,0,6.4-0.8,8.8-2.3c2.4-1.6,3.6-3.8,3.6-6.6
			c0-4.2-3.1-6.9-9.2-8l-11.3-2.2c-4.4-0.9-8-2.5-10.6-5c-2.6-2.5-3.9-5.8-3.9-9.9c0-4.5,1.8-8.3,5.4-11.3c3.6-3,8.4-4.6,14.5-4.6
			c11.7,0,18.9,4.6,21.6,13.7l-7.7,1.6c-2.2-5.6-6.7-8.4-13.6-8.4c-3.4,0-6.2,0.7-8.4,2.1c-2.2,1.4-3.3,3.3-3.3,5.9
			c0,4,2.8,6.4,8.4,7.5l10.5,1.9c11,2,16.4,7.3,16.4,15.9c0,4.9-2,8.9-6.1,12c-4.1,3-9.5,4.6-16.3,4.6
			C535.3,651.2,527.4,646,524.4,635.7"/>
		<path class="st2" d="M524.4,635.7l8-1.7c1.8,6.8,7.4,10.1,16.8,10.1c3.5,0,6.4-0.8,8.8-2.3c2.4-1.6,3.6-3.8,3.6-6.6
			c0-4.2-3.1-6.9-9.2-8l-11.3-2.2c-4.4-0.9-8-2.5-10.6-5c-2.6-2.5-3.9-5.8-3.9-9.9c0-4.5,1.8-8.3,5.4-11.3c3.6-3,8.4-4.6,14.5-4.6
			c11.7,0,18.9,4.6,21.6,13.7l-7.7,1.6c-2.2-5.6-6.7-8.4-13.6-8.4c-3.4,0-6.2,0.7-8.4,2.1c-2.2,1.4-3.3,3.3-3.3,5.9
			c0,4,2.8,6.4,8.4,7.5l10.5,1.9c11,2,16.4,7.3,16.4,15.9c0,4.9-2,8.9-6.1,12c-4.1,3-9.5,4.6-16.3,4.6
			C535.3,651.2,527.4,646,524.4,635.7z"/>
		<path class="st1" d="M615,633.6l7.8,1.6c-1.4,4.6-4.2,8.4-8.3,11.4c-4.1,3-8.9,4.5-14.5,4.5c-7.3,0-13.3-2.6-17.8-7.8
			c-4.5-5.2-6.8-11.9-6.8-20.3c0-8.6,2.4-15.5,7.1-20.8c4.7-5.3,10.6-7.9,17.8-7.9c7,0,12.7,2.4,16.9,7.3c4.3,4.9,6.5,12.1,6.6,21.8
			h-39c0,8.1,1.7,13.6,5.1,16.5c3.4,2.8,7,4.3,10.8,4.3C607.4,644.2,612.2,640.7,615,633.6 M614.6,617.2c-0.1-3-0.6-5.7-1.5-8
			c-0.9-2.3-2.5-4.3-4.7-6c-2.2-1.6-4.8-2.5-7.9-2.5c-4.1,0-7.7,1.5-10.5,4.5c-2.9,3-4.5,7-4.9,12H614.6z"/>
		<path class="st2" d="M615,633.6l7.8,1.6c-1.4,4.6-4.2,8.4-8.3,11.4c-4.1,3-8.9,4.5-14.5,4.5c-7.3,0-13.3-2.6-17.8-7.8
			c-4.5-5.2-6.8-11.9-6.8-20.3c0-8.6,2.4-15.5,7.1-20.8c4.7-5.3,10.6-7.9,17.8-7.9c7,0,12.7,2.4,16.9,7.3c4.3,4.9,6.5,12.1,6.6,21.8
			h-39c0,8.1,1.7,13.6,5.1,16.5c3.4,2.8,7,4.3,10.8,4.3C607.4,644.2,612.2,640.7,615,633.6z M614.6,617.2c-0.1-3-0.6-5.7-1.5-8
			c-0.9-2.3-2.5-4.3-4.7-6c-2.2-1.6-4.8-2.5-7.9-2.5c-4.1,0-7.7,1.5-10.5,4.5c-2.9,3-4.5,7-4.9,12H614.6z"/>
		<path class="st1" d="M641.1,649.7h-8.4v-53.8h7.3v12.5c2.6-5.9,5.2-9.7,7.8-11.4c2.6-1.7,5.3-2.6,8-2.6c0.8,0,2,0.1,3.3,0.2v8
			h-1.7c-4.6,0-8.4,1.7-11.5,5.1c-3,3.4-4.7,7.9-4.9,13.5V649.7z"/>
		<path class="st2" d="M641.1,649.7h-8.4v-53.8h7.3v12.5c2.6-5.9,5.2-9.7,7.8-11.4c2.6-1.7,5.3-2.6,8-2.6c0.8,0,2,0.1,3.3,0.2v8
			h-1.7c-4.6,0-8.4,1.7-11.5,5.1c-3,3.4-4.7,7.9-4.9,13.5V649.7z"/>
		<polygon class="st1" points="711.2,595.9 692.7,649.7 684,649.7 664.8,595.9 674.1,595.9 689,639.6 703.8,595.9 		"/>
		<polygon class="st2" points="711.2,595.9 692.7,649.7 684,649.7 664.8,595.9 674.1,595.9 689,639.6 703.8,595.9 		"/>
		<path class="st1" d="M726.9,586.3h-9V577h9V586.3z M726.7,649.7h-8.4v-53.8h8.4V649.7z"/>
		<path class="st2" d="M726.9,586.3h-9V577h9V586.3z M726.7,649.7h-8.4v-53.8h8.4V649.7z"/>
		<path class="st1" d="M770.5,630.8l7.5,1.3c-1.1,5.9-3.4,10.6-7.1,14c-3.7,3.4-8.2,5-13.7,5c-7.4,0-13.1-2.7-16.9-8.2
			c-3.9-5.5-5.8-12.2-5.8-20c0-8.2,2-15,6.1-20.4c4.1-5.4,9.7-8.1,16.7-8.1c5.9,0,10.5,1.8,14.1,5.3c3.5,3.5,5.7,8,6.6,13.6
			l-7.5,1.4c-1.4-8.9-5.7-13.3-12.9-13.3c-4.6,0-8.2,2-10.6,5.9c-2.5,3.9-3.7,9-3.7,15.2c0,6.9,1.2,12.2,3.7,16
			c2.5,3.8,5.9,5.7,10.4,5.7C764.3,644.2,768.6,639.7,770.5,630.8"/>
		<path class="st2" d="M770.5,630.8l7.5,1.3c-1.1,5.9-3.4,10.6-7.1,14c-3.7,3.4-8.2,5-13.7,5c-7.4,0-13.1-2.7-16.9-8.2
			c-3.9-5.5-5.8-12.2-5.8-20c0-8.2,2-15,6.1-20.4c4.1-5.4,9.7-8.1,16.7-8.1c5.9,0,10.5,1.8,14.1,5.3c3.5,3.5,5.7,8,6.6,13.6
			l-7.5,1.4c-1.4-8.9-5.7-13.3-12.9-13.3c-4.6,0-8.2,2-10.6,5.9c-2.5,3.9-3.7,9-3.7,15.2c0,6.9,1.2,12.2,3.7,16
			c2.5,3.8,5.9,5.7,10.4,5.7C764.3,644.2,768.6,639.7,770.5,630.8z"/>
		<path class="st1" d="M825.3,633.6l7.8,1.6c-1.4,4.6-4.2,8.4-8.3,11.4c-4.1,3-8.9,4.5-14.5,4.5c-7.3,0-13.3-2.6-17.8-7.8
			c-4.5-5.2-6.8-11.9-6.8-20.3c0-8.6,2.4-15.5,7.1-20.8c4.7-5.3,10.6-7.9,17.8-7.9c7,0,12.7,2.4,16.9,7.3c4.3,4.9,6.5,12.1,6.6,21.8
			h-39c0,8.1,1.7,13.6,5.1,16.5c3.4,2.8,7,4.3,10.8,4.3C817.7,644.2,822.5,640.7,825.3,633.6 M824.8,617.2c-0.1-3-0.6-5.7-1.5-8
			c-0.9-2.3-2.5-4.3-4.7-6c-2.2-1.6-4.8-2.5-7.9-2.5c-4.1,0-7.7,1.5-10.5,4.5c-2.9,3-4.5,7-4.9,12H824.8z"/>
		<path class="st2" d="M825.3,633.6l7.8,1.6c-1.4,4.6-4.2,8.4-8.3,11.4c-4.1,3-8.9,4.5-14.5,4.5c-7.3,0-13.3-2.6-17.8-7.8
			c-4.5-5.2-6.8-11.9-6.8-20.3c0-8.6,2.4-15.5,7.1-20.8c4.7-5.3,10.6-7.9,17.8-7.9c7,0,12.7,2.4,16.9,7.3c4.3,4.9,6.5,12.1,6.6,21.8
			h-39c0,8.1,1.7,13.6,5.1,16.5c3.4,2.8,7,4.3,10.8,4.3C817.7,644.2,822.5,640.7,825.3,633.6z M824.8,617.2c-0.1-3-0.6-5.7-1.5-8
			c-0.9-2.3-2.5-4.3-4.7-6c-2.2-1.6-4.8-2.5-7.9-2.5c-4.1,0-7.7,1.5-10.5,4.5c-2.9,3-4.5,7-4.9,12H824.8z"/>
		<path class="st1" d="M838.7,635.7l8-1.7c1.8,6.8,7.4,10.1,16.8,10.1c3.5,0,6.4-0.8,8.8-2.3c2.4-1.6,3.6-3.8,3.6-6.6
			c0-4.2-3.1-6.9-9.2-8l-11.3-2.2c-4.4-0.9-8-2.5-10.6-5c-2.6-2.5-3.9-5.8-3.9-9.9c0-4.5,1.8-8.3,5.4-11.3c3.6-3,8.4-4.6,14.5-4.6
			c11.7,0,18.9,4.6,21.6,13.7l-7.7,1.6c-2.2-5.6-6.7-8.4-13.6-8.4c-3.4,0-6.2,0.7-8.4,2.1c-2.2,1.4-3.3,3.3-3.3,5.9
			c0,4,2.8,6.4,8.4,7.5l10.5,1.9c11,2,16.4,7.3,16.4,15.9c0,4.9-2,8.9-6.1,12c-4.1,3-9.5,4.6-16.3,4.6
			C849.6,651.2,841.7,646,838.7,635.7"/>
		<path class="st2" d="M838.7,635.7l8-1.7c1.8,6.8,7.4,10.1,16.8,10.1c3.5,0,6.4-0.8,8.8-2.3c2.4-1.6,3.6-3.8,3.6-6.6
			c0-4.2-3.1-6.9-9.2-8l-11.3-2.2c-4.4-0.9-8-2.5-10.6-5c-2.6-2.5-3.9-5.8-3.9-9.9c0-4.5,1.8-8.3,5.4-11.3c3.6-3,8.4-4.6,14.5-4.6
			c11.7,0,18.9,4.6,21.6,13.7l-7.7,1.6c-2.2-5.6-6.7-8.4-13.6-8.4c-3.4,0-6.2,0.7-8.4,2.1c-2.2,1.4-3.3,3.3-3.3,5.9
			c0,4,2.8,6.4,8.4,7.5l10.5,1.9c11,2,16.4,7.3,16.4,15.9c0,4.9-2,8.9-6.1,12c-4.1,3-9.5,4.6-16.3,4.6
			C849.6,651.2,841.7,646,838.7,635.7z"/>
		<path class="st3" d="M649.8,480.9V468c0-2,1.5-3.3,3.3-3.3l57.9,0c1.9,0,3.3,1.3,3.3,3.3l0,11.1c0,1.9-1.6,4.3-4.4,8.1L680,530
			c11.1-0.3,22.9,1.4,33,7.1c2.3,1.3,2.9,3.2,3.1,5v13.8c0,1.9-2.1,4.1-4.3,3c-17.8-9.3-41.5-10.4-61.2,0.1c-2,1.1-4.1-1.1-4.1-3
			v-13.1c0-2.1,0-5.7,2.2-8.9l34.8-49.9l-30.3,0C651.3,484.2,649.8,482.9,649.8,480.9"/>
		<path class="st3" d="M442.6,561.6H425c-1.7-0.1-3-1.4-3.2-3l0-90.4c0-1.8,1.5-3.3,3.4-3.3l16.4,0c1.7,0.1,3.1,1.4,3.2,3v11.8h0.3
			c4.3-11.4,12.3-16.7,23.2-16.7c11,0,17.9,5.3,22.9,16.7c4.3-11.4,14-16.7,24.3-16.7c7.4,0,15.5,3,20.4,9.9
			c5.6,7.6,4.4,18.6,4.4,28.4l0,57.1c0,1.8-1.5,3.3-3.4,3.3h-17.6c-1.8-0.1-3.2-1.5-3.2-3.2l0-47.9c0-3.8,0.3-13.3-0.5-16.9
			c-1.3-6.1-5.3-7.8-10.4-7.8c-4.3,0-8.7,2.9-10.5,7.4c-1.8,4.6-1.6,12.2-1.6,17.3v47.9c0,1.8-1.5,3.3-3.4,3.3h-17.6
			c-1.8-0.1-3.2-1.5-3.2-3.2l0-47.9c0-10.1,1.6-24.9-10.9-24.9c-12.7,0-12.2,14.5-12.2,24.9l0,47.9
			C446,560.2,444.5,561.6,442.6,561.6"/>
		<path class="st3" d="M756.9,463.1c25.9,0,40,22.5,40,51c0,27.6-15.5,49.5-40,49.5c-25.4,0-39.3-22.5-39.3-50.4
			C717.6,484.9,731.6,463.1,756.9,463.1 M757.1,483.8c-12.9,0-13.7,17.7-13.7,28.7c0,11-0.2,32.3,13.5,32.3
			c13.5,0,14.2-16.7,14.2-28.3c0-7.6-0.3-16.7-2.6-24C766.5,486.3,762.6,483.8,757.1,483.8"/>
		<path class="st3" d="M834.4,561.6h-17.6c-1.8-0.1-3.2-1.5-3.2-3.2l0-90.5c0.1-1.7,1.6-3,3.4-3l16.3,0c1.5,0.1,2.8,1.1,3.1,2.5
			v13.8h0.3c4.9-12.4,11.8-18.3,24-18.3c7.9,0,15.6,2.9,20.6,10.7c4.6,7.2,4.6,19.4,4.6,28.2v56.9c-0.2,1.6-1.6,2.8-3.4,2.8H865
			c-1.6-0.1-2.9-1.3-3.1-2.8v-49.1c0-9.9,1.2-24.4-11-24.4c-4.3,0-8.2,2.9-10.2,7.2c-2.5,5.5-2.8,11-2.8,17.1v48.7
			C837.8,560.2,836.3,561.6,834.4,561.6"/>
		<path class="st3" d="M605.7,518.4c0,6.9,0.2,12.6-3.3,18.7c-2.8,5-7.3,8-12.2,8c-6.8,0-10.7-5.2-10.7-12.8
			c0-15,13.5-17.7,26.2-17.7V518.4z M623.4,561.4c-1.2,1-2.8,1.1-4.2,0.4c-5.9-4.9-6.9-7.1-10.1-11.7c-9.7,9.9-16.5,12.8-29,12.8
			c-14.8,0-26.4-9.2-26.4-27.5c0-14.3,7.7-24,18.8-28.8c9.6-4.2,22.9-5,33.1-6.1v-2.3c0-4.2,0.3-9.2-2.1-12.8
			c-2.1-3.2-6.3-4.6-9.9-4.6c-6.7,0-12.7,3.4-14.2,10.6c-0.3,1.6-1.5,3.2-3.1,3.2l-17.1-1.8c-1.4-0.3-3-1.5-2.6-3.7
			c3.9-20.7,22.6-27,39.4-27c8.6,0,19.8,2.3,26.5,8.8c8.6,8,7.7,18.7,7.7,30.3v27.4c0,8.3,3.4,11.9,6.7,16.3
			c1.1,1.6,1.4,3.5-0.1,4.7C633.4,552.7,627,558.3,623.4,561.4L623.4,561.4z"/>
		<path class="st3" d="M376.7,518.4c0,6.9,0.2,12.6-3.3,18.7c-2.8,5-7.2,8-12.2,8c-6.8,0-10.7-5.2-10.7-12.8
			c0-15,13.5-17.7,26.2-17.7V518.4z M394.5,561.4c-1.2,1-2.8,1.1-4.2,0.4c-5.9-4.9-6.9-7.1-10.1-11.7c-9.7,9.9-16.5,12.8-29,12.8
			c-14.8,0-26.4-9.2-26.4-27.5c0-14.3,7.7-24,18.8-28.8c9.6-4.2,22.9-5,33.1-6.1v-2.3c0-4.2,0.3-9.2-2.1-12.8
			c-2.1-3.2-6.3-4.6-9.9-4.6c-6.7,0-12.7,3.4-14.2,10.6c-0.3,1.6-1.5,3.2-3.1,3.2l-17.1-1.8c-1.4-0.3-3-1.5-2.6-3.7
			c3.9-20.7,22.6-27,39.4-27c8.6,0,19.8,2.3,26.5,8.8c8.6,8,7.7,18.7,7.7,30.3v27.4c0,8.3,3.4,11.9,6.7,16.3
			c1.1,1.6,1.4,3.5-0.1,4.7C404.4,552.7,398,558.3,394.5,561.4L394.5,561.4z"/>
	</g>
</g>
</svg>
