<?xml version="1.0" encoding="utf-8"?>
<!-- Generator: Adobe Illustrator 23.0.1, SVG Export Plug-In . SVG Version: 6.00 Build 0)  -->
<svg version="1.1" id="Layer_1" xmlns="http://www.w3.org/2000/svg" xmlns:xlink="http://www.w3.org/1999/xlink" x="0px" y="0px" width="60" height="60"
	 viewBox="0 0 1000 1000" style="enable-background:new 0 0 1000 1000;" xml:space="preserve">
<style type="text/css">
	.st0{fill:#1B1918;}
	.st1{fill:#FFFFFF;}
</style>
<g>
	<path class="st0" d="M951.4,500c0,249.3-202.1,451.4-451.4,451.4S48.6,749.3,48.6,500S250.7,48.6,500,48.6S951.4,250.7,951.4,500"
		/>
	<path class="st1" d="M507.6,324.3l116.8,288.3L448,473.7L507.6,324.3z M715,679.1L535.4,246.6c-5.1-12.5-15.5-19.1-27.8-19.1
		c-12.3,0-23.5,6.6-28.6,19.1L281.6,721h67.5l78.1-195.6l233,188.2c9.4,7.6,16.1,11,24.9,11c17.6,0,33-13.2,33-32.2
		C718.1,689.3,717,684.4,715,679.1L715,679.1z"/>
</g>
</svg>
