<?xml version="1.0" encoding="UTF-8"?>
<svg id="Layer_1" data-name="Layer 1" xmlns="http://www.w3.org/2000/svg" version="1.1" viewBox="0 0 62 62">
  <defs>
    <style>
      .cls-1 {
        fill: #00a0f1;
        stroke-width: 0px;
      }
    </style>
  </defs>
  <path class="cls-1" d="M36.1,24.6l-7.5,14.7c-.3.6-.9.9-1.5.9s-.5,0-.7-.2c-.8-.4-1.1-1.4-.7-2.2l7.5-14.7c.4-.8,1.4-1.1,2.2-.7.8.4,1.1,1.4.7,2.2ZM40.7,27.5c-.6-.6-1.7-.6-2.3,0-.6.6-.6,1.7,0,2.3l3.6,3.6-3.6,3.6c-.6.6-.6,1.7,0,2.3.3.3.7.5,1.2.5s.8-.2,1.2-.5l4.7-4.7c.3-.3.5-.7.5-1.2s-.2-.8-.5-1.2l-4.7-4.7ZM23.6,22.2c-.6-.6-1.7-.6-2.3,0l-4.7,4.7c-.3.3-.5.7-.5,1.2s.2.8.5,1.2l4.7,4.7c.3.3.7.5,1.2.5s.8-.2,1.2-.5c.6-.6.6-1.7,0-2.3l-3.6-3.6,3.6-3.6c.6-.6.6-1.7,0-2.3ZM51.4,32.6v9.5h9c.9,0,1.6.7,1.6,1.6s-.7,1.6-1.6,1.6h-9.2c-.6,2.9-2.9,5.1-5.8,5.8v9.2c0,.9-.7,1.6-1.6,1.6s-1.6-.7-1.6-1.6v-9h-9.5v9c0,.9-.7,1.6-1.6,1.6s-1.6-.7-1.6-1.6v-9h-9.5v9c0,.9-.7,1.6-1.6,1.6s-1.6-.7-1.6-1.6v-9.2c-2.9-.6-5.1-2.9-5.8-5.8H1.6c-.9,0-1.6-.7-1.6-1.6s.7-1.6,1.6-1.6h9v-9.5H1.6c-.9,0-1.6-.7-1.6-1.6s.7-1.6,1.6-1.6h9v-9.5H1.6c-.9,0-1.6-.7-1.6-1.6s.7-1.6,1.6-1.6h9.2c.6-2.9,2.9-5.1,5.8-5.8V1.6c0-.9.7-1.6,1.6-1.6s1.6.7,1.6,1.6v9h9.5V1.6c0-.9.7-1.6,1.6-1.6s1.6.7,1.6,1.6v9h9.5V1.6c0-.9.7-1.6,1.6-1.6s1.6.7,1.6,1.6v9.2c2.9.6,5.1,2.9,5.8,5.8h9.2c.9,0,1.6.7,1.6,1.6s-.7,1.6-1.6,1.6h-9v9.5h9c.9,0,1.6.7,1.6,1.6s-.7,1.6-1.6,1.6h-9ZM48.1,43.8v-25.6c0-2.4-1.9-4.3-4.3-4.3h-25.6c-2.4,0-4.3,1.9-4.3,4.3v25.6c0,2.4,1.9,4.3,4.3,4.3h25.6c2.4,0,4.3-1.9,4.3-4.3Z"/>
</svg>