<?xml version="1.0" encoding="UTF-8"?>
<svg id="Layer_2" data-name="Layer 2" xmlns="http://www.w3.org/2000/svg" viewBox="0 0 1159.9 254.2">
  <defs>
    <style>
      .cls-1 {
        fill: #c5e7e8;
      }

      .cls-1, .cls-2, .cls-3, .cls-4, .cls-5, .cls-6, .cls-7, .cls-8, .cls-9, .cls-10, .cls-11, .cls-12, .cls-13, .cls-14, .cls-15 {
        stroke-width: 0px;
      }

      .cls-2 {
        fill: #9ad6d6;
      }

      .cls-3 {
        fill: #ceeaeb;
      }

      .cls-4 {
        fill: #f4f8f8;
      }

      .cls-5 {
        fill: #78cbcb;
      }

      .cls-6 {
        fill: #bee3e3;
      }

      .cls-7 {
        fill: #e5f4f4;
      }

      .cls-8 {
        fill: #d8eded;
      }

      .cls-9 {
        fill: #e0f1f1;
      }

      .cls-10 {
        fill: #91d4d4;
      }

      .cls-11 {
        fill: #b9e1e2;
      }

      .cls-12 {
        fill: #a3d9d9;
      }

      .cls-13 {
        fill: #ecf5f5;
      }

      .cls-14 {
        fill: #88d0d0;
      }

      .cls-15 {
        fill: #b1dfe0;
      }
    </style>
  </defs>
  <g id="Layer_1-2" data-name="Layer 1">
    <g>
      <path class="cls-7" d="M241.87,111.04c-5.1,10.89-12.56,20.51-17.43,31.46-3.19,7.18-8.08,8.29-15.01,7.77-8.09-.61-16.25-.24-24.37-.3.01-38.94.03-77.88.04-116.82,2.79.14,4.71,2.17,6.73,3.59,3.6,2.55,5.47.84,7.12-2.05,5.2-9.06,10.61-18,15.37-27.29,2.74-5.35,5.9-8.17,12.29-7.23,4.72.7,9.62.24,14.44.29,0,34.57,0,69.15.02,103.72,0,2.3-.36,4.67.8,6.85Z"/>
      <path class="cls-4" d="M140.06,115.01c-14.4-8.17-28.83-16.31-43.2-24.53-12.3-7.03-24.55-14.15-36.81-21.25-16.3-9.44-32.58-18.92-48.88-28.36-2.79-1.61-5.59-3.23-8.48-4.63C.69,35.27,0,34.04,0,31.76c.03-7.49-.09-7.49,7.59-7.49,42.49,0,84.99,0,127.48.02,1.66,0,3.32.1,4.99.16v90.56Z"/>
      <path class="cls-13" d="M140.06,115.01V24.45c9.44-.06,18.91-.6,28.31,0,6.51.42,11.43,5.23,16.73,8.7-.01,38.94-.03,77.88-.04,116.82-5.66.05-11.32.22-16.97.11-2.49-.05-3.9,1.01-5.04,3.06-4.07,7.31-8.3,14.53-12.32,21.86-.92,1.67-1.95,2.52-3.79,2.08-7.12-1.7-10.08,2.88-12.93,8.13-3.77,6.93-8.54,13.39-11.67,20.57-2.67,6.13-6.67,7.09-12.26,6.1,0-4.07.02-8.14,0-12.21-.02-2.73.48-5.62-2.11-7.65,14.66-25.51,29.33-51.03,44.28-77.04h-12.17Z"/>
      <path class="cls-5" d="M1014.94,86.1c3.34-4.6,6.81-9.11,9.96-13.83.96-1.45,1.85-2.06,3.5-2.06,43.63.09,87.26.15,130.88.23.15,0,.3.12.62.26-1.31,5.79-2.99,11.57-3.77,17.47-.38,2.85-1.41,3.07-3.65,3.06-12.66-.06-25.32.03-37.97-.07-3.33-.03-4.92.27-5.76,4.54-4.15,21.11-9.09,42.07-13.62,63.11-4.12,19.15-8.18,38.33-11.98,57.55-.51,2.57-1.43,2.76-3.45,2.73-6-.07-12.01-.3-17.98.07-3.86.25-4.23-1.73-3.68-4.42,2.02-9.83,4.24-19.62,6.32-29.44,3.9-18.37,7.75-36.75,11.63-55.13,2.44-11.56,4.69-23.17,7.45-34.66.81-3.36.59-4.4-3.03-4.36-12.32.14-24.65.14-36.97-.02-2.47-.03-4.14.87-5.49,2.63-7,9.15-13.94,18.34-20.9,27.51-2.11-5.42-.58-11.08-1.05-16.6-.52-6.18,1.13-12.49-1.05-18.58Z"/>
      <path class="cls-2" d="M849,217.9c-22.63.06-45.26.04-67.89.25-3.45.03-3.52-1.76-3.03-3.98,4.22-19.24,8.67-38.43,12.76-57.7,5.2-24.5,10.12-49.07,15.18-73.6.65-3.17,1.85-6.18,2.11-9.48.16-1.99,1.3-3.29,3.94-3.24,12.31.23,24.62.19,36.93.24v19.65c-4.98.05-9.96.23-14.94.11-2.59-.06-3.75.26-4.37,3.41-2.57,12.96-5.72,25.8-8.64,38.69-.59,2.61.81,2.96,3.04,2.94,8.3-.05,16.61.07,24.91.12v20.64c-9.79.06-19.58.2-29.36.1-2.52-.03-4.09.61-4.59,3.13-2.53,12.89-5.04,25.78-7.63,39.05h41.58v19.65Z"/>
      <path class="cls-14" d="M1014.94,86.1c2.18,6.09.53,12.4,1.05,18.58.46,5.53-1.06,11.18,1.05,16.6-11.66,15.43-23.58,30.67-34.82,46.4-3.21,4.49-2.94,10.78-4.15,16.26-2.3,10.44-4.08,20.98-6.25,31.45-.44,2.1-1.04,4.09-4.45,3.81-5.95-.5-11.98-.3-17.97-.07-3,.12-3.93-1-3.37-3.7,3.1-14.72,6.19-29.44,9.42-44.13.51-2.33.56-4.31-.23-6.65-10.17-30.1-20.13-60.28-30.37-90.36-1.19-3.49-.78-4.24,2.84-4.14,7.49.21,14.99.2,22.47,0,2.54-.07,3.62.59,4.41,3.1,6.85,21.84,13.86,43.63,21.07,66.2,13.22-17.95,26.26-35.66,39.3-53.36Z"/>
      <path class="cls-15" d="M652.71,70.23c-8.87,41.62-17.68,82.99-26.5,124.43,1.71.86,3.55.41,5.32.41,20.65.04,41.31.14,61.96-.05,4.62-.04,5.25,1.26,3.92,5.44-1.56,4.9-2.6,10.03-3.27,15.14-.32,2.46-1.36,2.48-3.15,2.48-30.65-.02-61.3-.05-91.94.05-2.87,0-3.42-.95-2.88-3.48,6.31-29.71,12.42-59.46,18.93-89.12,3.78-17.2,7.67-34.37,11.09-51.64.41-2.08,1.04-4.02,4.44-3.8,7.29.47,14.63.14,22.08.14Z"/>
      <path class="cls-10" d="M849,217.9v-19.65c1.39-.39,2.76-1.01,4.18-1.13,10.31-.9,17.39-6.1,21.05-15.75,3.59-9.49,2.71-17.74-8.45-22.93-5.37-2.49-11.11-2.2-16.78-2.48v-20.64c5.35-.48,10.84.49,16.01-1.67,11.19-4.68,16.44-13.68,17.94-25.16,1.21-9.28-2.58-16.28-12.78-17.57-7.11-.9-14.15.02-21.17-.89v-19.65c10.65-.06,21.37-.94,31.92.04,13.2,1.23,24.06,6.22,27.3,20.81,3.06,13.82.16,27.26-9.36,38.49-5.23,6.18-11.58,10.94-19.68,13.53,14.2,3.29,21.13,12.82,22.62,26.19,1.06,9.48-2.41,18.36-7.87,26.03-9.05,12.72-21.81,19.46-37.19,21.65-2.59.37-5.08,1.28-7.75.75Z"/>
      <path class="cls-8" d="M353.04,95.04c-21.2,10.92-30.75,29.62-35.04,51.97-1.73,9.03-2.51,17.94.03,26.93,4.07,14.4,13.24,21.31,28.71,23.09,9,1.04,17.8-.6,26.29-3.76,1.78,7.48.73,15.09,1,22.64-4.22,2.64-9.19,3.21-13.83,3.92-14.85,2.27-29.56,1.78-43.32-5.37-14.12-7.34-22.46-19.05-24.76-34.61-4.33-29.25,3.64-55.68,20.43-79.44,10-14.14,24.06-23.41,40.48-29.01v23.64Z"/>
      <path class="cls-1" d="M497.03,220.9c-26.89-.11-51.73-17.31-56.01-45.94-3.86-25.8,2.89-48.69,18.2-69.56,10.78-14.7,24.97-24.73,41.34-32.07.4-.18.98.04,1.47.07,2.08,7.56.49,15.29,1.04,22.93-2,1.29-3.98,2.62-6.01,3.87-11.89,7.27-20.15,17.56-25.78,30.22-2.92,6.56-4.54,13.35-5.59,20.4-1.87,12.55,1.06,23.68,9.06,33.55,5.81,7.17,13.94,10.06,22.32,12.61l-.05,23.93Z"/>
      <path class="cls-12" d="M776.93,70.23c-6.67,30.45-13.37,60.58-19.84,90.76-3.9,18.19-7.42,36.45-11.1,54.69-.48,2.37-1.55,3.57-4.31,3.46-6.15-.23-12.33-.27-18.48,0-3.35.15-3.63-1.57-3.13-3.9,4.14-19.11,8.45-38.18,12.53-57.3,4.25-19.93,8.26-39.9,12.43-59.85,1.72-8.23,3.55-16.43,5.35-24.64.49-2.24,1.46-3.43,4.23-3.33,7.31.27,14.64.09,22.32.09Z"/>
      <path class="cls-9" d="M241.87,111.04c-1.17-2.18-.8-4.55-.8-6.85-.02-34.57-.02-69.15-.02-103.72,17.33,0,34.66,0,51.99,0,.54,6.63-1.15,13.38,1.05,19.92-3.74,8.93-9.34,16.83-14.02,25.24-7.81,14.05-15.88,27.97-24.1,41.79-4.69,7.88-8.61,16.22-14.1,23.61Z"/>
      <path class="cls-11" d="M545.03,68.4c12.21,2.21,23.24,6.98,31.75,16.19,8.07,8.74,12.8,19.09,14.34,31.11,3.41,26.55-5.17,49.56-20.76,70.23-4.66,6.18-10.28,12.09-17.23,16.2-2.4-6.72-.45-13.67-1.13-20.47-.25-2.54.99-5.31-1.09-7.59.07-.49-.04-1.13.23-1.45,6.88-8.03,11.17-17.42,13.39-27.59,4.34-19.86,1.13-39.64-19.54-50.71.01-8.64.02-17.28.04-25.92Z"/>
      <path class="cls-3" d="M353.04,95.04v-23.64c18.26-5.59,36.59-6.29,54.4,1.12,14.42,6,22.31,17.51,24.69,32.99.66,4.27.86,8.47.9,12.74.03,3.22-.85,5.2-4.77,5-5.64-.29-11.32-.21-16.97-.01-2.65.09-3.13-.77-3.34-3.32-1.37-17.04-10.69-28.02-30.1-28.77-8.6-.33-16.77,1.11-24.81,3.9Z"/>
      <path class="cls-6" d="M550.91,174.08c2.08,2.28.84,5.05,1.09,7.59.68,6.8-1.27,13.76,1.13,20.47-10.21,8.79-22.15,14.07-35.21,16.88-6.86,1.48-13.8,2.79-20.9,1.88l.05-23.93c12.46,1.12,24.1-1.47,35.08-7.42,7.29-3.95,12.71-10.07,18.75-15.47Z"/>
      <path class="cls-3" d="M374.04,215.9c-.27-7.55.78-15.16-1-22.64,10.31-5.79,18.56-13.62,24.03-24.21.94-1.82,2.22-3.02,4.59-2.97,6.97.13,13.94.05,21.33.05-2.86,9.63-7.97,17.63-13.76,25.31-6.49,8.6-15.05,14.71-24.2,20.02-3.38,1.96-7.06,3.64-10.99,4.45Z"/>
      <path class="cls-6" d="M545.03,68.4c-.01,8.64-.02,17.28-.04,25.92-6.28-2.38-12.74-3.2-19.49-3.25-8.01-.06-15.11,2.83-22.42,5.24-.56-7.63,1.03-15.36-1.04-22.93,5.59-3.18,11.86-4,18.02-5.16,8.33-1.56,16.66-1.29,24.97.16Z"/>
      <path class="cls-4" d="M107.96,192.05c2.59,2.03,2.09,4.92,2.11,7.65.03,4.07,0,8.14,0,12.21-4.31,1.33-4.91,5.71-6.81,8.81-5.85,9.57-11.21,19.44-16.63,29.27-1.79,3.24-4.16,4.66-7.9,4.09-1.95-.3-3.98-.05-6.83-.05,12.18-20.94,24.12-41.46,36.05-61.98Z"/>
      <path class="cls-8" d="M294.1,20.39c-2.2-6.54-.51-13.29-1.05-19.92,18.33,0,36.66,0,54.99,0,0,3.22,0,6.44,0,9.66-13.98.06-27.97.41-41.93,0-4.79-.14-7.15,1.73-8.89,5.54-.79,1.73-1.14,3.76-3.12,4.71Z"/>
      <path class="cls-3" d="M348.04,10.13c0-3.22,0-6.44,0-9.66,12.99-.05,25.98.02,38.96-.23,4.62-.09,2.94,3.06,2.94,5.06,0,2.01,1.68,5.15-2.94,5.06-12.98-.25-25.97-.18-38.96-.23Z"/>
    </g>
  </g>
</svg>