<?xml version="1.0" encoding="UTF-8"?>
<svg id="Layer_1" data-name="Layer 1" xmlns="http://www.w3.org/2000/svg" version="1.1" viewBox="0 0 58 56">
  <defs>
    <style>
      .cls-1 {
        fill: #00a0f1;
        stroke-width: 0px;
      }
    </style>
  </defs>
  <path class="cls-1" d="M52.2.9H5.8C2.7.9.2,3.4.2,6.4v31.1c0,3.1,2.5,5.5,5.5,5.5h13.1l-2,10.2c0,.4,0,.9.3,1.3.3.3.7.6,1.2.6h21.4c.8,0,1.5-.7,1.5-1.5s0-.3,0-.4l-2-10.1h13.1c3.1,0,5.5-2.5,5.5-5.5V6.4c0-3.1-2.5-5.5-5.5-5.5ZM37.8,52.1h-17.7l1.8-9h14.1l1.8,9ZM54.7,37.5c0,1.4-1.1,2.5-2.5,2.5H5.8c-1.4,0-2.5-1.1-2.5-2.5V6.4c0-1.4,1.1-2.5,2.5-2.5h46.4c1.4,0,2.5,1.1,2.5,2.5v31.1ZM49.7,7.7H8.3c-.8,0-1.5.7-1.5,1.5v20.6c0,.8.7,1.5,1.5,1.5h41.4c.8,0,1.5-.7,1.5-1.5V9.2c0-.8-.7-1.5-1.5-1.5ZM48.2,28.4H9.8V10.7h38.4v17.6ZM33.4,35.1c0,.8-.7,1.5-1.5,1.5h-5.8c-.8,0-1.5-.7-1.5-1.5s.7-1.5,1.5-1.5h5.8c.8,0,1.5.7,1.5,1.5ZM47.8,35.1c0,.8-.7,1.5-1.5,1.5h-5.8c-.8,0-1.5-.7-1.5-1.5s.7-1.5,1.5-1.5h5.8c.8,0,1.5.7,1.5,1.5Z"/>
</svg>