<?xml version="1.0" encoding="UTF-8"?>
<svg id="Layer_1" data-name="Layer 1" xmlns="http://www.w3.org/2000/svg" version="1.1" viewBox="0 0 62 62">
  <defs>
    <style>
      .cls-1 {
        fill: #00a0f1;
        stroke-width: 0px;
      }
    </style>
  </defs>
  <path class="cls-1" d="M55.7,0H6.3C2.8,0,0,2.8,0,6.3v49.5c0,3.5,2.8,6.3,6.3,6.3h49.5c3.5,0,6.3-2.8,6.3-6.3V6.3c0-3.5-2.8-6.3-6.3-6.3ZM58.7,55.7c0,1.7-1.4,3-3,3H6.3c-1.7,0-3-1.4-3-3V17h50.5c.9,0,1.6-.7,1.6-1.6s-.7-1.6-1.6-1.6H3.3v-7.4c0-1.7,1.4-3,3-3h49.5c1.7,0,3,1.4,3,3v49.5ZM17.3,9.3c0,.9-.7,1.6-1.6,1.6h-7.3c-.9,0-1.6-.7-1.6-1.6s.7-1.6,1.6-1.6h7.3c.9,0,1.6.7,1.6,1.6ZM32.6,9.3c0,.9-.7,1.6-1.6,1.6h-7.3c-.9,0-1.6-.7-1.6-1.6s.7-1.6,1.6-1.6h7.3c.9,0,1.6.7,1.6,1.6ZM46.3,35.4h-7.8c0-.8-.2-1.5-.4-2.3h2.6c.6,0,1.2-.4,1.5-.9l4.1-8.3c.4-.8,0-1.8-.7-2.2-.8-.4-1.8,0-2.2.7l-3.7,7.4h-2.8c-1.4-2.4-3.4-3.9-5.8-3.9s-4.4,1.5-5.8,3.9h-2.8l-3.7-7.4c-.4-.8-1.4-1.1-2.2-.7-.8.4-1.1,1.4-.7,2.2l4.1,8.3c.3.6.8.9,1.5.9h2.6c-.2.7-.3,1.5-.4,2.3h-7.8c-.9,0-1.6.7-1.6,1.6s.7,1.6,1.6,1.6h7.8c0,.8.2,1.5.4,2.3h-2.6c-.6,0-1.2.4-1.5.9l-4.1,8.3c-.4.8,0,1.8.7,2.2.2.1.5.2.7.2.6,0,1.2-.3,1.5-.9l3.7-7.4h2.8c1.4,2.4,3.4,3.9,5.8,3.9s4.4-1.5,5.8-3.9h2.8l3.7,7.4c.3.6.9.9,1.5.9.2,0,.5,0,.7-.2.8-.4,1.1-1.4.7-2.2l-4.1-8.3c-.3-.6-.8-.9-1.5-.9h-2.6c.2-.7.3-1.5.4-2.3h7.8c.9,0,1.6-.7,1.6-1.6s-.7-1.6-1.6-1.6ZM31,44.8c-2,0-4.3-3.2-4.3-7.8s2.2-7.8,4.3-7.8,4.3,3.2,4.3,7.8c0,4.6-2.2,7.8-4.3,7.8Z"/>
</svg>