<?xml version="1.0" encoding="UTF-8"?>
<svg id="Layer_1" data-name="Layer 1" xmlns="http://www.w3.org/2000/svg" version="1.1" viewBox="0 0 41 62">
  <defs>
    <style>
      .cls-1 {
        fill: #00a0f1;
        stroke-width: 0px;
      }
    </style>
  </defs>
  <path class="cls-1" d="M15.8,36.1l6.1-11.2c.4-.8,1.5-1.1,2.4-.7.9.4,1.2,1.4.8,2.2l-6.1,11.2c-.3.6-.9.9-1.6.9s-.5,0-.8-.2c-.9-.4-1.2-1.4-.8-2.2ZM28.8,28.1c-.7-.6-1.8-.6-2.5,0-.7.6-.7,1.7,0,2.3l2.6,2.4-2.6,2.4c-.7.6-.7,1.7,0,2.3.3.3.8.5,1.3.5s.9-.2,1.3-.5l3.9-3.6c.7-.6.7-1.7,0-2.3l-3.9-3.6ZM14.7,31.2l-2.6-2.4,2.6-2.4c.7-.6.7-1.7,0-2.3-.7-.6-1.8-.6-2.5,0l-3.9,3.6c-.7.6-.7,1.7,0,2.3l3.9,3.6c.3.3.8.5,1.3.5s.9-.2,1.3-.5c.7-.6.7-1.7,0-2.3ZM41,5.7v50.6c0,3.1-2.8,5.7-6.2,5.7H6.2c-3.4,0-6.2-2.6-6.2-5.7V5.7C0,2.6,2.8,0,6.2,0h28.6c3.4,0,6.2,2.6,6.2,5.7ZM11.5,3.3l1.2,2.4h15.4l1.2-2.4H11.5ZM37.5,5.7c0-1.3-1.2-2.4-2.7-2.4h-1.5l-2.4,4.8c-.3.6-.9.9-1.6.9H11.7c-.7,0-1.3-.4-1.6-.9l-2.4-4.8h-1.5c-1.5,0-2.7,1.1-2.7,2.4v50.6c0,1.3,1.2,2.4,2.7,2.4h28.6c1.5,0,2.7-1.1,2.7-2.4V5.7ZM25.4,53.6h-9.7c-1,0-1.8.7-1.8,1.6s.8,1.6,1.8,1.6h9.7c1,0,1.8-.7,1.8-1.6s-.8-1.6-1.8-1.6Z"/>
</svg>