<?xml version="1.0" encoding="UTF-8"?>
<svg id="Layer_1" data-name="Layer 1" xmlns="http://www.w3.org/2000/svg" version="1.1" viewBox="0 0 40 40">
  <defs>
    <style>
      .cls-1 {
        fill: #00a0f1;
        stroke-width: 0px;
      }
    </style>
  </defs>
  <path class="cls-1" d="M36.9,22.2l-3.4-1.5v-8.5c0-.6-.3-1.1-.9-1.4l-12.4-5.9c-.4-.2-.9-.2-1.3,0l-6.6,3.1v-1.3c.9-.3,1.5-1.1,1.5-2.1s-1-2.2-2.2-2.2-2.2,1-2.2,2.2.7,1.8,1.6,2.1v1.9l-4.5,2.1c-.5.2-.9.8-.9,1.4v5.7l-2.9-1.3c-.2-.1-.4-.4-.4-.6v-6.2c0-.3.2-.5.4-.7l3.2-1.7c.5-.3.9-.8.9-1.4v-1.5c.9-.3,1.5-1.1,1.5-2.1C8.3,1,7.3,0,6.1,0s-2.2,1-2.2,2.2.7,1.8,1.6,2.1v1.5c0,.1,0,.3-.2.3l-3.2,1.7c-.7.3-1.1,1-1.1,1.8v6.2c0,.8.5,1.5,1.2,1.8l3.4,1.5v7.8c0,.6.3,1.1.9,1.4l12.6,6.2c.2.1.4.2.7.2s.5,0,.7-.2l6.4-3.2v1.8c-.9.3-1.5,1.1-1.5,2.1s1,2.2,2.2,2.2,2.2-1,2.2-2.2-.7-1.8-1.6-2.1v-2.4l4.6-2.3c.5-.2.9-.8.9-1.4v-4.9l2.8,1.3c.2.1.4.4.4.6v6.2c0,.3-.2.5-.4.7l-3.2,1.7c-.5.3-.9.8-.9,1.4v1.5c-.9.3-1.5,1.1-1.5,2.1s1,2.2,2.2,2.2,2.2-1,2.2-2.2-.7-1.8-1.6-2.1v-1.5c0-.1,0-.3.2-.3l3.2-1.7c.7-.3,1.1-1,1.1-1.8v-6.2c0-.8-.5-1.5-1.2-1.8h0ZM10.7,4.6c0-.5.4-.9.9-.9s.9.4.9.9-.4.9-.9.9-.9-.4-.9-.9ZM5.2,2.2c0-.5.4-.9.9-.9s.9.4.9.9-.4.9-.9.9-.9-.4-.9-.9ZM28.4,35.3c0,.5-.4.9-.9.9s-.9-.4-.9-.9.4-.9.9-.9.9.4.9.9ZM32.3,27c0,.1,0,.2-.2.3l-12.3,6.2c0,0-.2,0-.2,0l-12.6-6.2c0,0-.2-.2-.2-.3v-14.9c0-.1,0-.2.2-.3l12.4-5.9s0,0,.1,0,0,0,.1,0l12.4,5.9c.1,0,.2.2.2.3v14.9h0ZM33.9,37.7c0,.5-.4.9-.9.9s-.9-.4-.9-.9.4-.9.9-.9.9.4.9.9Z"/>
  <path class="cls-1" d="M29.2,13.7l-4.5-2.1c-.2,0-.4,0-.5,0l-4.4,2-4.3-2c-.2,0-.5,0-.7,0l-4.4,2c-.3.1-.5.4-.5.7v5.2c0,.3.2.6.4.7l4.2,2v5.1c0,.3.2.6.5.7l4.3,2.1c.1,0,.2,0,.4,0s.2,0,.4,0l4.4-2.1c.3-.1.5-.4.5-.7v-5l4.3-2.1c.2-.1.4-.3.4-.6v-5.4c0-.3-.1-.5-.4-.6h0ZM20.3,14.5l4.2-1.9,3.5,1.6-3.7,1.6c-.2.1-.4.4-.4.6v4.7l-1.6-.7-2-.9v-5h0ZM19.3,19.5l-3.7,1.7v-4.5l3.7-1.7v4.6h0ZM10.9,14.5l4.2-1.9,3.4,1.6-3.6,1.6c-.2.1-.4.4-.4.7v4.7l-3.6-1.7v-5h0ZM15.5,22.4l4.2-2,2.1,1,1.3.6-3.5,1.7c-.3.1-.4.4-.4.7v4.7l-3.7-1.7v-4.9h0ZM20.2,29v-4.5l3.7-1.7v4.5l-3.7,1.7h0ZM24.9,21.3v-4.6l3.7-1.6v4.5l-3.7,1.8Z"/>
</svg>