<?xml version="1.0" encoding="UTF-8"?>
<svg id="Layer_2" data-name="Layer 2" xmlns="http://www.w3.org/2000/svg" viewBox="0 0 191.16 124.01" width="48" height="48">
  <defs>
    <style>
      .cls-1 {
        fill: #fff;
        stroke-width: 0px;
      }
    </style>
  </defs>
  <g id="Layer_1-2" data-name="Layer 1">
    <path class="cls-1" d="M35.49,123.58c12.96-22.5,25.74-44.67,38.81-67.34-10.52.48-17.37-6.82-25.45-11.18-14.07-7.58-27.7-16-41.55-23.99-1.54-.89-3.04-2.02-4.59-2.66C.04,17.32-.3,15.45.19,13.27c.55-2.47,2.77-1.19,4.15-1.19,25.48-.08,50.95-.01,76.43-.11,4.59-.02,7.98,2.3,11.5,4.66,2.4,1.61,4.29,2.28,5.93-1.48,2.05-4.7,5.26-8.89,7.54-13.52.96-1.95,2.22-1.6,3.59-1.6,26.14-.02,52.29,0,78.43-.03,1.98,0,3.48-.1,3.39,2.75-.08,2.77-1.77,2.26-3.34,2.26-12.32.01-24.65.14-36.97-.08-3-.05-4.35,1.17-5.69,3.51-9.45,16.54-19.04,33.01-28.52,49.54-2.41,4.2-4.54,8.56-6.92,12.78-1.33,2.37-3.13,3.57-6.26,3.36-5.97-.39-11.99.05-17.97-.18-3.38-.13-5.59.82-6.97,4.06-1.07,2.5-2.68,4.77-4.08,7.13-.39.65-.32,1.96-1.35,1.79-6.95-1.14-7.09,5.41-9.9,8.82-1.62,1.96-2.6,4.44-3.89,6.67-.31.53-.77,1.48-1.04,1.44-7.64-1.24-7.21,6.09-10.24,9.68-1.55,1.84-3.11,3.96-3.78,6.21-1.34,4.48-4.25,4.76-8.76,3.84Z"/>
  </g>
</svg>