<?xml version="1.0" encoding="UTF-8"?>
<svg id="Layer_2" data-name="Layer 2" xmlns="http://www.w3.org/2000/svg" viewBox="0 0 608 150.77">
  <defs>
    <style>
      .cls-1 {
        fill: #00a0f1;
        stroke-width: 0px;
      }
    </style>
  </defs>
  <g id="Layer_1-2" data-name="Layer 1">
    <g>
      <path class="cls-1" d="M38.16,150.26c13.94-27.35,27.68-54.32,41.72-81.87-11.32.58-18.67-8.3-27.36-13.59-15.13-9.22-29.78-19.45-44.67-29.17-1.66-1.08-3.27-2.46-4.93-3.24C.05,21.05-.32,18.78.2,16.14c.6-3,2.98-1.44,4.47-1.45,27.39-.1,54.79-.02,82.18-.13,4.93-.02,8.58,2.79,12.37,5.66,2.58,1.96,4.61,2.77,6.37-1.79,2.21-5.72,5.66-10.81,8.11-16.43,1.03-2.37,2.38-1.95,3.86-1.95,28.11-.02,56.22,0,84.33-.04,2.13,0,3.74-.12,3.65,3.34-.09,3.37-1.9,2.75-3.59,2.75-13.25.02-26.5.16-39.75-.1-3.23-.06-4.68,1.43-6.11,4.27-10.16,20.11-20.47,40.14-30.66,60.23-2.59,5.11-4.88,10.41-7.44,15.54-1.43,2.88-3.37,4.34-6.73,4.09-6.42-.48-12.89.06-19.33-.22-3.63-.16-6.01.99-7.49,4.93-1.15,3.04-2.89,5.8-4.39,8.67-.42.8-.34,2.39-1.46,2.18-7.48-1.38-7.62,6.57-10.64,10.72-1.74,2.39-2.8,5.4-4.18,8.11-.33.64-.83,1.8-1.12,1.75-8.22-1.51-7.76,7.41-11.01,11.77-1.67,2.24-3.34,4.81-4.06,7.55-1.44,5.45-4.57,5.79-9.41,4.67Z"/>
      <path class="cls-1" d="M483.84,41.36c1.95,0,3.54,0,5.14,0q12.28-.04,15.29,13.3c.47,2.09.61,4.3,1.21,6.34,1.89,6.43,3.93,12.81,6.07,19.71,5.28-4.81,7.9-11.47,11.84-16.89,4.51-6.22,8.26-13.14,12.42-19.69,1.16-1.82,2.61-2.87,4.92-2.86,22.38.13,44.75.08,67.18.08.04.48.12.78.07,1.06q-1.91,12.31-13.41,12.31c-12.81,0-12.46.08-15.1,13.99-3.64,19.22-7.55,38.38-10.76,57.71-.34,2.04-1.2,3.99-3.89,3.74-3.54-.32-7.12-.08-11.07-.08,4.64-24.41,9.17-48.37,13.79-72.3.51-2.66-.41-3.11-2.41-3.09-5.73.07-11.47.2-17.19-.05-2.88-.13-4.23,2.02-5.56,3.98-8.81,13.01-17.63,26.03-26.15,39.29-3.22,5.02-2.86,11.58-4.34,17.38-.38,1.48-.53,3.06-.89,4.6-2.51,10.98-2.42,10.84-12.42,10.29-2.96-.16-3.26-1.6-2.77-4.1,1.57-8.06,3.08-16.13,4.9-24.12.42-1.85-.19-2.95-.63-4.44-5.43-18.56-10.78-37.16-16.28-56.19Z"/>
      <path class="cls-1" d="M461.38,84.88c9.77,3.61,12.49,10.92,11.69,20.08-.83,9.48-9.26,20.34-17.22,22.65-15.24,4.43-30.79,1.79-46.19,2.5-2.76.13-2.3-2.12-2-3.7,4.07-21.12,8.24-42.22,12.36-63.33.9-4.61,2.32-9.22,2.44-13.87.17-6.45,2.41-8.33,7.99-7.99,9.11.54,18.27.21,27.4.13,6.99-.07,13.71,1.34,17.34,8.7,4.11,8.32,1.76,16.7-1.94,24.58-2.31,4.92-5.87,8.19-11.88,10.26ZM436.46,116.73c2.69,0,5.38-.17,8.06.04,4.99.38,8.96-1.72,11.94-6.11,2.18-3.21,3.63-6.81,2.15-10.95-1.37-3.84-4.04-5.32-7.64-6.22-6.55-1.63-13.09-.66-19.62-1.1-2.4-.16-3.23.46-3.54,3.51-.44,4.44-1.96,8.73-2.9,13.11-1.67,7.72-1.63,7.73,5.64,7.73,1.97,0,3.94,0,5.91,0ZM442.21,80.26c3.41-.27,7.28.57,11.08-1.17,6.11-2.8,9.6-9.8,9.16-18.04-.37-6.96-5.58-5.86-9.11-7.42-1.4-.62-3.19-.2-4.79-.11-4.26.23-9.72-2-12.45.88-2.53,2.67-2.13,8.8-2.85,13.47-1.9,12.41-2.07,12.37,8.96,12.37Z"/>
      <path class="cls-1" d="M279.3,40.15c23.9-1.24,36.48,21.45,30.08,47.99-5.62,23.3-19.23,38.67-40.39,42.77-16.27,3.15-31.54-2.69-37.17-23.98-3.6-13.58-.7-26.76,5.37-38.56,7.28-14.16,18.08-23.89,32.61-27.5.68-.17,1.32-.65,1.99-.67,2.5-.08,5.01-.03,7.51-.04ZM276.17,54.78c-1.86.47-4.22.1-6.74.81-15.11,4.29-27.29,24.88-24.29,43.22,1.88,11.5,13.54,20,23.74,17.44,16.17-4.05,24.61-16.28,27.71-33.46,2.58-14.3-6.08-29.47-20.43-28.02Z"/>
      <path class="cls-1" d="M222.74,98.49c-6.02,16.72-15.8,27.76-31.29,31.59-10.48,2.59-20.61,2.15-29.35-5.92-9.85-9.08-10.59-21.81-9.01-34.45,1.49-11.88,5.35-23.08,12.53-32.49,7.66-10.03,17.16-16.13,28.81-16.96,8.35-.59,16.77-1,24.27,5.4,4.86,4.15,7.12,9.36,8.23,15.65.27,1.54.19,3.08.63,4.69,1.34,4.91-.15,6.88-4.75,6.96-1.07.02-2.17-.14-3.22.03-3.58.59-5.28-.49-6.38-5.03-3.06-12.62-14.59-17.67-26.67-11.65-15.49,7.73-22.23,31.49-19.07,46.06,3.01,13.88,14.7,15.91,22.59,13.91,7.18-1.82,13-6.4,16.83-13.84,1.46-2.84,3.37-4.65,6.74-4.05,2.77.5,5.66.1,9.12.1Z"/>
      <path class="cls-1" d="M312.13,130.1c4.64-25.07,9.19-49.67,13.72-74.27.71-3.85,2.12-7.5,2.22-11.53.07-2.7,1.89-2.99,3.84-2.96,3.57.06,7.14.02,10.89.02-4.46,23.77-8.76,47.24-13.36,70.63-.75,3.79.72,3.54,2.87,3.53,9.84-.02,19.69.04,29.53-.04,3.3-.03,5.61-.71,4.05,5.23-2.41,9.18-1.79,9.39-9.87,9.39h-43.89Z"/>
      <path class="cls-1" d="M385.5,130.1c-2.56,0-4-.15-5.41.03-2.79.36-2.96-1.58-2.55-3.73,4.47-23.59,9-47.16,13.51-70.73.15-.77.29-1.54.39-2.32,1.58-12.23,3.52-13.83,14.06-12.06,2.04.34,2.24,1.17,1.87,3.11-4.88,25.09-9.72,50.18-14.57,75.27-.15.77-.22,1.57-.27,2.36-.35,5.75-1.56,10.38-7.02,8.07Z"/>
    </g>
  </g>
</svg>